<?xml version="1.0" encoding="utf-8"?>
<!-- Generator: Adobe Illustrator 23.0.2, SVG Export Plug-In . SVG Version: 6.00 Build 0)  -->
<svg version="1.1" id="Layer_1" xmlns="http://www.w3.org/2000/svg" xmlns:xlink="http://www.w3.org/1999/xlink" x="0px" y="0px"
	 viewBox="0 0 230 40" style="enable-background:new 0 0 230 40;" xml:space="preserve">
<polygon style="fill:#9E0C27;" points="57.65,24.99 57.65,30.63 56.2,31.29 53.75,32.4 47.55,35.22 45.1,36.33 38.9,39.15 
	38.89,39.15 38.89,33.51 38.9,33.51 41.34,32.4 47.55,29.58 49.99,28.47 56.2,25.65 "/>
<path style="fill:#D21034;" d="M36.45,32.4l-6.21-2.82l-2.44-1.11l-6.21-2.82L20.14,25v5.64l1.45,0.66l2.44,1.11l6.21,2.82
	l2.44,1.11l6.21,2.82v-5.64L36.45,32.4z M26.07,30.13c-0.23,0.49-0.81,0.71-1.31,0.49c-0.24-0.11-0.42-0.31-0.51-0.54
	c-0.09-0.24-0.09-0.51,0.02-0.76c0.22-0.49,0.81-0.71,1.3-0.49c0.21,0.09,0.37,0.25,0.46,0.44C26.18,29.53,26.2,29.85,26.07,30.13
	 M33.75,33.62C33.75,33.62,33.75,33.62,33.75,33.62c-0.21,0.45-0.71,0.68-1.18,0.54c-0.04-0.01-0.09-0.03-0.13-0.05l-5.12-2.33
	c-0.28-0.13-0.47-0.36-0.54-0.64c-0.06-0.21-0.05-0.45,0.05-0.67c0.23-0.5,0.81-0.71,1.3-0.49l0.6,0.27l4.53,2.05
	C33.76,32.54,33.98,33.13,33.75,33.62"/>
<polygon style="fill:#9E0C27;" points="57.65,17.14 57.65,22.78 53.75,24.54 47.55,27.36 45.1,28.47 38.9,31.29 38.89,31.29 
	38.89,25.65 38.9,25.65 41.34,24.54 47.55,21.73 "/>
<path style="fill:#D21034;" d="M36.45,24.54l-6.21-2.82l-10.1-4.59v5.64l3.89,1.77l6.21,2.82l2.44,1.11l6.21,2.82v-5.64L36.45,24.54
	z M26.07,22.92c-0.23,0.5-0.81,0.71-1.31,0.49c-0.49-0.22-0.71-0.81-0.49-1.3c0.22-0.5,0.81-0.72,1.3-0.49
	C26.08,21.84,26.29,22.43,26.07,22.92 M33.75,26.41c-0.23,0.5-0.81,0.71-1.3,0.49l-0.59-0.27l-4.53-2.06
	c-0.5-0.23-0.71-0.81-0.49-1.3c0.01-0.02,0.02-0.05,0.03-0.07c0.02-0.04,0.05-0.08,0.08-0.12c0.01-0.02,0.03-0.04,0.05-0.06
	c0.02-0.02,0.03-0.03,0.05-0.05c0.36-0.2,0.51-0.26,0.6-0.28c0.02,0,0.03-0.01,0.05-0.01c0.01,0,0.03,0,0.04,0
	c0.1,0,0.19,0.01,0.29,0.04c0.04,0.01,0.08,0.03,0.12,0.05l5.12,2.33c0.28,0.13,0.47,0.37,0.54,0.64
	C33.87,25.96,33.85,26.2,33.75,26.41"/>
<path style="fill:#007168;" d="M27.69,22.7c-0.02,0-0.03,0-0.05,0.01C27.66,22.7,27.68,22.7,27.69,22.7"/>
<path style="fill:#007168;" d="M27.04,22.98c0.16-0.16,0.38-0.26,0.6-0.28C27.55,22.72,27.4,22.78,27.04,22.98"/>
<polygon style="fill:#9E0C27;" points="57.65,9.28 57.65,14.92 45.1,20.62 38.9,23.44 38.89,23.44 38.89,17.8 38.9,17.8 "/>
<path style="fill:#D21034;" d="M20.14,9.28v5.64l12.54,5.7l6.21,2.82V17.8L20.14,9.28z M26.07,15.28c-0.23,0.49-0.81,0.71-1.31,0.49
	c-0.49-0.23-0.71-0.81-0.49-1.3c0.22-0.5,0.81-0.71,1.3-0.49C26.08,14.19,26.29,14.78,26.07,15.28 M33.75,18.76
	c-0.23,0.5-0.81,0.71-1.3,0.49l-5.12-2.33c-0.5-0.23-0.71-0.81-0.49-1.3c0.23-0.5,0.81-0.72,1.3-0.49l5.12,2.33
	C33.76,17.68,33.98,18.27,33.75,18.76"/>
<path style="fill:#D21034;" d="M57.65,9.28L38.89,0.77L20.14,9.28l18.75,8.51v0L57.65,9.28z M37,11.16l1.89-0.74l2.19-0.85
	l-0.11-0.04l-2.07,0.5l-2.93,0.7l-1.53-0.64l3.18-1.87l-0.11-0.04l-4.07,1.5L31.4,8.82l7.06-2.52l0.43,0.16l2.62,0.97l-2.47,1.5
	l0.09,0.04l3.98-0.94l3.28,1.22l-7.08,2.86l-0.42-0.17L37,11.16z"/>
<polygon style="fill:#1A1A1A;" points="95.76,32.52 95.76,27.68 96.36,27.68 96.36,31.98 98.62,31.98 98.62,32.52 "/>
<path style="fill:#1A1A1A;" d="M99.35,27.3h0.61v0.63h-0.61V27.3z M99.37,28.93h0.58v3.58h-0.58V28.93z"/>
<path style="fill:#1A1A1A;" d="M102.25,32.57c-0.26,0-0.47-0.03-0.64-0.08c-0.17-0.06-0.31-0.15-0.4-0.29
	c-0.1-0.14-0.17-0.33-0.21-0.57c-0.04-0.24-0.06-0.54-0.06-0.9c0-0.37,0.02-0.67,0.06-0.91c0.04-0.24,0.11-0.43,0.21-0.57
	c0.1-0.14,0.23-0.23,0.4-0.29c0.17-0.06,0.38-0.09,0.64-0.09c0.19,0,0.36,0.02,0.51,0.05c0.15,0.03,0.28,0.08,0.39,0.16
	c0.11,0.07,0.2,0.18,0.26,0.31h0.04V27.3h0.58v5.22h-0.51L103.48,32h-0.04c-0.07,0.16-0.16,0.29-0.28,0.37
	c-0.12,0.08-0.26,0.14-0.42,0.16C102.58,32.56,102.42,32.57,102.25,32.57 M102.48,32.07c0.24,0,0.43-0.03,0.57-0.1
	c0.14-0.07,0.24-0.17,0.3-0.31c0.05-0.13,0.08-0.27,0.08-0.43c0.01-0.15,0.01-0.34,0.01-0.55c0-0.17,0-0.33-0.01-0.47
	c-0.01-0.14-0.04-0.27-0.08-0.38c-0.06-0.16-0.16-0.27-0.3-0.34c-0.14-0.07-0.33-0.1-0.58-0.1c-0.21,0-0.38,0.01-0.51,0.04
	c-0.13,0.03-0.22,0.09-0.29,0.18c-0.07,0.09-0.11,0.22-0.13,0.4c-0.02,0.18-0.04,0.41-0.04,0.71c0,0.3,0.01,0.54,0.04,0.72
	c0.02,0.18,0.07,0.31,0.13,0.4c0.07,0.09,0.16,0.15,0.29,0.18C102.09,32.05,102.26,32.07,102.48,32.07"/>
<path style="fill:#1A1A1A;" d="M106.62,32.57c-0.29,0-0.53-0.02-0.73-0.06c-0.19-0.04-0.35-0.1-0.47-0.19
	c-0.12-0.09-0.21-0.2-0.27-0.34c-0.06-0.14-0.1-0.32-0.12-0.52c-0.02-0.21-0.03-0.45-0.03-0.73c0-0.33,0.01-0.62,0.04-0.85
	c0.03-0.24,0.09-0.43,0.19-0.58s0.26-0.26,0.47-0.32c0.22-0.07,0.51-0.1,0.87-0.1c0.28,0,0.5,0.02,0.68,0.06
	c0.18,0.04,0.31,0.11,0.42,0.2c0.1,0.09,0.18,0.21,0.23,0.35c0.05,0.15,0.08,0.32,0.09,0.53c0.01,0.2,0.02,0.44,0.02,0.71v0.19
	h-2.45c0,0.24,0.01,0.44,0.04,0.6c0.02,0.15,0.07,0.27,0.14,0.36c0.07,0.08,0.19,0.14,0.34,0.18c0.16,0.03,0.37,0.05,0.64,0.05
	c0.11,0,0.24,0,0.37-0.01c0.14-0.01,0.27-0.02,0.41-0.03c0.14-0.01,0.26-0.03,0.37-0.04v0.46c-0.1,0.02-0.22,0.04-0.36,0.05
	c-0.14,0.01-0.29,0.03-0.45,0.04C106.92,32.57,106.77,32.57,106.62,32.57 M107.47,30.63v-0.19c0-0.24-0.01-0.44-0.04-0.58
	c-0.03-0.14-0.08-0.25-0.14-0.32c-0.07-0.07-0.16-0.12-0.28-0.14c-0.12-0.02-0.26-0.04-0.44-0.04c-0.22,0-0.4,0.02-0.53,0.05
	c-0.13,0.03-0.23,0.09-0.29,0.17c-0.07,0.08-0.11,0.19-0.13,0.34c-0.02,0.15-0.04,0.35-0.04,0.6h2.03L107.47,30.63z"/>
<path style="fill:#1A1A1A;" d="M109.01,32.52v-3.58h0.51l0.03,0.69h0.04c0.06-0.2,0.15-0.36,0.26-0.46
	c0.11-0.11,0.25-0.18,0.41-0.22c0.16-0.04,0.33-0.06,0.53-0.06v0.56c-0.32,0-0.57,0.05-0.74,0.15c-0.17,0.1-0.29,0.26-0.36,0.48
	c-0.07,0.22-0.1,0.49-0.1,0.81v1.63H109.01z"/>
<path style="fill:#1A1A1A;" d="M114.56,32.57c-0.29,0-0.53-0.02-0.73-0.06c-0.19-0.04-0.35-0.1-0.47-0.19
	c-0.12-0.09-0.21-0.2-0.27-0.34c-0.06-0.14-0.1-0.32-0.12-0.52c-0.02-0.21-0.03-0.45-0.03-0.73c0-0.33,0.01-0.62,0.04-0.85
	c0.03-0.24,0.09-0.43,0.19-0.58c0.1-0.15,0.26-0.26,0.47-0.32c0.22-0.07,0.51-0.1,0.87-0.1c0.28,0,0.5,0.02,0.68,0.06
	c0.18,0.04,0.31,0.11,0.42,0.2c0.1,0.09,0.18,0.21,0.23,0.35c0.05,0.15,0.08,0.32,0.09,0.53c0.01,0.2,0.02,0.44,0.02,0.71v0.19
	h-2.45c0,0.24,0.01,0.44,0.04,0.6c0.02,0.15,0.07,0.27,0.14,0.36c0.07,0.08,0.19,0.14,0.34,0.18c0.16,0.03,0.37,0.05,0.64,0.05
	c0.11,0,0.24,0,0.37-0.01c0.14-0.01,0.27-0.02,0.41-0.03c0.14-0.01,0.26-0.03,0.37-0.04v0.46c-0.1,0.02-0.22,0.04-0.36,0.05
	c-0.14,0.01-0.29,0.03-0.45,0.04C114.87,32.57,114.71,32.57,114.56,32.57 M115.42,30.63v-0.19c0-0.24-0.01-0.44-0.04-0.58
	c-0.03-0.14-0.08-0.25-0.14-0.32c-0.07-0.07-0.16-0.12-0.28-0.14c-0.12-0.02-0.26-0.04-0.44-0.04c-0.22,0-0.4,0.02-0.53,0.05
	c-0.13,0.03-0.23,0.09-0.29,0.17c-0.07,0.08-0.11,0.19-0.13,0.34c-0.02,0.15-0.04,0.35-0.04,0.6h2.03L115.42,30.63z"/>
<path style="fill:#1A1A1A;" d="M116.96,32.52v-3.58h0.52l0.02,0.51h0.04c0.04-0.11,0.11-0.21,0.19-0.3c0.09-0.08,0.2-0.15,0.34-0.2
	c0.14-0.05,0.33-0.07,0.55-0.07c0.32,0,0.56,0.05,0.71,0.14c0.15,0.09,0.26,0.24,0.32,0.43h0.04c0.05-0.11,0.11-0.21,0.2-0.3
	c0.09-0.08,0.21-0.15,0.36-0.2c0.15-0.05,0.33-0.07,0.56-0.07c0.32,0,0.56,0.05,0.72,0.15c0.16,0.1,0.26,0.25,0.32,0.46
	c0.05,0.21,0.08,0.47,0.08,0.79v2.24h-0.57v-2.04c0-0.24-0.01-0.44-0.03-0.58c-0.02-0.14-0.05-0.25-0.11-0.32
	c-0.05-0.07-0.13-0.12-0.23-0.14c-0.1-0.02-0.24-0.04-0.41-0.04c-0.2,0-0.36,0.03-0.48,0.08c-0.12,0.05-0.2,0.13-0.26,0.24
	c-0.05,0.11-0.09,0.24-0.1,0.4c-0.01,0.16-0.02,0.34-0.02,0.55v1.85h-0.57v-2.04c0-0.24-0.01-0.44-0.03-0.58
	c-0.02-0.14-0.05-0.25-0.11-0.32c-0.05-0.07-0.13-0.12-0.23-0.14c-0.1-0.02-0.24-0.04-0.41-0.04c-0.2,0-0.36,0.03-0.48,0.09
	c-0.12,0.06-0.2,0.14-0.25,0.25c-0.05,0.11-0.08,0.24-0.1,0.4c-0.01,0.16-0.02,0.34-0.02,0.54v1.85H116.96z"/>
<path style="fill:#1A1A1A;" d="M125.86,32.57c-0.14,0-0.28,0-0.44-0.01c-0.15-0.01-0.31-0.02-0.46-0.03
	c-0.15-0.01-0.29-0.03-0.41-0.05v-0.46c0.11,0.01,0.22,0.02,0.33,0.03c0.11,0.01,0.21,0.02,0.31,0.02c0.1,0.01,0.21,0.01,0.31,0.01
	c0.1,0,0.21,0,0.32,0c0.24,0,0.42-0.02,0.53-0.05c0.11-0.04,0.18-0.09,0.22-0.18c0.03-0.08,0.05-0.19,0.05-0.33
	c0-0.15-0.01-0.27-0.04-0.34c-0.03-0.07-0.07-0.12-0.13-0.14c-0.06-0.02-0.16-0.04-0.28-0.05l-0.93-0.11
	c-0.22-0.02-0.39-0.07-0.5-0.14c-0.11-0.07-0.19-0.18-0.23-0.31c-0.04-0.14-0.06-0.31-0.06-0.51c0-0.23,0.03-0.42,0.1-0.56
	c0.07-0.14,0.16-0.25,0.28-0.32c0.12-0.07,0.27-0.12,0.44-0.14c0.17-0.02,0.37-0.03,0.58-0.03c0.12,0,0.25,0,0.39,0.01
	c0.14,0.01,0.27,0.02,0.4,0.04c0.13,0.01,0.24,0.03,0.34,0.05v0.46c-0.12-0.02-0.24-0.03-0.37-0.05c-0.12-0.01-0.25-0.02-0.38-0.02
	c-0.13,0-0.26-0.01-0.39-0.01c-0.18,0-0.33,0.01-0.46,0.03c-0.13,0.02-0.22,0.07-0.28,0.14c-0.06,0.08-0.1,0.2-0.1,0.37
	c0,0.14,0.01,0.24,0.03,0.31c0.02,0.07,0.06,0.12,0.13,0.14c0.07,0.03,0.16,0.05,0.27,0.06l0.97,0.11c0.19,0.02,0.34,0.06,0.45,0.11
	c0.11,0.05,0.19,0.15,0.24,0.28c0.05,0.14,0.07,0.34,0.07,0.61c0,0.22-0.03,0.41-0.08,0.54c-0.05,0.14-0.14,0.24-0.25,0.32
	c-0.11,0.08-0.25,0.13-0.41,0.15C126.26,32.56,126.07,32.57,125.86,32.57"/>
<path style="fill:#1A1A1A;" d="M129.52,32.57c-0.29,0-0.54-0.02-0.73-0.05s-0.35-0.09-0.46-0.17c-0.11-0.08-0.2-0.19-0.25-0.33
	c-0.05-0.14-0.09-0.32-0.1-0.53c-0.01-0.21-0.02-0.47-0.02-0.76c0-0.3,0.01-0.55,0.02-0.76c0.01-0.21,0.05-0.39,0.1-0.53
	c0.05-0.14,0.14-0.25,0.25-0.33c0.11-0.08,0.27-0.14,0.46-0.17c0.19-0.04,0.44-0.05,0.73-0.05c0.3,0,0.55,0.02,0.74,0.05
	c0.19,0.04,0.35,0.09,0.46,0.17c0.11,0.08,0.2,0.19,0.25,0.33c0.05,0.14,0.09,0.32,0.1,0.53c0.01,0.21,0.02,0.47,0.02,0.76
	c0,0.29-0.01,0.55-0.02,0.76c-0.01,0.21-0.05,0.39-0.1,0.53c-0.05,0.14-0.14,0.25-0.25,0.33c-0.11,0.08-0.27,0.14-0.46,0.17
	S129.82,32.57,129.52,32.57 M129.52,32.09c0.25,0,0.45-0.02,0.58-0.05c0.14-0.03,0.23-0.1,0.29-0.19c0.06-0.09,0.09-0.23,0.11-0.41
	c0.01-0.18,0.02-0.42,0.02-0.71c0-0.3-0.01-0.53-0.02-0.71c-0.01-0.18-0.05-0.32-0.11-0.41c-0.06-0.09-0.16-0.16-0.29-0.19
	c-0.14-0.03-0.33-0.05-0.58-0.05c-0.25,0-0.44,0.02-0.58,0.05c-0.14,0.03-0.24,0.1-0.29,0.19c-0.06,0.09-0.09,0.23-0.11,0.41
	c-0.01,0.18-0.02,0.42-0.02,0.71c0,0.29,0.01,0.53,0.02,0.71c0.01,0.18,0.05,0.32,0.11,0.41c0.06,0.09,0.15,0.16,0.29,0.19
	C129.08,32.07,129.27,32.09,129.52,32.09"/>
<rect x="132.08" y="27.3" style="fill:#1A1A1A;" width="0.58" height="5.22"/>
<path style="fill:#1A1A1A;" d="M135.02,32.57c-0.26,0-0.47-0.03-0.64-0.08c-0.16-0.06-0.28-0.14-0.37-0.25
	c-0.08-0.11-0.14-0.26-0.17-0.43c-0.03-0.18-0.05-0.39-0.05-0.63v-2.24h0.58v2.04c0,0.24,0.01,0.43,0.03,0.58
	c0.02,0.15,0.06,0.25,0.12,0.33c0.06,0.07,0.15,0.12,0.27,0.14c0.12,0.02,0.27,0.04,0.46,0.04c0.23,0,0.42-0.03,0.55-0.09
	c0.13-0.06,0.23-0.14,0.28-0.25c0.06-0.11,0.1-0.24,0.11-0.4c0.02-0.16,0.02-0.34,0.02-0.54v-1.85h0.57v3.58h-0.51L136.26,32h-0.05
	c-0.05,0.11-0.12,0.21-0.21,0.3c-0.09,0.08-0.22,0.15-0.38,0.2C135.47,32.55,135.26,32.57,135.02,32.57"/>
<path style="fill:#1A1A1A;" d="M139.24,32.57c-0.27,0-0.5-0.02-0.67-0.07c-0.18-0.05-0.32-0.12-0.42-0.21
	c-0.11-0.09-0.18-0.21-0.24-0.36c-0.05-0.15-0.09-0.32-0.1-0.52c-0.02-0.2-0.02-0.43-0.02-0.69c0-0.27,0.01-0.5,0.03-0.7
	c0.02-0.2,0.06-0.38,0.12-0.52c0.06-0.15,0.14-0.27,0.25-0.35c0.11-0.09,0.24-0.16,0.41-0.2c0.17-0.04,0.38-0.07,0.63-0.07
	c0.16,0,0.34,0.01,0.52,0.02c0.18,0.02,0.33,0.04,0.45,0.07v0.46c-0.11-0.02-0.24-0.04-0.4-0.05c-0.16-0.01-0.3-0.02-0.43-0.02
	c-0.22,0-0.4,0.02-0.53,0.06c-0.13,0.04-0.23,0.11-0.3,0.2c-0.07,0.1-0.11,0.24-0.14,0.41c-0.02,0.18-0.04,0.41-0.04,0.69
	c0,0.29,0.01,0.52,0.04,0.7c0.02,0.18,0.07,0.32,0.14,0.41c0.07,0.1,0.18,0.16,0.31,0.2c0.13,0.04,0.31,0.05,0.53,0.05
	c0.13,0,0.27-0.01,0.43-0.02c0.15-0.01,0.29-0.03,0.41-0.05v0.46c-0.12,0.02-0.27,0.04-0.45,0.06
	C139.59,32.56,139.41,32.57,139.24,32.57 M138.62,33.85v-0.03l0.48-1.43h0.39v0.03l-0.3,1.43H138.62z"/>
<path style="fill:#1A1A1A;" d="M142.52,32.57c-0.29,0-0.54-0.02-0.73-0.05c-0.19-0.04-0.35-0.09-0.46-0.17
	c-0.11-0.08-0.2-0.19-0.25-0.33c-0.05-0.14-0.09-0.32-0.1-0.53c-0.01-0.21-0.02-0.47-0.02-0.76c0-0.3,0.01-0.55,0.02-0.76
	c0.01-0.21,0.05-0.39,0.1-0.53c0.05-0.14,0.14-0.25,0.25-0.33c0.11-0.08,0.27-0.14,0.46-0.17c0.19-0.04,0.44-0.05,0.73-0.05
	c0.3,0,0.55,0.02,0.74,0.05c0.19,0.04,0.35,0.09,0.46,0.17c0.11,0.08,0.2,0.19,0.25,0.33c0.05,0.14,0.09,0.32,0.1,0.53
	c0.01,0.21,0.02,0.47,0.02,0.76c0,0.29-0.01,0.55-0.02,0.76c-0.01,0.21-0.05,0.39-0.1,0.53c-0.05,0.14-0.14,0.25-0.25,0.33
	c-0.11,0.08-0.27,0.14-0.46,0.17C143.06,32.56,142.82,32.57,142.52,32.57 M141.31,28.29c0-0.18,0.01-0.33,0.03-0.45
	c0.02-0.12,0.07-0.2,0.14-0.26c0.07-0.06,0.19-0.09,0.34-0.09c0.13,0,0.26,0.02,0.39,0.05c0.13,0.03,0.25,0.07,0.38,0.12
	c0.1,0.03,0.19,0.06,0.28,0.09c0.09,0.03,0.18,0.04,0.28,0.04c0.1,0,0.17-0.03,0.19-0.08c0.02-0.05,0.03-0.15,0.03-0.3h0.33
	c0,0.18-0.01,0.33-0.03,0.45c-0.02,0.12-0.07,0.2-0.14,0.26c-0.07,0.06-0.19,0.09-0.34,0.09c-0.14,0-0.27-0.02-0.39-0.06
	c-0.12-0.04-0.24-0.07-0.38-0.11c-0.1-0.03-0.19-0.06-0.29-0.09c-0.09-0.03-0.18-0.04-0.27-0.04c-0.1,0-0.17,0.03-0.19,0.08
	c-0.02,0.05-0.03,0.15-0.03,0.3H141.31z M142.52,32.09c0.25,0,0.45-0.02,0.58-0.05c0.14-0.03,0.23-0.1,0.29-0.19
	c0.06-0.09,0.09-0.23,0.11-0.41c0.01-0.18,0.02-0.42,0.02-0.71c0-0.3-0.01-0.53-0.02-0.71c-0.01-0.18-0.05-0.32-0.11-0.41
	c-0.06-0.09-0.16-0.16-0.29-0.19c-0.14-0.03-0.33-0.05-0.58-0.05c-0.25,0-0.44,0.02-0.58,0.05c-0.14,0.03-0.24,0.1-0.29,0.19
	c-0.06,0.09-0.09,0.23-0.11,0.41c-0.01,0.18-0.02,0.42-0.02,0.71c0,0.29,0.01,0.53,0.02,0.71c0.01,0.18,0.05,0.32,0.11,0.41
	s0.15,0.16,0.29,0.19C142.07,32.07,142.27,32.09,142.52,32.09"/>
<path style="fill:#1A1A1A;" d="M146.54,32.57c-0.29,0-0.53-0.02-0.73-0.06c-0.19-0.04-0.35-0.1-0.47-0.19
	c-0.12-0.09-0.21-0.2-0.27-0.34c-0.06-0.14-0.1-0.32-0.12-0.52c-0.02-0.21-0.03-0.45-0.03-0.73c0-0.33,0.01-0.62,0.04-0.85
	c0.03-0.24,0.09-0.43,0.19-0.58c0.1-0.15,0.26-0.26,0.47-0.32c0.22-0.07,0.51-0.1,0.87-0.1c0.28,0,0.5,0.02,0.68,0.06
	c0.18,0.04,0.31,0.11,0.42,0.2c0.1,0.09,0.18,0.21,0.23,0.35c0.05,0.15,0.08,0.32,0.09,0.53c0.01,0.2,0.02,0.44,0.02,0.71v0.19
	h-2.45c0,0.24,0.01,0.44,0.04,0.6c0.02,0.15,0.07,0.27,0.14,0.36c0.07,0.08,0.19,0.14,0.34,0.18c0.16,0.03,0.37,0.05,0.64,0.05
	c0.11,0,0.24,0,0.37-0.01c0.14-0.01,0.27-0.02,0.41-0.03c0.14-0.01,0.26-0.03,0.37-0.04v0.46c-0.1,0.02-0.22,0.04-0.36,0.05
	c-0.14,0.01-0.29,0.03-0.45,0.04C146.84,32.57,146.69,32.57,146.54,32.57 M147.4,30.63v-0.19c0-0.24-0.01-0.44-0.04-0.58
	c-0.03-0.14-0.08-0.25-0.14-0.32c-0.07-0.07-0.16-0.12-0.28-0.14c-0.12-0.02-0.26-0.04-0.44-0.04c-0.22,0-0.4,0.02-0.53,0.05
	c-0.13,0.03-0.23,0.09-0.29,0.17c-0.07,0.08-0.11,0.19-0.13,0.34c-0.02,0.15-0.04,0.35-0.04,0.6h2.03L147.4,30.63z"/>
<path style="fill:#1A1A1A;" d="M150.13,32.57c-0.14,0-0.28,0-0.44-0.01c-0.15-0.01-0.31-0.02-0.46-0.03
	c-0.15-0.01-0.29-0.03-0.41-0.05v-0.46c0.11,0.01,0.22,0.02,0.33,0.03c0.11,0.01,0.21,0.02,0.31,0.02c0.1,0.01,0.21,0.01,0.31,0.01
	c0.1,0,0.21,0,0.32,0c0.24,0,0.42-0.02,0.53-0.05c0.11-0.04,0.18-0.09,0.22-0.18c0.03-0.08,0.05-0.19,0.05-0.33
	c0-0.15-0.01-0.27-0.04-0.34c-0.03-0.07-0.07-0.12-0.13-0.14c-0.06-0.02-0.16-0.04-0.28-0.05l-0.93-0.11
	c-0.22-0.02-0.39-0.07-0.5-0.14c-0.11-0.07-0.19-0.18-0.23-0.31c-0.04-0.14-0.06-0.31-0.06-0.51c0-0.23,0.03-0.42,0.1-0.56
	c0.07-0.14,0.16-0.25,0.28-0.32c0.12-0.07,0.27-0.12,0.44-0.14c0.17-0.02,0.37-0.03,0.58-0.03c0.12,0,0.25,0,0.39,0.01
	c0.14,0.01,0.27,0.02,0.4,0.04c0.13,0.01,0.24,0.03,0.34,0.05v0.46c-0.12-0.02-0.24-0.03-0.37-0.05c-0.12-0.01-0.25-0.02-0.38-0.02
	c-0.13,0-0.26-0.01-0.39-0.01c-0.18,0-0.33,0.01-0.46,0.03c-0.13,0.02-0.22,0.07-0.28,0.14c-0.06,0.08-0.09,0.2-0.09,0.37
	c0,0.14,0.01,0.24,0.03,0.31c0.02,0.07,0.06,0.12,0.13,0.14c0.07,0.03,0.16,0.05,0.27,0.06l0.97,0.11c0.19,0.02,0.34,0.06,0.45,0.11
	c0.11,0.05,0.19,0.15,0.24,0.28c0.05,0.14,0.07,0.34,0.07,0.61c0,0.22-0.03,0.41-0.08,0.54c-0.05,0.14-0.14,0.24-0.25,0.32
	c-0.11,0.08-0.25,0.13-0.41,0.15C150.54,32.56,150.35,32.57,150.13,32.57"/>
<path style="fill:#1A1A1A;" d="M155.13,32.57c-0.26,0-0.47-0.03-0.64-0.08c-0.17-0.06-0.31-0.15-0.4-0.29
	c-0.1-0.14-0.17-0.33-0.21-0.57c-0.04-0.24-0.06-0.54-0.06-0.9c0-0.37,0.02-0.67,0.06-0.91c0.04-0.24,0.11-0.43,0.21-0.57
	c0.1-0.14,0.23-0.23,0.4-0.29c0.17-0.06,0.38-0.09,0.64-0.09c0.19,0,0.36,0.02,0.51,0.05c0.15,0.03,0.28,0.08,0.39,0.16
	c0.11,0.07,0.2,0.18,0.26,0.31h0.04V27.3h0.58v5.22h-0.51L156.35,32h-0.04c-0.07,0.16-0.16,0.29-0.28,0.37
	c-0.12,0.08-0.26,0.14-0.42,0.16C155.45,32.56,155.29,32.57,155.13,32.57 M155.35,32.07c0.24,0,0.43-0.03,0.57-0.1
	c0.14-0.07,0.24-0.17,0.3-0.31c0.05-0.13,0.08-0.27,0.08-0.43c0.01-0.15,0.01-0.34,0.01-0.55c0-0.17,0-0.33-0.01-0.47
	c-0.01-0.14-0.03-0.27-0.08-0.38c-0.06-0.16-0.16-0.27-0.3-0.34c-0.14-0.07-0.33-0.1-0.58-0.1c-0.21,0-0.38,0.01-0.51,0.04
	c-0.13,0.03-0.22,0.09-0.29,0.18c-0.07,0.09-0.11,0.22-0.13,0.4c-0.02,0.18-0.04,0.41-0.04,0.71c0,0.3,0.01,0.54,0.04,0.72
	c0.02,0.18,0.07,0.31,0.13,0.4c0.07,0.09,0.16,0.15,0.29,0.18C154.96,32.05,155.14,32.07,155.35,32.07"/>
<path style="fill:#1A1A1A;" d="M159.49,32.57c-0.29,0-0.53-0.02-0.73-0.06c-0.19-0.04-0.35-0.1-0.47-0.19
	c-0.12-0.09-0.21-0.2-0.27-0.34c-0.06-0.14-0.1-0.32-0.12-0.52c-0.02-0.21-0.03-0.45-0.03-0.73c0-0.33,0.01-0.62,0.04-0.85
	c0.03-0.24,0.09-0.43,0.19-0.58c0.1-0.15,0.26-0.26,0.47-0.32c0.22-0.07,0.51-0.1,0.87-0.1c0.28,0,0.5,0.02,0.68,0.06
	c0.18,0.04,0.31,0.11,0.42,0.2c0.1,0.09,0.18,0.21,0.23,0.35c0.05,0.15,0.08,0.32,0.09,0.53c0.01,0.2,0.02,0.44,0.02,0.71v0.19
	h-2.45c0,0.24,0.01,0.44,0.04,0.6c0.02,0.15,0.07,0.27,0.14,0.36c0.07,0.08,0.19,0.14,0.34,0.18c0.16,0.03,0.37,0.05,0.64,0.05
	c0.11,0,0.24,0,0.37-0.01c0.14-0.01,0.27-0.02,0.41-0.03c0.14-0.01,0.26-0.03,0.37-0.04v0.46c-0.1,0.02-0.22,0.04-0.36,0.05
	c-0.14,0.01-0.29,0.03-0.45,0.04C159.79,32.57,159.64,32.57,159.49,32.57 M160.35,30.63v-0.19c0-0.24-0.01-0.44-0.04-0.58
	c-0.03-0.14-0.08-0.25-0.14-0.32c-0.07-0.07-0.16-0.12-0.28-0.14c-0.12-0.02-0.26-0.04-0.44-0.04c-0.22,0-0.4,0.02-0.53,0.05
	c-0.13,0.03-0.23,0.09-0.29,0.17c-0.07,0.08-0.11,0.19-0.13,0.34c-0.02,0.15-0.04,0.35-0.04,0.6h2.03L160.35,30.63z"/>
<path style="fill:#1A1A1A;" d="M163.47,33.92v-4.98h0.52l0.02,0.51h0.04c0.07-0.16,0.17-0.28,0.29-0.37
	c0.12-0.08,0.26-0.14,0.41-0.17c0.15-0.03,0.31-0.04,0.48-0.04c0.26,0,0.47,0.03,0.64,0.08c0.17,0.06,0.31,0.15,0.4,0.29
	c0.1,0.14,0.17,0.33,0.21,0.57c0.04,0.24,0.06,0.54,0.06,0.9c0,0.37-0.02,0.67-0.06,0.91c-0.04,0.24-0.11,0.43-0.21,0.57
	c-0.1,0.14-0.23,0.23-0.4,0.29c-0.17,0.06-0.38,0.09-0.64,0.09c-0.19,0-0.36-0.02-0.51-0.05c-0.15-0.03-0.28-0.08-0.39-0.16
	c-0.11-0.07-0.2-0.18-0.26-0.31h-0.04v1.85H163.47z M165,32.06c0.22,0,0.39-0.01,0.52-0.04c0.13-0.03,0.23-0.09,0.29-0.18
	c0.07-0.09,0.11-0.22,0.13-0.4c0.02-0.18,0.04-0.41,0.04-0.71c0-0.3-0.01-0.54-0.04-0.72c-0.02-0.18-0.07-0.31-0.13-0.4
	c-0.07-0.09-0.16-0.15-0.29-0.18c-0.13-0.03-0.3-0.05-0.52-0.05c-0.24,0-0.43,0.03-0.57,0.1c-0.14,0.07-0.24,0.17-0.3,0.32
	c-0.05,0.11-0.07,0.25-0.08,0.4c-0.01,0.15-0.01,0.33-0.01,0.52c0,0.2,0,0.37,0.01,0.52c0.01,0.15,0.03,0.27,0.07,0.37
	c0.07,0.16,0.17,0.28,0.31,0.35C164.58,32.03,164.76,32.06,165,32.06"/>
<path style="fill:#1A1A1A;" d="M167.54,32.52v-3.58h0.51l0.03,0.69h0.04c0.06-0.2,0.15-0.36,0.26-0.46
	c0.11-0.11,0.25-0.18,0.41-0.22c0.16-0.04,0.33-0.06,0.53-0.06v0.56c-0.32,0-0.57,0.05-0.74,0.15c-0.17,0.1-0.29,0.26-0.36,0.48
	c-0.07,0.22-0.1,0.49-0.1,0.81v1.63H167.54z"/>
<path style="fill:#1A1A1A;" d="M171.51,32.57c-0.29,0-0.53-0.02-0.73-0.06c-0.19-0.04-0.35-0.1-0.47-0.19
	c-0.12-0.09-0.21-0.2-0.27-0.34c-0.06-0.14-0.1-0.32-0.12-0.52c-0.02-0.21-0.03-0.45-0.03-0.73c0-0.33,0.01-0.62,0.04-0.85
	c0.03-0.24,0.09-0.43,0.19-0.58c0.1-0.15,0.26-0.26,0.47-0.32c0.22-0.07,0.51-0.1,0.87-0.1c0.28,0,0.5,0.02,0.68,0.06
	c0.18,0.04,0.31,0.11,0.42,0.2c0.1,0.09,0.18,0.21,0.23,0.35c0.05,0.15,0.08,0.32,0.09,0.53c0.01,0.2,0.02,0.44,0.02,0.71v0.19
	h-2.45c0,0.24,0.01,0.44,0.04,0.6c0.02,0.15,0.07,0.27,0.14,0.36c0.07,0.08,0.19,0.14,0.34,0.18c0.16,0.03,0.37,0.05,0.64,0.05
	c0.11,0,0.24,0,0.37-0.01c0.14-0.01,0.27-0.02,0.41-0.03c0.14-0.01,0.26-0.03,0.37-0.04v0.46c-0.1,0.02-0.22,0.04-0.36,0.05
	c-0.14,0.01-0.29,0.03-0.45,0.04C171.81,32.57,171.66,32.57,171.51,32.57 M172.37,30.63v-0.19c0-0.24-0.01-0.44-0.04-0.58
	c-0.03-0.14-0.08-0.25-0.14-0.32c-0.07-0.07-0.16-0.12-0.28-0.14c-0.12-0.02-0.26-0.04-0.44-0.04c-0.22,0-0.4,0.02-0.53,0.05
	c-0.13,0.03-0.23,0.09-0.29,0.17c-0.07,0.08-0.11,0.19-0.13,0.34c-0.02,0.15-0.04,0.35-0.04,0.6h2.03L172.37,30.63z"/>
<path style="fill:#1A1A1A;" d="M175.1,32.57c-0.14,0-0.28,0-0.44-0.01c-0.15-0.01-0.31-0.02-0.46-0.03
	c-0.15-0.01-0.29-0.03-0.41-0.05v-0.46c0.11,0.01,0.22,0.02,0.33,0.03c0.11,0.01,0.21,0.02,0.31,0.02c0.1,0.01,0.21,0.01,0.31,0.01
	c0.1,0,0.21,0,0.32,0c0.24,0,0.42-0.02,0.53-0.05c0.11-0.04,0.18-0.09,0.22-0.18c0.03-0.08,0.05-0.19,0.05-0.33
	c0-0.15-0.01-0.27-0.04-0.34c-0.03-0.07-0.07-0.12-0.13-0.14c-0.06-0.02-0.16-0.04-0.28-0.05l-0.93-0.11
	c-0.22-0.02-0.39-0.07-0.5-0.14c-0.11-0.07-0.19-0.18-0.23-0.31c-0.04-0.14-0.06-0.31-0.06-0.51c0-0.23,0.03-0.42,0.1-0.56
	c0.07-0.14,0.16-0.25,0.28-0.32c0.12-0.07,0.27-0.12,0.44-0.14c0.17-0.02,0.37-0.03,0.58-0.03c0.12,0,0.25,0,0.39,0.01
	c0.14,0.01,0.27,0.02,0.4,0.04c0.13,0.01,0.24,0.03,0.34,0.05v0.46c-0.12-0.02-0.24-0.03-0.37-0.05c-0.12-0.01-0.25-0.02-0.38-0.02
	c-0.13,0-0.26-0.01-0.39-0.01c-0.18,0-0.33,0.01-0.46,0.03c-0.13,0.02-0.22,0.07-0.28,0.14c-0.06,0.08-0.09,0.2-0.09,0.37
	c0,0.14,0.01,0.24,0.03,0.31c0.02,0.07,0.06,0.12,0.13,0.14c0.07,0.03,0.16,0.05,0.27,0.06l0.97,0.11c0.19,0.02,0.34,0.06,0.45,0.11
	c0.11,0.05,0.19,0.15,0.24,0.28c0.05,0.14,0.07,0.34,0.07,0.61c0,0.22-0.03,0.41-0.08,0.54c-0.05,0.14-0.14,0.24-0.25,0.32
	c-0.11,0.08-0.25,0.13-0.41,0.15C175.5,32.56,175.31,32.57,175.1,32.57"/>
<path style="fill:#1A1A1A;" d="M178.8,32.57c-0.29,0-0.53-0.02-0.73-0.06c-0.19-0.04-0.35-0.1-0.47-0.19
	c-0.12-0.09-0.21-0.2-0.27-0.34c-0.06-0.14-0.1-0.32-0.12-0.52c-0.02-0.21-0.03-0.45-0.03-0.73c0-0.33,0.01-0.62,0.04-0.85
	c0.03-0.24,0.09-0.43,0.19-0.58c0.1-0.15,0.26-0.26,0.47-0.32c0.22-0.07,0.51-0.1,0.87-0.1c0.28,0,0.5,0.02,0.68,0.06
	c0.18,0.04,0.31,0.11,0.42,0.2c0.1,0.09,0.18,0.21,0.23,0.35c0.05,0.15,0.08,0.32,0.09,0.53c0.01,0.2,0.02,0.44,0.02,0.71v0.19
	h-2.45c0,0.24,0.01,0.44,0.04,0.6c0.02,0.15,0.07,0.27,0.14,0.36c0.07,0.08,0.19,0.14,0.34,0.18c0.16,0.03,0.37,0.05,0.64,0.05
	c0.11,0,0.24,0,0.37-0.01c0.14-0.01,0.27-0.02,0.41-0.03c0.14-0.01,0.26-0.03,0.37-0.04v0.46c-0.1,0.02-0.22,0.04-0.36,0.05
	c-0.14,0.01-0.29,0.03-0.45,0.04C179.1,32.57,178.95,32.57,178.8,32.57 M179.66,30.63v-0.19c0-0.24-0.01-0.44-0.04-0.58
	c-0.03-0.14-0.08-0.25-0.14-0.32c-0.07-0.07-0.16-0.12-0.28-0.14c-0.12-0.02-0.26-0.04-0.44-0.04c-0.22,0-0.4,0.02-0.53,0.05
	c-0.13,0.03-0.23,0.09-0.29,0.17c-0.07,0.08-0.11,0.19-0.13,0.34c-0.02,0.15-0.04,0.35-0.04,0.6h2.03L179.66,30.63z"/>
<path style="fill:#1A1A1A;" d="M181.2,32.52v-3.58h0.52l0.02,0.51h0.04c0.05-0.11,0.12-0.21,0.21-0.3c0.09-0.08,0.22-0.15,0.37-0.2
	c0.16-0.05,0.36-0.07,0.6-0.07c0.27,0,0.48,0.03,0.64,0.08c0.16,0.06,0.28,0.14,0.37,0.25c0.09,0.11,0.14,0.26,0.17,0.43
	c0.03,0.18,0.04,0.39,0.04,0.63v2.24h-0.57v-2.04c0-0.24-0.01-0.44-0.03-0.58c-0.02-0.14-0.06-0.25-0.12-0.32
	c-0.06-0.07-0.15-0.12-0.27-0.14c-0.12-0.02-0.27-0.04-0.46-0.04c-0.23,0-0.41,0.03-0.54,0.09c-0.13,0.06-0.23,0.14-0.29,0.25
	c-0.06,0.11-0.1,0.24-0.11,0.4c-0.01,0.16-0.02,0.34-0.02,0.54v1.85H181.2z"/>
<path style="fill:#1A1A1A;" d="M186.64,32.57c-0.27,0-0.5-0.02-0.67-0.07c-0.18-0.05-0.32-0.12-0.42-0.21
	c-0.11-0.09-0.18-0.21-0.24-0.36c-0.05-0.15-0.09-0.32-0.1-0.52c-0.02-0.2-0.02-0.43-0.02-0.69c0-0.27,0.01-0.5,0.03-0.7
	c0.02-0.2,0.06-0.38,0.12-0.52c0.06-0.15,0.14-0.27,0.25-0.35c0.11-0.09,0.24-0.16,0.41-0.2c0.17-0.04,0.38-0.07,0.63-0.07
	c0.16,0,0.34,0.01,0.52,0.02c0.18,0.02,0.33,0.04,0.45,0.07v0.46c-0.11-0.02-0.24-0.04-0.4-0.05c-0.16-0.01-0.3-0.02-0.43-0.02
	c-0.22,0-0.4,0.02-0.53,0.06c-0.13,0.04-0.23,0.11-0.3,0.2s-0.11,0.24-0.14,0.41c-0.02,0.18-0.04,0.41-0.04,0.69
	c0,0.29,0.01,0.52,0.04,0.7c0.02,0.18,0.07,0.32,0.14,0.41c0.07,0.1,0.18,0.16,0.31,0.2c0.13,0.04,0.31,0.05,0.53,0.05
	c0.13,0,0.27-0.01,0.43-0.02c0.15-0.01,0.29-0.03,0.41-0.05v0.46c-0.12,0.02-0.27,0.04-0.45,0.06
	C186.99,32.56,186.81,32.57,186.64,32.57 M186.02,33.85v-0.03l0.48-1.43h0.39v0.03l-0.3,1.43H186.02z"/>
<path style="fill:#1A1A1A;" d="M189.46,32.57c-0.26,0-0.48-0.03-0.66-0.09c-0.18-0.06-0.31-0.17-0.39-0.32
	c-0.09-0.15-0.13-0.36-0.13-0.63c0-0.27,0.03-0.49,0.09-0.64c0.06-0.16,0.17-0.27,0.33-0.33c0.16-0.07,0.38-0.1,0.67-0.1
	c0.05,0,0.12,0,0.22,0c0.1,0,0.22,0,0.35,0.01c0.13,0,0.26,0,0.4,0.01c0.13,0,0.26,0.01,0.37,0.01v-0.22c0-0.21-0.01-0.38-0.04-0.5
	c-0.03-0.12-0.08-0.21-0.16-0.27c-0.08-0.06-0.19-0.1-0.33-0.11c-0.14-0.02-0.33-0.02-0.57-0.02c-0.1,0-0.22,0-0.37,0.01
	c-0.14,0.01-0.28,0.02-0.41,0.03c-0.13,0.01-0.24,0.02-0.32,0.04v-0.46c0.18-0.03,0.38-0.06,0.6-0.07c0.22-0.02,0.45-0.02,0.69-0.02
	c0.25,0,0.47,0.02,0.64,0.05c0.18,0.03,0.32,0.08,0.43,0.14c0.11,0.07,0.19,0.15,0.25,0.26c0.06,0.11,0.1,0.24,0.12,0.39
	c0.02,0.15,0.03,0.33,0.03,0.54v2.26h-0.51l-0.02-0.51h-0.04c-0.07,0.16-0.18,0.29-0.32,0.37c-0.14,0.08-0.29,0.13-0.45,0.16
	C189.77,32.56,189.61,32.57,189.46,32.57 M189.67,32.1c0.14,0,0.26-0.01,0.38-0.02c0.12-0.02,0.22-0.05,0.31-0.09
	c0.09-0.05,0.16-0.12,0.21-0.21c0.05-0.1,0.09-0.2,0.11-0.32c0.02-0.11,0.03-0.25,0.03-0.4v-0.18h-1.19c-0.18,0-0.32,0.01-0.42,0.04
	c-0.1,0.03-0.17,0.09-0.2,0.18c-0.04,0.09-0.05,0.22-0.05,0.4c0,0.17,0.02,0.3,0.06,0.39c0.04,0.09,0.12,0.15,0.24,0.18
	C189.27,32.09,189.44,32.1,189.67,32.1"/>
<path style="fill:#1A1A1A;" d="M195.42,32.57c-0.29,0-0.54-0.02-0.73-0.05c-0.19-0.04-0.35-0.09-0.46-0.17
	c-0.11-0.08-0.2-0.19-0.25-0.33c-0.05-0.14-0.09-0.32-0.1-0.53c-0.01-0.21-0.02-0.47-0.02-0.76c0-0.3,0.01-0.55,0.02-0.76
	c0.01-0.21,0.05-0.39,0.1-0.53c0.05-0.14,0.14-0.25,0.25-0.33c0.11-0.08,0.27-0.14,0.46-0.17c0.19-0.04,0.44-0.05,0.73-0.05
	c0.3,0,0.55,0.02,0.74,0.05c0.19,0.04,0.35,0.09,0.46,0.17c0.11,0.08,0.2,0.19,0.25,0.33c0.05,0.14,0.09,0.32,0.1,0.53
	c0.01,0.21,0.02,0.47,0.02,0.76c0,0.29-0.01,0.55-0.02,0.76c-0.01,0.21-0.05,0.39-0.1,0.53c-0.05,0.14-0.14,0.25-0.25,0.33
	c-0.11,0.08-0.27,0.14-0.46,0.17C195.97,32.56,195.72,32.57,195.42,32.57 M195.42,32.09c0.25,0,0.45-0.02,0.58-0.05
	c0.14-0.03,0.23-0.1,0.29-0.19c0.06-0.09,0.09-0.23,0.11-0.41c0.01-0.18,0.02-0.42,0.02-0.71c0-0.3-0.01-0.53-0.02-0.71
	c-0.01-0.18-0.05-0.32-0.11-0.41c-0.06-0.09-0.16-0.16-0.29-0.19c-0.14-0.03-0.33-0.05-0.58-0.05c-0.25,0-0.44,0.02-0.58,0.05
	c-0.14,0.03-0.24,0.1-0.29,0.19c-0.06,0.09-0.09,0.23-0.11,0.41c-0.01,0.18-0.02,0.42-0.02,0.71c0,0.29,0.01,0.53,0.02,0.71
	c0.01,0.18,0.05,0.32,0.11,0.41c0.06,0.09,0.15,0.16,0.29,0.19C194.98,32.07,195.17,32.09,195.42,32.09"/>
<path style="fill:#1A1A1A;" d="M197.99,32.52v-3.58h0.52l0.02,0.51h0.04c0.05-0.11,0.12-0.21,0.21-0.3c0.09-0.08,0.22-0.15,0.37-0.2
	c0.16-0.05,0.36-0.07,0.6-0.07c0.27,0,0.48,0.03,0.64,0.08c0.16,0.06,0.28,0.14,0.37,0.25c0.09,0.11,0.14,0.26,0.17,0.43
	c0.03,0.18,0.04,0.39,0.04,0.63v2.24h-0.57v-2.04c0-0.24-0.01-0.44-0.03-0.58c-0.02-0.14-0.06-0.25-0.12-0.32
	c-0.06-0.07-0.15-0.12-0.27-0.14c-0.12-0.02-0.27-0.04-0.46-0.04c-0.23,0-0.41,0.03-0.54,0.09c-0.13,0.06-0.23,0.14-0.29,0.25
	c-0.06,0.11-0.1,0.24-0.11,0.4c-0.01,0.16-0.02,0.34-0.02,0.54v1.85H197.99z"/>
<rect x="202.13" y="27.3" style="fill:#1A1A1A;" width="0.58" height="5.22"/>
<path style="fill:#1A1A1A;" d="M203.83,27.3h0.61v0.63h-0.61V27.3z M203.84,28.93h0.58v3.58h-0.58V28.93z"/>
<path style="fill:#1A1A1A;" d="M205.55,32.52v-3.58h0.52l0.02,0.51h0.04c0.05-0.11,0.12-0.21,0.21-0.3c0.09-0.08,0.22-0.15,0.37-0.2
	c0.16-0.05,0.36-0.07,0.6-0.07c0.27,0,0.48,0.03,0.64,0.08c0.16,0.06,0.28,0.14,0.37,0.25c0.09,0.11,0.14,0.26,0.17,0.43
	c0.03,0.18,0.04,0.39,0.04,0.63v2.24h-0.57v-2.04c0-0.24-0.01-0.44-0.03-0.58c-0.02-0.14-0.06-0.25-0.12-0.32
	c-0.06-0.07-0.15-0.12-0.27-0.14c-0.12-0.02-0.27-0.04-0.46-0.04c-0.23,0-0.41,0.03-0.54,0.09c-0.13,0.06-0.23,0.14-0.29,0.25
	c-0.06,0.11-0.1,0.24-0.11,0.4c-0.01,0.16-0.02,0.34-0.02,0.54v1.85H205.55z"/>
<path style="fill:#1A1A1A;" d="M211.15,32.57c-0.29,0-0.53-0.02-0.73-0.06c-0.19-0.04-0.35-0.1-0.47-0.19
	c-0.12-0.09-0.21-0.2-0.27-0.34c-0.06-0.14-0.1-0.32-0.12-0.52c-0.02-0.21-0.03-0.45-0.03-0.73c0-0.33,0.01-0.62,0.04-0.85
	c0.03-0.24,0.09-0.43,0.19-0.58c0.1-0.15,0.26-0.26,0.47-0.32c0.22-0.07,0.51-0.1,0.87-0.1c0.28,0,0.5,0.02,0.68,0.06
	c0.18,0.04,0.31,0.11,0.42,0.2c0.1,0.09,0.18,0.21,0.23,0.35c0.05,0.15,0.08,0.32,0.09,0.53c0.01,0.2,0.02,0.44,0.02,0.71v0.19
	h-2.45c0,0.24,0.01,0.44,0.04,0.6c0.02,0.15,0.07,0.27,0.14,0.36c0.07,0.08,0.19,0.14,0.34,0.18c0.16,0.03,0.37,0.05,0.64,0.05
	c0.11,0,0.24,0,0.37-0.01c0.14-0.01,0.27-0.02,0.41-0.03c0.14-0.01,0.26-0.03,0.37-0.04v0.46c-0.1,0.02-0.22,0.04-0.36,0.05
	c-0.14,0.01-0.29,0.03-0.45,0.04C211.46,32.57,211.3,32.57,211.15,32.57 M212.01,30.63v-0.19c0-0.24-0.01-0.44-0.04-0.58
	c-0.03-0.14-0.08-0.25-0.14-0.32c-0.07-0.07-0.16-0.12-0.28-0.14c-0.12-0.02-0.26-0.04-0.44-0.04c-0.22,0-0.4,0.02-0.53,0.05
	c-0.13,0.03-0.23,0.09-0.29,0.17c-0.07,0.08-0.11,0.19-0.13,0.34c-0.02,0.15-0.04,0.35-0.04,0.6h2.03L212.01,30.63z"/>
<polygon style="fill:#D21034;" points="63.27,24.84 67.55,4.79 75.74,4.79 76.67,15.31 76.9,15.31 82.32,4.79 90.51,4.79 
	86.23,24.84 80.49,24.84 83.08,12.75 82.79,12.75 76.67,24.84 72.71,24.84 71.72,12.75 71.45,12.75 68.86,24.84 "/>
<path style="fill:#D21034;" d="M98.67,25.07c-2.06,0-3.68-0.14-4.87-0.42c-1.19-0.28-2.02-0.75-2.51-1.41
	c-0.49-0.66-0.73-1.55-0.73-2.68c0-0.74,0.1-1.6,0.29-2.58c0.19-0.98,0.42-2.11,0.67-3.39c0.31-1.63,0.61-3.03,0.9-4.2
	c0.29-1.17,0.65-2.12,1.08-2.87c0.43-0.75,0.99-1.34,1.68-1.78C95.88,5.3,96.77,5,97.87,4.82c1.1-0.17,2.48-0.26,4.15-0.26
	c2.06,0,3.67,0.14,4.82,0.42c1.16,0.28,1.97,0.75,2.45,1.41c0.48,0.66,0.71,1.56,0.71,2.71c0,0.76-0.08,1.62-0.23,2.58
	c-0.16,0.96-0.38,2.08-0.67,3.37c-0.35,1.65-0.68,3.06-1.01,4.23c-0.32,1.17-0.69,2.12-1.11,2.87c-0.42,0.75-0.96,1.34-1.63,1.76
	c-0.67,0.43-1.54,0.73-2.61,0.9C101.68,24.99,100.32,25.07,98.67,25.07 M99.05,20.7c0.54,0,1-0.02,1.35-0.07
	c0.36-0.05,0.66-0.16,0.9-0.35c0.24-0.18,0.46-0.48,0.64-0.89c0.18-0.41,0.36-0.99,0.54-1.73c0.17-0.75,0.39-1.69,0.64-2.84
	c0.25-1.13,0.44-2.05,0.57-2.78c0.13-0.73,0.19-1.31,0.19-1.73c0-0.43-0.08-0.74-0.23-0.93c-0.16-0.19-0.4-0.32-0.74-0.36
	c-0.34-0.05-0.8-0.07-1.38-0.07c-0.52,0-0.97,0.02-1.33,0.07c-0.36,0.05-0.67,0.17-0.92,0.35c-0.25,0.18-0.46,0.48-0.63,0.89
	c-0.17,0.41-0.34,0.99-0.52,1.73c-0.18,0.75-0.39,1.7-0.63,2.84c-0.17,0.78-0.32,1.46-0.44,2.04s-0.21,1.08-0.28,1.49
	c-0.07,0.41-0.1,0.75-0.1,1.02c0,0.43,0.08,0.73,0.23,0.92c0.16,0.18,0.41,0.3,0.77,0.35C98.06,20.68,98.51,20.7,99.05,20.7"/>
<polygon style="fill:#D21034;" points="109.57,24.84 110.5,20.62 120.97,9.16 113.21,9.16 114.18,4.79 129.59,4.79 128.72,8.87 
	118.08,20.47 126.27,20.47 125.31,24.84 "/>
<path style="fill:#D21034;" d="M126.76,24.84l10.32-20.05h8.28l1.75,20.05h-5.8l-0.26-3.44h-6.56l-1.69,3.44H126.76z M136.44,17.18
	h4.4l-0.5-7.43h-0.23L136.44,17.18z"/>
<polygon style="fill:#007168;" points="153.6,24.84 149.14,4.79 154.19,4.79 157.1,19.1 157.3,19.1 160.57,4.79 165.81,4.79 
	169.14,19.1 169.37,19.1 171.99,4.79 177.06,4.79 172.6,24.84 166.25,24.84 163.22,12.19 163.02,12.19 159.96,24.84 "/>
<polygon style="fill:#007168;" points="179.54,24.84 179.54,4.79 193.58,4.79 193.58,8.7 184.61,8.7 184.61,12.81 192.22,12.81 
	192.22,16.65 184.61,16.65 184.61,20.94 193.58,20.94 193.58,24.84 "/>
<path style="fill:#007168;" d="M197.2,24.84V4.79h10.14c1.28,0,2.34,0.18,3.18,0.55c0.84,0.37,1.46,0.93,1.88,1.68
	c0.42,0.75,0.63,1.69,0.63,2.81c0,0.93-0.13,1.72-0.38,2.36c-0.25,0.64-0.64,1.15-1.15,1.53c-0.52,0.38-1.17,0.66-1.97,0.83v0.12
	c0.85,0.17,1.55,0.45,2.08,0.82c0.53,0.37,0.93,0.88,1.18,1.53c0.25,0.65,0.38,1.48,0.38,2.49c0,0.82-0.1,1.56-0.31,2.23
	c-0.2,0.67-0.53,1.23-0.98,1.69c-0.45,0.46-1.05,0.81-1.81,1.05c-0.76,0.24-1.68,0.36-2.77,0.36H197.2z M202.21,12.95h3.23
	c0.66,0,1.18-0.06,1.54-0.19c0.37-0.13,0.63-0.34,0.77-0.66c0.15-0.31,0.22-0.75,0.22-1.31c0-0.62-0.07-1.09-0.2-1.4
	c-0.14-0.31-0.38-0.52-0.73-0.63c-0.35-0.11-0.88-0.16-1.6-0.16h-3.23V12.95z M202.21,21.05h3.32c0.7,0,1.23-0.06,1.6-0.19
	c0.37-0.13,0.62-0.35,0.76-0.68c0.14-0.33,0.2-0.81,0.2-1.43c0-0.6-0.07-1.07-0.2-1.4c-0.14-0.33-0.39-0.56-0.76-0.68
	c-0.37-0.13-0.9-0.19-1.6-0.19h-3.32V21.05z"/>
</svg>
