<?xml version="1.0" encoding="utf-8"?>
<!-- Generator: Adobe Illustrator 23.0.2, SVG Export Plug-In . SVG Version: 6.00 Build 0)  -->
<svg version="1.1" id="Layer_1" xmlns="http://www.w3.org/2000/svg" xmlns:xlink="http://www.w3.org/1999/xlink" x="0px" y="0px"
	 viewBox="0 0 1920 1080" style="enable-background:new 0 0 1920 1080;" xml:space="preserve">
<g>
	<defs>
		<rect id="SVGID_1_" width="1920" height="1080"/>
	</defs>
	<clipPath id="SVGID_2_">
		<use xlink:href="#SVGID_1_"  style="overflow:visible;"/>
	</clipPath>
</g>
<polygon style="fill:#9E0C27;" points="769.19,584.73 769.19,608.51 763.06,611.29 752.76,615.96 726.58,627.85 716.28,632.53 
	690.1,644.41 690.09,644.41 690.09,620.64 690.1,620.64 700.39,615.96 726.58,604.07 736.88,599.4 763.06,587.51 "/>
<g>
	<defs>
		<rect id="SVGID_3_" width="1920" height="1080"/>
	</defs>
	<clipPath id="SVGID_4_">
		<use xlink:href="#SVGID_3_"  style="overflow:visible;"/>
	</clipPath>
	<path style="clip-path:url(#SVGID_4_);fill:#D21034;" d="M679.8,615.96l-26.18-11.89l-10.3-4.67l-26.19-11.89l-6.12-2.78v23.77
		l6.12,2.78l10.3,4.68l26.19,11.89l10.29,4.67l26.19,11.89v-23.78L679.8,615.96z M636.02,606.4c-0.95,2.08-3.42,3.01-5.51,2.06
		c-1.02-0.46-1.77-1.3-2.15-2.28c-0.39-1-0.39-2.16,0.09-3.22c0.94-2.08,3.41-3.01,5.5-2.06c0.88,0.4,1.55,1.06,1.96,1.86
		C636.49,603.85,636.57,605.19,636.02,606.4 M668.42,621.11c0,0.01,0,0.01-0.01,0.02c-0.87,1.89-3,2.83-4.95,2.25
		c-0.18-0.06-0.36-0.12-0.54-0.2l-21.6-9.81c-1.17-0.53-1.97-1.53-2.29-2.68c-0.25-0.9-0.2-1.9,0.22-2.82
		c0.95-2.09,3.42-3.01,5.5-2.07l2.52,1.15l19.09,8.66C668.44,616.56,669.37,619.03,668.42,621.11"/>
	<polygon style="clip-path:url(#SVGID_4_);fill:#9E0C27;" points="769.19,551.6 769.19,575.38 752.76,582.83 726.58,594.72 
		716.28,599.4 690.1,611.29 690.09,611.29 690.09,587.51 690.1,587.51 700.39,582.83 726.58,570.95 	"/>
	<path style="clip-path:url(#SVGID_4_);fill:#D21034;" d="M679.8,582.83l-26.18-11.89l-42.61-19.34v23.78l16.42,7.45l26.19,11.89
		l10.29,4.68l26.19,11.88V587.5L679.8,582.83z M636.02,575.99c-0.95,2.09-3.42,3.01-5.51,2.06c-2.08-0.94-3.01-3.41-2.06-5.49
		c0.94-2.09,3.41-3.02,5.5-2.07S636.96,573.9,636.02,575.99 M668.42,590.7c-0.95,2.09-3.41,3.01-5.5,2.07l-2.5-1.14l-19.1-8.67
		c-2.09-0.95-3.01-3.41-2.07-5.5c0.04-0.1,0.09-0.19,0.14-0.28c0.1-0.18,0.21-0.35,0.33-0.51c0.06-0.08,0.12-0.16,0.19-0.24
		c0.07-0.07,0.14-0.14,0.21-0.21c1.5-0.84,2.13-1.09,2.54-1.16c0.07-0.02,0.14-0.03,0.2-0.03c0.06-0.01,0.11-0.01,0.17-0.01
		c0.41,0,0.81,0.06,1.21,0.18c0.17,0.05,0.35,0.12,0.51,0.19l21.61,9.81c1.17,0.53,1.97,1.54,2.29,2.7
		C668.89,588.8,668.84,589.79,668.42,590.7"/>
	<path style="clip-path:url(#SVGID_4_);fill:#007168;" d="M642.86,575.03c-0.07,0-0.13,0.02-0.2,0.03
		C642.73,575.05,642.79,575.04,642.86,575.03"/>
	<path style="clip-path:url(#SVGID_4_);fill:#007168;" d="M640.12,576.22c0.69-0.68,1.59-1.08,2.54-1.16
		C642.25,575.13,641.62,575.38,640.12,576.22"/>
	<polygon style="clip-path:url(#SVGID_4_);fill:#9E0C27;" points="769.19,518.47 769.19,542.25 716.28,566.27 690.1,578.16 
		690.09,578.16 690.09,554.38 690.1,554.38 	"/>
	<path style="clip-path:url(#SVGID_4_);fill:#D21034;" d="M611.01,518.47v23.78l52.9,24.02l26.19,11.88v-23.78L611.01,518.47z
		 M636.02,543.74c-0.95,2.08-3.42,3.01-5.51,2.06c-2.08-0.95-3.01-3.41-2.06-5.5c0.94-2.09,3.41-3.01,5.5-2.06
		C636.04,539.18,636.96,541.65,636.02,543.74 M668.42,558.45c-0.95,2.09-3.41,3.01-5.5,2.07l-21.6-9.81
		c-2.09-0.95-3.01-3.42-2.07-5.5c0.95-2.09,3.42-3.02,5.5-2.07l21.61,9.81C668.44,553.89,669.37,556.36,668.42,558.45"/>
	<path style="clip-path:url(#SVGID_4_);fill:#D21034;" d="M769.19,518.47l-79.09-35.91l-79.09,35.91l79.09,35.9v0.01L769.19,518.47z
		 M682.12,526.37l7.98-3.11l9.22-3.6l-0.47-0.18l-8.75,2.1l-12.35,2.96l-6.45-2.69l13.42-7.9l-0.45-0.17l-17.17,6.32l-8.61-3.59
		l29.78-10.62l1.83,0.69l11.03,4.11l-10.41,6.34l0.37,0.15l16.8-3.97l13.82,5.15l-29.85,12.07l-1.76-0.73L682.12,526.37z"/>
	<polygon style="clip-path:url(#SVGID_4_);fill:#1A1A1A;" points="929.89,616.45 929.89,596.07 932.43,596.07 932.43,614.2 
		941.95,614.2 941.95,616.45 	"/>
	<path style="clip-path:url(#SVGID_4_);fill:#1A1A1A;" d="M945.06,594.44h2.58v2.64h-2.58V594.44z M945.12,601.34h2.43v15.11h-2.43
		V601.34z"/>
	<path style="clip-path:url(#SVGID_4_);fill:#1A1A1A;" d="M957.29,616.69c-1.09,0-1.99-0.12-2.71-0.36
		c-0.72-0.24-1.29-0.65-1.7-1.23c-0.41-0.58-0.71-1.38-0.89-2.38c-0.18-1.01-0.27-2.27-0.27-3.79c0-1.54,0.08-2.82,0.25-3.84
		c0.17-1.02,0.46-1.81,0.87-2.38c0.41-0.57,0.98-0.98,1.69-1.23c0.71-0.25,1.61-0.37,2.7-0.37c0.81,0,1.53,0.06,2.16,0.19
		c0.63,0.13,1.18,0.35,1.64,0.67c0.46,0.32,0.83,0.75,1.11,1.3h0.15v-8.83h2.43v22.01h-2.16l-0.12-2.16h-0.18
		c-0.28,0.69-0.68,1.21-1.2,1.56c-0.52,0.34-1.11,0.57-1.76,0.68C958.65,616.64,957.98,616.69,957.29,616.69 M958.24,614.56
		c1.01,0,1.81-0.14,2.4-0.41c0.59-0.28,1.01-0.71,1.24-1.3c0.2-0.55,0.32-1.16,0.36-1.81c0.04-0.65,0.06-1.42,0.06-2.31
		c0-0.73-0.02-1.4-0.06-2c-0.04-0.6-0.15-1.13-0.33-1.58c-0.26-0.67-0.68-1.15-1.27-1.44c-0.59-0.29-1.41-0.43-2.46-0.43
		c-0.89,0-1.6,0.06-2.13,0.18s-0.94,0.37-1.21,0.76c-0.28,0.38-0.46,0.95-0.56,1.69c-0.1,0.74-0.15,1.74-0.15,3.01
		c0,1.26,0.05,2.27,0.15,3.02c0.1,0.75,0.29,1.31,0.56,1.69c0.28,0.37,0.69,0.63,1.23,0.75
		C956.61,614.49,957.33,614.56,958.24,614.56"/>
	<path style="clip-path:url(#SVGID_4_);fill:#1A1A1A;" d="M975.69,616.69c-1.22,0-2.25-0.08-3.07-0.24
		c-0.82-0.16-1.48-0.42-1.97-0.78c-0.49-0.37-0.87-0.85-1.13-1.45c-0.26-0.6-0.43-1.34-0.5-2.21c-0.08-0.87-0.12-1.9-0.12-3.08
		c0-1.4,0.06-2.6,0.18-3.6c0.12-1,0.39-1.81,0.81-2.43c0.42-0.62,1.09-1.08,2-1.36c0.91-0.29,2.13-0.43,3.67-0.43
		c1.17,0,2.12,0.09,2.86,0.27c0.74,0.18,1.33,0.46,1.76,0.83c0.43,0.38,0.76,0.87,0.96,1.5c0.21,0.62,0.34,1.36,0.4,2.22
		c0.06,0.86,0.09,1.85,0.09,2.98v0.8H971.3c0,1.03,0.05,1.87,0.15,2.52c0.1,0.65,0.3,1.16,0.61,1.51c0.31,0.36,0.79,0.6,1.45,0.74
		c0.66,0.14,1.56,0.21,2.71,0.21c0.47,0,1-0.02,1.57-0.04c0.57-0.03,1.15-0.07,1.72-0.13c0.57-0.06,1.09-0.12,1.54-0.18v1.96
		c-0.41,0.08-0.92,0.15-1.53,0.21c-0.6,0.06-1.23,0.11-1.9,0.15C976.97,616.67,976.32,616.69,975.69,616.69 M979.3,608.48v-0.8
		c0-1.03-0.06-1.84-0.18-2.44c-0.12-0.6-0.32-1.06-0.61-1.36c-0.29-0.31-0.68-0.51-1.17-0.61c-0.49-0.1-1.11-0.15-1.84-0.15
		c-0.95,0-1.7,0.06-2.25,0.19c-0.55,0.13-0.97,0.36-1.24,0.7c-0.28,0.34-0.46,0.82-0.56,1.45c-0.1,0.63-0.15,1.47-0.15,2.52h8.56
		L979.3,608.48z"/>
	<path style="clip-path:url(#SVGID_4_);fill:#1A1A1A;" d="M985.79,616.45v-15.11h2.16l0.12,2.9h0.18c0.26-0.85,0.62-1.5,1.1-1.95
		c0.47-0.45,1.05-0.77,1.72-0.93c0.67-0.17,1.41-0.25,2.22-0.25v2.37c-1.36,0-2.41,0.22-3.14,0.65c-0.73,0.44-1.23,1.11-1.51,2.02
		c-0.28,0.91-0.41,2.05-0.41,3.44v6.87H985.79z"/>
	<path style="clip-path:url(#SVGID_4_);fill:#1A1A1A;" d="M1009.2,616.69c-1.22,0-2.25-0.08-3.07-0.24
		c-0.82-0.16-1.48-0.42-1.97-0.78c-0.49-0.37-0.87-0.85-1.13-1.45c-0.26-0.6-0.43-1.34-0.5-2.21c-0.08-0.87-0.12-1.9-0.12-3.08
		c0-1.4,0.06-2.6,0.18-3.6c0.12-1,0.39-1.81,0.81-2.43c0.42-0.62,1.09-1.08,2-1.36c0.91-0.29,2.13-0.43,3.67-0.43
		c1.16,0,2.12,0.09,2.86,0.27c0.74,0.18,1.33,0.46,1.76,0.83c0.43,0.38,0.76,0.87,0.96,1.5c0.21,0.62,0.34,1.36,0.4,2.22
		c0.06,0.86,0.09,1.85,0.09,2.98v0.8h-10.34c0,1.03,0.05,1.87,0.15,2.52c0.1,0.65,0.3,1.16,0.61,1.51c0.31,0.36,0.79,0.6,1.45,0.74
		c0.66,0.14,1.56,0.21,2.71,0.21c0.47,0,1-0.02,1.57-0.04c0.57-0.03,1.15-0.07,1.72-0.13c0.57-0.06,1.09-0.12,1.54-0.18v1.96
		c-0.41,0.08-0.92,0.15-1.53,0.21c-0.6,0.06-1.23,0.11-1.9,0.15C1010.48,616.67,1009.83,616.69,1009.2,616.69 M1012.81,608.48v-0.8
		c0-1.03-0.06-1.84-0.18-2.44c-0.12-0.6-0.32-1.06-0.61-1.36c-0.29-0.31-0.68-0.51-1.17-0.61c-0.49-0.1-1.11-0.15-1.84-0.15
		c-0.95,0-1.7,0.06-2.25,0.19c-0.55,0.13-0.97,0.36-1.24,0.7c-0.28,0.34-0.46,0.82-0.56,1.45c-0.1,0.63-0.15,1.47-0.15,2.52h8.56
		L1012.81,608.48z"/>
	<path style="clip-path:url(#SVGID_4_);fill:#1A1A1A;" d="M1019.3,616.45v-15.11h2.19l0.09,2.16h0.18c0.18-0.47,0.45-0.89,0.81-1.24
		c0.37-0.35,0.85-0.64,1.45-0.84c0.6-0.21,1.38-0.31,2.33-0.31c1.34,0,2.34,0.19,2.99,0.58c0.65,0.39,1.11,0.99,1.36,1.82h0.18
		c0.2-0.47,0.48-0.89,0.86-1.24c0.37-0.35,0.88-0.64,1.51-0.84c0.63-0.21,1.41-0.31,2.34-0.31c1.36,0,2.38,0.21,3.05,0.62
		c0.67,0.41,1.12,1.06,1.33,1.93c0.22,0.87,0.33,1.99,0.33,3.35v9.45h-2.4v-8.62c0-1.03-0.04-1.84-0.12-2.44
		c-0.08-0.6-0.23-1.06-0.44-1.36c-0.22-0.31-0.54-0.51-0.98-0.61c-0.43-0.1-1.02-0.15-1.75-0.15c-0.85,0-1.52,0.11-2.01,0.34
		c-0.49,0.23-0.85,0.57-1.08,1.02c-0.23,0.45-0.37,1.02-0.43,1.69c-0.06,0.67-0.09,1.45-0.09,2.34v7.79h-2.4v-8.62
		c0-1.03-0.04-1.84-0.12-2.44c-0.08-0.6-0.23-1.06-0.44-1.36c-0.22-0.31-0.54-0.51-0.98-0.61c-0.43-0.1-1.02-0.15-1.75-0.15
		c-0.85,0-1.52,0.12-2.01,0.37c-0.49,0.25-0.85,0.6-1.07,1.05c-0.22,0.45-0.35,1.02-0.41,1.69c-0.06,0.67-0.09,1.43-0.09,2.28v7.79
		H1019.3z"/>
	<path style="clip-path:url(#SVGID_4_);fill:#1A1A1A;" d="M1056.84,616.69c-0.57,0-1.18-0.02-1.84-0.06
		c-0.65-0.04-1.29-0.09-1.93-0.13c-0.63-0.05-1.2-0.11-1.72-0.19v-1.96c0.47,0.04,0.93,0.08,1.38,0.12c0.44,0.04,0.88,0.07,1.32,0.1
		s0.87,0.05,1.3,0.06c0.43,0.01,0.88,0.01,1.33,0.01c1.03,0,1.77-0.07,2.24-0.22c0.46-0.15,0.77-0.4,0.92-0.76
		c0.15-0.35,0.22-0.82,0.22-1.39c0-0.65-0.05-1.13-0.16-1.42c-0.11-0.3-0.3-0.49-0.56-0.58c-0.27-0.09-0.67-0.16-1.2-0.22
		l-3.91-0.44c-0.93-0.1-1.63-0.3-2.1-0.61c-0.47-0.31-0.8-0.75-0.98-1.32c-0.18-0.57-0.27-1.29-0.27-2.16
		c0-0.99,0.14-1.78,0.41-2.37c0.28-0.59,0.67-1.04,1.19-1.33c0.51-0.3,1.14-0.49,1.87-0.58c0.73-0.09,1.55-0.13,2.46-0.13
		c0.51,0,1.06,0.02,1.63,0.06c0.57,0.04,1.14,0.09,1.69,0.15c0.55,0.06,1.03,0.13,1.42,0.21v1.95c-0.51-0.08-1.03-0.14-1.56-0.19
		c-0.52-0.05-1.06-0.08-1.6-0.1c-0.54-0.02-1.09-0.03-1.64-0.03c-0.75,0-1.39,0.04-1.93,0.12c-0.53,0.08-0.93,0.28-1.2,0.59
		c-0.27,0.32-0.4,0.84-0.4,1.57c0,0.57,0.05,1,0.13,1.29c0.09,0.29,0.27,0.49,0.55,0.59c0.28,0.11,0.66,0.19,1.16,0.25l4.09,0.44
		c0.81,0.08,1.45,0.23,1.91,0.46c0.46,0.23,0.8,0.63,1.01,1.2c0.21,0.57,0.31,1.43,0.31,2.58c0,0.95-0.11,1.71-0.34,2.3
		c-0.23,0.58-0.58,1.03-1.05,1.35c-0.47,0.32-1.06,0.53-1.75,0.64C1058.54,616.64,1057.74,616.69,1056.84,616.69"/>
	<path style="clip-path:url(#SVGID_4_);fill:#1A1A1A;" d="M1072.27,616.69c-1.24,0-2.28-0.07-3.1-0.22
		c-0.82-0.15-1.47-0.39-1.94-0.73c-0.47-0.34-0.82-0.8-1.05-1.39c-0.23-0.59-0.37-1.34-0.43-2.24c-0.06-0.9-0.09-1.97-0.09-3.21
		c0-1.24,0.03-2.32,0.09-3.21c0.06-0.9,0.2-1.64,0.43-2.24c0.23-0.59,0.58-1.06,1.05-1.39s1.12-0.58,1.94-0.73
		c0.82-0.15,1.85-0.22,3.1-0.22c1.26,0,2.3,0.07,3.11,0.22c0.81,0.15,1.46,0.39,1.94,0.73c0.48,0.34,0.84,0.8,1.07,1.39
		c0.23,0.59,0.37,1.34,0.43,2.24c0.06,0.9,0.09,1.97,0.09,3.21c0,1.24-0.03,2.32-0.09,3.21c-0.06,0.9-0.2,1.64-0.43,2.24
		c-0.23,0.59-0.58,1.06-1.07,1.39c-0.48,0.34-1.13,0.58-1.94,0.73C1074.57,616.62,1073.53,616.69,1072.27,616.69 M1072.27,614.65
		c1.07,0,1.89-0.07,2.46-0.21c0.57-0.14,0.98-0.4,1.23-0.8c0.25-0.4,0.4-0.97,0.44-1.73c0.05-0.76,0.07-1.76,0.07-3.01
		c0-1.24-0.02-2.25-0.07-3.01c-0.05-0.76-0.2-1.34-0.44-1.73c-0.25-0.4-0.66-0.66-1.23-0.8c-0.57-0.14-1.39-0.21-2.46-0.21
		c-1.05,0-1.86,0.07-2.44,0.21c-0.58,0.14-0.99,0.41-1.23,0.8s-0.39,0.97-0.44,1.73c-0.06,0.76-0.09,1.76-0.09,3.01
		c0,1.24,0.03,2.25,0.09,3.01c0.06,0.76,0.21,1.34,0.44,1.73c0.24,0.4,0.65,0.66,1.23,0.8
		C1070.41,614.58,1071.22,614.65,1072.27,614.65"/>
	<rect x="1083.08" y="594.44" style="clip-path:url(#SVGID_4_);fill:#1A1A1A;" width="2.43" height="22.01"/>
	<path style="clip-path:url(#SVGID_4_);fill:#1A1A1A;" d="M1095.47,616.69c-1.11,0-2-0.12-2.68-0.36c-0.68-0.24-1.2-0.59-1.56-1.07
		c-0.35-0.47-0.6-1.08-0.73-1.82c-0.13-0.74-0.19-1.62-0.19-2.65v-9.45h2.43v8.62c0,1.01,0.04,1.82,0.12,2.43
		c0.08,0.61,0.25,1.07,0.52,1.38c0.27,0.31,0.65,0.51,1.14,0.61c0.49,0.1,1.14,0.15,1.93,0.15c0.99,0,1.76-0.12,2.31-0.37
		c0.55-0.25,0.95-0.6,1.2-1.07c0.25-0.46,0.4-1.03,0.47-1.69c0.07-0.66,0.1-1.42,0.1-2.27v-7.79h2.4v15.11h-2.16l-0.09-2.16h-0.21
		c-0.2,0.47-0.49,0.89-0.87,1.24c-0.38,0.35-0.91,0.64-1.59,0.84C1097.34,616.59,1096.49,616.69,1095.47,616.69"/>
	<path style="clip-path:url(#SVGID_4_);fill:#1A1A1A;" d="M1113.27,616.69c-1.15,0-2.09-0.1-2.83-0.3c-0.74-0.2-1.33-0.49-1.78-0.89
		c-0.44-0.39-0.78-0.9-0.99-1.51c-0.22-0.61-0.36-1.34-0.43-2.19c-0.07-0.85-0.1-1.82-0.1-2.9c0-1.13,0.05-2.11,0.13-2.96
		c0.09-0.85,0.26-1.58,0.5-2.21c0.25-0.62,0.59-1.12,1.04-1.5c0.44-0.38,1.02-0.66,1.73-0.84c0.71-0.19,1.59-0.28,2.64-0.28
		c0.69,0,1.42,0.03,2.18,0.1c0.76,0.07,1.39,0.16,1.88,0.28v1.96c-0.45-0.08-1.01-0.15-1.67-0.21c-0.66-0.06-1.26-0.09-1.79-0.09
		c-0.93,0-1.67,0.08-2.24,0.24c-0.56,0.16-0.99,0.44-1.27,0.86c-0.29,0.41-0.48,1-0.58,1.75c-0.1,0.75-0.15,1.72-0.15,2.9
		c0,1.2,0.05,2.19,0.15,2.95c0.1,0.76,0.3,1.34,0.61,1.75c0.31,0.41,0.74,0.68,1.3,0.83c0.56,0.15,1.31,0.22,2.24,0.22
		c0.55,0,1.15-0.03,1.81-0.09c0.65-0.06,1.23-0.13,1.75-0.21v1.96c-0.49,0.1-1.12,0.19-1.9,0.27
		C1114.73,616.65,1113.98,616.69,1113.27,616.69 M1110.64,622.08v-0.15l2.01-6.01h1.63v0.15l-1.24,6.01H1110.64z"/>
	<path style="clip-path:url(#SVGID_4_);fill:#1A1A1A;" d="M1127.08,616.69c-1.24,0-2.28-0.07-3.1-0.22
		c-0.82-0.15-1.47-0.39-1.94-0.73c-0.47-0.34-0.82-0.8-1.05-1.39c-0.23-0.59-0.37-1.34-0.43-2.24c-0.06-0.9-0.09-1.97-0.09-3.21
		c0-1.24,0.03-2.32,0.09-3.21c0.06-0.9,0.2-1.64,0.43-2.24c0.23-0.59,0.58-1.06,1.05-1.39s1.12-0.58,1.94-0.73
		c0.82-0.15,1.85-0.22,3.1-0.22c1.26,0,2.3,0.07,3.11,0.22c0.81,0.15,1.46,0.39,1.94,0.73c0.48,0.34,0.84,0.8,1.07,1.39
		c0.23,0.59,0.37,1.34,0.43,2.24c0.06,0.9,0.09,1.97,0.09,3.21c0,1.24-0.03,2.32-0.09,3.21c-0.06,0.9-0.2,1.64-0.43,2.24
		c-0.23,0.59-0.58,1.06-1.07,1.39c-0.48,0.34-1.13,0.58-1.94,0.73C1129.38,616.62,1128.34,616.69,1127.08,616.69 M1122.01,598.62
		c0-0.77,0.05-1.4,0.13-1.9c0.09-0.49,0.29-0.86,0.61-1.11c0.32-0.25,0.8-0.37,1.45-0.37c0.55,0,1.1,0.07,1.63,0.22
		c0.53,0.15,1.07,0.31,1.6,0.49c0.41,0.14,0.81,0.27,1.2,0.38c0.38,0.12,0.77,0.18,1.17,0.18c0.43,0,0.7-0.11,0.78-0.34
		c0.09-0.23,0.13-0.65,0.13-1.26h1.39c0,0.77-0.04,1.4-0.13,1.9c-0.09,0.49-0.29,0.86-0.59,1.11c-0.31,0.25-0.79,0.37-1.44,0.37
		c-0.59,0-1.14-0.08-1.64-0.24c-0.5-0.16-1.03-0.32-1.59-0.47c-0.42-0.14-0.82-0.27-1.21-0.38c-0.4-0.12-0.78-0.18-1.16-0.18
		c-0.44,0-0.7,0.11-0.79,0.34c-0.09,0.23-0.13,0.65-0.13,1.26H1122.01z M1127.08,614.65c1.07,0,1.89-0.07,2.46-0.21
		c0.57-0.14,0.98-0.4,1.23-0.8c0.25-0.4,0.4-0.97,0.44-1.73c0.05-0.76,0.07-1.76,0.07-3.01c0-1.24-0.02-2.25-0.07-3.01
		c-0.05-0.76-0.2-1.34-0.44-1.73c-0.25-0.4-0.66-0.66-1.23-0.8c-0.57-0.14-1.39-0.21-2.46-0.21c-1.05,0-1.86,0.07-2.44,0.21
		c-0.58,0.14-0.99,0.41-1.23,0.8c-0.24,0.4-0.39,0.97-0.44,1.73c-0.06,0.76-0.09,1.76-0.09,3.01c0,1.24,0.03,2.25,0.09,3.01
		c0.06,0.76,0.21,1.34,0.44,1.73c0.24,0.4,0.65,0.66,1.23,0.8C1125.22,614.58,1126.03,614.65,1127.08,614.65"/>
	<path style="clip-path:url(#SVGID_4_);fill:#1A1A1A;" d="M1144.06,616.69c-1.22,0-2.25-0.08-3.07-0.24
		c-0.82-0.16-1.48-0.42-1.97-0.78c-0.49-0.37-0.87-0.85-1.13-1.45c-0.26-0.6-0.43-1.34-0.5-2.21c-0.08-0.87-0.12-1.9-0.12-3.08
		c0-1.4,0.06-2.6,0.18-3.6c0.12-1,0.39-1.81,0.81-2.43c0.42-0.62,1.09-1.08,2-1.36c0.91-0.29,2.13-0.43,3.67-0.43
		c1.16,0,2.12,0.09,2.86,0.27c0.74,0.18,1.33,0.46,1.76,0.83c0.43,0.38,0.75,0.87,0.96,1.5c0.21,0.62,0.34,1.36,0.4,2.22
		c0.06,0.86,0.09,1.85,0.09,2.98v0.8h-10.34c0,1.03,0.05,1.87,0.15,2.52c0.1,0.65,0.3,1.16,0.61,1.51c0.31,0.36,0.79,0.6,1.45,0.74
		c0.66,0.14,1.57,0.21,2.71,0.21c0.47,0,1-0.02,1.57-0.04c0.57-0.03,1.15-0.07,1.72-0.13c0.57-0.06,1.09-0.12,1.54-0.18v1.96
		c-0.42,0.08-0.92,0.15-1.53,0.21c-0.6,0.06-1.23,0.11-1.9,0.15C1145.33,616.67,1144.69,616.69,1144.06,616.69 M1147.67,608.48v-0.8
		c0-1.03-0.06-1.84-0.18-2.44c-0.12-0.6-0.32-1.06-0.61-1.36c-0.29-0.31-0.68-0.51-1.17-0.61c-0.49-0.1-1.11-0.15-1.84-0.15
		c-0.95,0-1.7,0.06-2.25,0.19c-0.55,0.13-0.97,0.36-1.24,0.7c-0.28,0.34-0.46,0.82-0.56,1.45c-0.1,0.63-0.15,1.47-0.15,2.52h8.56
		L1147.67,608.48z"/>
	<path style="clip-path:url(#SVGID_4_);fill:#1A1A1A;" d="M1159.19,616.69c-0.57,0-1.19-0.02-1.84-0.06
		c-0.65-0.04-1.29-0.09-1.93-0.13c-0.63-0.05-1.21-0.11-1.72-0.19v-1.96c0.47,0.04,0.93,0.08,1.38,0.12
		c0.44,0.04,0.88,0.07,1.32,0.1c0.43,0.03,0.87,0.05,1.3,0.06c0.43,0.01,0.88,0.01,1.33,0.01c1.03,0,1.77-0.07,2.24-0.22
		c0.46-0.15,0.77-0.4,0.92-0.76c0.15-0.35,0.22-0.82,0.22-1.39c0-0.65-0.06-1.13-0.16-1.42c-0.11-0.3-0.3-0.49-0.56-0.58
		c-0.27-0.09-0.67-0.16-1.2-0.22l-3.91-0.44c-0.93-0.1-1.63-0.3-2.1-0.61c-0.47-0.31-0.8-0.75-0.98-1.32
		c-0.18-0.57-0.27-1.29-0.27-2.16c0-0.99,0.14-1.78,0.42-2.37c0.28-0.59,0.67-1.04,1.18-1.33c0.51-0.3,1.14-0.49,1.87-0.58
		c0.73-0.09,1.55-0.13,2.46-0.13c0.51,0,1.06,0.02,1.63,0.06c0.57,0.04,1.14,0.09,1.69,0.15c0.55,0.06,1.03,0.13,1.42,0.21v1.95
		c-0.51-0.08-1.03-0.14-1.56-0.19c-0.52-0.05-1.06-0.08-1.6-0.1c-0.54-0.02-1.09-0.03-1.64-0.03c-0.75,0-1.39,0.04-1.93,0.12
		c-0.53,0.08-0.93,0.28-1.2,0.59c-0.27,0.32-0.4,0.84-0.4,1.57c0,0.57,0.05,1,0.13,1.29c0.09,0.29,0.27,0.49,0.55,0.59
		c0.28,0.11,0.66,0.19,1.16,0.25l4.09,0.44c0.81,0.08,1.45,0.23,1.91,0.46c0.46,0.23,0.8,0.63,1.01,1.2
		c0.21,0.57,0.31,1.43,0.31,2.58c0,0.95-0.11,1.71-0.34,2.3c-0.23,0.58-0.58,1.03-1.05,1.35c-0.47,0.32-1.06,0.53-1.75,0.64
		C1160.9,616.64,1160.1,616.69,1159.19,616.69"/>
	<path style="clip-path:url(#SVGID_4_);fill:#1A1A1A;" d="M1180.26,616.69c-1.09,0-1.99-0.12-2.71-0.36
		c-0.72-0.24-1.29-0.65-1.7-1.23c-0.41-0.58-0.71-1.38-0.89-2.38c-0.18-1.01-0.27-2.27-0.27-3.79c0-1.54,0.08-2.82,0.25-3.84
		c0.17-1.02,0.46-1.81,0.87-2.38c0.41-0.57,0.98-0.98,1.69-1.23c0.71-0.25,1.61-0.37,2.7-0.37c0.81,0,1.53,0.06,2.16,0.19
		c0.63,0.13,1.18,0.35,1.64,0.67c0.46,0.32,0.83,0.75,1.11,1.3h0.15v-8.83h2.43v22.01h-2.16l-0.12-2.16h-0.18
		c-0.28,0.69-0.68,1.21-1.2,1.56c-0.52,0.34-1.11,0.57-1.76,0.68C1181.62,616.64,1180.95,616.69,1180.26,616.69 M1181.21,614.56
		c1.01,0,1.81-0.14,2.4-0.41c0.59-0.28,1.01-0.71,1.24-1.3c0.2-0.55,0.32-1.16,0.35-1.81c0.04-0.65,0.06-1.42,0.06-2.31
		c0-0.73-0.02-1.4-0.06-2c-0.04-0.6-0.15-1.13-0.33-1.58c-0.26-0.67-0.68-1.15-1.27-1.44c-0.59-0.29-1.41-0.43-2.46-0.43
		c-0.89,0-1.6,0.06-2.13,0.18c-0.53,0.12-0.94,0.37-1.21,0.76c-0.28,0.38-0.46,0.95-0.56,1.69c-0.1,0.74-0.15,1.74-0.15,3.01
		c0,1.26,0.05,2.27,0.15,3.02c0.1,0.75,0.29,1.31,0.56,1.69c0.28,0.37,0.69,0.63,1.23,0.75
		C1179.57,614.49,1180.3,614.56,1181.21,614.56"/>
	<path style="clip-path:url(#SVGID_4_);fill:#1A1A1A;" d="M1198.66,616.69c-1.23,0-2.25-0.08-3.07-0.24
		c-0.82-0.16-1.48-0.42-1.97-0.78c-0.49-0.37-0.87-0.85-1.13-1.45s-0.43-1.34-0.5-2.21c-0.08-0.87-0.12-1.9-0.12-3.08
		c0-1.4,0.06-2.6,0.18-3.6c0.12-1,0.39-1.81,0.81-2.43c0.42-0.62,1.09-1.08,2-1.36c0.91-0.29,2.13-0.43,3.67-0.43
		c1.16,0,2.12,0.09,2.86,0.27c0.74,0.18,1.33,0.46,1.76,0.83c0.43,0.38,0.75,0.87,0.96,1.5c0.21,0.62,0.34,1.36,0.4,2.22
		c0.06,0.86,0.09,1.85,0.09,2.98v0.8h-10.34c0,1.03,0.05,1.87,0.15,2.52c0.1,0.65,0.3,1.16,0.61,1.51c0.31,0.36,0.79,0.6,1.45,0.74
		c0.66,0.14,1.57,0.21,2.71,0.21c0.47,0,1-0.02,1.57-0.04c0.57-0.03,1.15-0.07,1.72-0.13c0.57-0.06,1.09-0.12,1.54-0.18v1.96
		c-0.42,0.08-0.92,0.15-1.53,0.21c-0.6,0.06-1.23,0.11-1.9,0.15C1199.94,616.67,1199.29,616.69,1198.66,616.69 M1202.27,608.48v-0.8
		c0-1.03-0.06-1.84-0.18-2.44c-0.12-0.6-0.32-1.06-0.61-1.36c-0.29-0.31-0.68-0.51-1.17-0.61c-0.49-0.1-1.11-0.15-1.84-0.15
		c-0.95,0-1.7,0.06-2.25,0.19c-0.55,0.13-0.97,0.36-1.24,0.7c-0.28,0.34-0.46,0.82-0.56,1.45c-0.1,0.63-0.15,1.47-0.15,2.52h8.56
		L1202.27,608.48z"/>
	<path style="clip-path:url(#SVGID_4_);fill:#1A1A1A;" d="M1215.42,622.35v-21.01h2.19l0.09,2.16h0.18c0.3-0.67,0.7-1.19,1.21-1.54
		c0.51-0.36,1.1-0.59,1.75-0.7c0.65-0.11,1.32-0.16,2.01-0.16c1.09,0,1.99,0.12,2.71,0.36c0.72,0.24,1.29,0.65,1.7,1.23
		c0.41,0.58,0.71,1.38,0.89,2.39c0.18,1.01,0.27,2.27,0.27,3.79c0,1.54-0.08,2.82-0.25,3.84c-0.17,1.02-0.46,1.81-0.87,2.39
		c-0.41,0.57-0.98,0.98-1.69,1.23c-0.71,0.25-1.61,0.37-2.7,0.37c-0.81,0-1.53-0.06-2.16-0.19c-0.63-0.13-1.18-0.35-1.64-0.67
		c-0.46-0.32-0.83-0.75-1.11-1.3h-0.15v7.82H1215.42z M1221.91,614.53c0.91,0,1.63-0.06,2.18-0.18c0.54-0.12,0.95-0.37,1.23-0.76
		c0.28-0.38,0.46-0.95,0.56-1.69c0.1-0.74,0.15-1.74,0.15-3.01c0-1.26-0.05-2.27-0.15-3.02c-0.1-0.75-0.29-1.31-0.56-1.69
		c-0.28-0.38-0.69-0.63-1.23-0.76c-0.54-0.13-1.27-0.19-2.18-0.19c-1.01,0-1.8,0.14-2.38,0.43c-0.58,0.29-1,0.74-1.26,1.35
		c-0.2,0.47-0.32,1.04-0.35,1.69c-0.04,0.65-0.06,1.38-0.06,2.19c0,0.83,0.02,1.56,0.06,2.18c0.04,0.62,0.14,1.14,0.3,1.56
		c0.28,0.69,0.71,1.18,1.3,1.47C1220.11,614.38,1220.91,614.53,1221.91,614.53"/>
	<path style="clip-path:url(#SVGID_4_);fill:#1A1A1A;" d="M1232.61,616.45v-15.11h2.16l0.12,2.9h0.18c0.26-0.85,0.62-1.5,1.1-1.95
		c0.47-0.45,1.05-0.77,1.72-0.93c0.67-0.17,1.41-0.25,2.22-0.25v2.37c-1.36,0-2.41,0.22-3.14,0.65c-0.73,0.44-1.23,1.11-1.51,2.02
		c-0.28,0.91-0.41,2.05-0.41,3.44v6.87H1232.61z"/>
	<path style="clip-path:url(#SVGID_4_);fill:#1A1A1A;" d="M1249.35,616.69c-1.23,0-2.25-0.08-3.07-0.24
		c-0.82-0.16-1.48-0.42-1.97-0.78c-0.49-0.37-0.87-0.85-1.13-1.45s-0.43-1.34-0.5-2.21c-0.08-0.87-0.12-1.9-0.12-3.08
		c0-1.4,0.06-2.6,0.18-3.6c0.12-1,0.39-1.81,0.81-2.43c0.42-0.62,1.09-1.08,2-1.36c0.91-0.29,2.13-0.43,3.67-0.43
		c1.16,0,2.12,0.09,2.86,0.27c0.74,0.18,1.33,0.46,1.76,0.83c0.43,0.38,0.75,0.87,0.96,1.5c0.21,0.62,0.34,1.36,0.4,2.22
		c0.06,0.86,0.09,1.85,0.09,2.98v0.8h-10.34c0,1.03,0.05,1.87,0.15,2.52c0.1,0.65,0.3,1.16,0.61,1.51c0.31,0.36,0.79,0.6,1.45,0.74
		c0.66,0.14,1.57,0.21,2.71,0.21c0.47,0,1-0.02,1.57-0.04c0.57-0.03,1.15-0.07,1.72-0.13c0.57-0.06,1.09-0.12,1.54-0.18v1.96
		c-0.42,0.08-0.92,0.15-1.53,0.21c-0.6,0.06-1.23,0.11-1.9,0.15C1250.62,616.67,1249.98,616.69,1249.35,616.69 M1252.96,608.48v-0.8
		c0-1.03-0.06-1.84-0.18-2.44c-0.12-0.6-0.32-1.06-0.61-1.36c-0.29-0.31-0.68-0.51-1.17-0.61c-0.49-0.1-1.11-0.15-1.84-0.15
		c-0.95,0-1.7,0.06-2.25,0.19c-0.55,0.13-0.97,0.36-1.24,0.7c-0.28,0.34-0.46,0.82-0.56,1.45c-0.1,0.63-0.15,1.47-0.15,2.52h8.56
		L1252.96,608.48z"/>
	<path style="clip-path:url(#SVGID_4_);fill:#1A1A1A;" d="M1264.49,616.69c-0.57,0-1.19-0.02-1.84-0.06
		c-0.65-0.04-1.29-0.09-1.93-0.13c-0.63-0.05-1.21-0.11-1.72-0.19v-1.96c0.47,0.04,0.93,0.08,1.38,0.12
		c0.44,0.04,0.88,0.07,1.32,0.1s0.87,0.05,1.3,0.06c0.43,0.01,0.88,0.01,1.33,0.01c1.03,0,1.77-0.07,2.24-0.22
		c0.46-0.15,0.77-0.4,0.92-0.76c0.15-0.35,0.22-0.82,0.22-1.39c0-0.65-0.06-1.13-0.16-1.42c-0.11-0.3-0.3-0.49-0.56-0.58
		c-0.27-0.09-0.67-0.16-1.2-0.22l-3.91-0.44c-0.93-0.1-1.63-0.3-2.1-0.61c-0.47-0.31-0.8-0.75-0.98-1.32
		c-0.18-0.57-0.27-1.29-0.27-2.16c0-0.99,0.14-1.78,0.42-2.37c0.28-0.59,0.67-1.04,1.18-1.33c0.51-0.3,1.14-0.49,1.87-0.58
		c0.73-0.09,1.55-0.13,2.46-0.13c0.51,0,1.06,0.02,1.63,0.06c0.57,0.04,1.14,0.09,1.69,0.15s1.03,0.13,1.42,0.21v1.95
		c-0.51-0.08-1.03-0.14-1.56-0.19c-0.52-0.05-1.06-0.08-1.6-0.1c-0.54-0.02-1.09-0.03-1.64-0.03c-0.75,0-1.39,0.04-1.93,0.12
		c-0.53,0.08-0.93,0.28-1.2,0.59c-0.27,0.32-0.4,0.84-0.4,1.57c0,0.57,0.04,1,0.13,1.29c0.09,0.29,0.27,0.49,0.55,0.59
		c0.28,0.11,0.66,0.19,1.16,0.25l4.09,0.44c0.81,0.08,1.45,0.23,1.91,0.46c0.46,0.23,0.8,0.63,1.01,1.2
		c0.21,0.57,0.31,1.43,0.31,2.58c0,0.95-0.11,1.71-0.34,2.3c-0.23,0.58-0.58,1.03-1.05,1.35c-0.47,0.32-1.06,0.53-1.75,0.64
		C1266.19,616.64,1265.39,616.69,1264.49,616.69"/>
	<path style="clip-path:url(#SVGID_4_);fill:#1A1A1A;" d="M1280.1,616.69c-1.22,0-2.25-0.08-3.07-0.24
		c-0.82-0.16-1.48-0.42-1.97-0.78c-0.49-0.37-0.87-0.85-1.13-1.45c-0.26-0.6-0.43-1.34-0.5-2.21c-0.08-0.87-0.12-1.9-0.12-3.08
		c0-1.4,0.06-2.6,0.18-3.6c0.12-1,0.39-1.81,0.81-2.43c0.42-0.62,1.09-1.08,2-1.36c0.91-0.29,2.13-0.43,3.67-0.43
		c1.16,0,2.12,0.09,2.86,0.27c0.74,0.18,1.33,0.46,1.76,0.83c0.43,0.38,0.75,0.87,0.96,1.5c0.21,0.62,0.34,1.36,0.4,2.22
		c0.06,0.86,0.09,1.85,0.09,2.98v0.8h-10.34c0,1.03,0.05,1.87,0.15,2.52c0.1,0.65,0.3,1.16,0.61,1.51c0.31,0.36,0.79,0.6,1.45,0.74
		c0.66,0.14,1.57,0.21,2.71,0.21c0.47,0,1-0.02,1.57-0.04c0.57-0.03,1.15-0.07,1.72-0.13c0.57-0.06,1.09-0.12,1.54-0.18v1.96
		c-0.42,0.08-0.92,0.15-1.53,0.21c-0.6,0.06-1.23,0.11-1.9,0.15C1281.38,616.67,1280.73,616.69,1280.1,616.69 M1283.71,608.48v-0.8
		c0-1.03-0.06-1.84-0.18-2.44c-0.12-0.6-0.32-1.06-0.61-1.36c-0.29-0.31-0.68-0.51-1.17-0.61c-0.49-0.1-1.11-0.15-1.84-0.15
		c-0.95,0-1.7,0.06-2.25,0.19c-0.55,0.13-0.97,0.36-1.24,0.7c-0.28,0.34-0.46,0.82-0.56,1.45c-0.1,0.63-0.15,1.47-0.15,2.52h8.56
		L1283.71,608.48z"/>
	<path style="clip-path:url(#SVGID_4_);fill:#1A1A1A;" d="M1290.2,616.45v-15.11h2.19l0.09,2.16h0.18c0.22-0.47,0.52-0.89,0.9-1.24
		c0.39-0.35,0.91-0.64,1.57-0.84c0.66-0.21,1.51-0.31,2.53-0.31c1.13,0,2.02,0.12,2.7,0.36c0.67,0.24,1.19,0.59,1.55,1.07
		c0.37,0.47,0.61,1.08,0.73,1.82c0.12,0.74,0.18,1.62,0.18,2.65v9.45h-2.4v-8.62c0-1.03-0.04-1.84-0.13-2.44
		c-0.09-0.6-0.26-1.06-0.52-1.36s-0.63-0.51-1.13-0.61c-0.49-0.1-1.15-0.15-1.96-0.15c-0.97,0-1.73,0.12-2.28,0.37
		c-0.55,0.25-0.96,0.6-1.21,1.07c-0.26,0.46-0.41,1.03-0.47,1.69c-0.06,0.66-0.09,1.42-0.09,2.27v7.79H1290.2z"/>
	<path style="clip-path:url(#SVGID_4_);fill:#1A1A1A;" d="M1313.16,616.69c-1.15,0-2.09-0.1-2.83-0.3c-0.74-0.2-1.33-0.49-1.78-0.89
		c-0.44-0.39-0.78-0.9-0.99-1.51c-0.22-0.61-0.36-1.34-0.43-2.19c-0.07-0.85-0.1-1.82-0.1-2.9c0-1.13,0.04-2.11,0.13-2.96
		c0.09-0.85,0.26-1.58,0.5-2.21c0.25-0.62,0.59-1.12,1.04-1.5c0.44-0.38,1.02-0.66,1.73-0.84c0.71-0.19,1.59-0.28,2.64-0.28
		c0.69,0,1.42,0.03,2.18,0.1c0.76,0.07,1.39,0.16,1.88,0.28v1.96c-0.45-0.08-1.01-0.15-1.67-0.21c-0.66-0.06-1.26-0.09-1.79-0.09
		c-0.93,0-1.67,0.08-2.24,0.24c-0.56,0.16-0.99,0.44-1.27,0.86c-0.29,0.41-0.48,1-0.58,1.75c-0.1,0.75-0.15,1.72-0.15,2.9
		c0,1.2,0.05,2.19,0.15,2.95c0.1,0.76,0.3,1.34,0.61,1.75c0.31,0.41,0.74,0.68,1.3,0.83c0.56,0.15,1.31,0.22,2.24,0.22
		c0.55,0,1.15-0.03,1.81-0.09c0.65-0.06,1.23-0.13,1.75-0.21v1.96c-0.49,0.1-1.12,0.19-1.9,0.27
		C1314.61,616.65,1313.87,616.69,1313.16,616.69 M1310.53,622.08v-0.15l2.01-6.01h1.63v0.15l-1.24,6.01H1310.53z"/>
	<path style="clip-path:url(#SVGID_4_);fill:#1A1A1A;" d="M1325.04,616.69c-1.11,0-2.03-0.13-2.77-0.39
		c-0.74-0.26-1.29-0.7-1.66-1.33c-0.37-0.63-0.55-1.52-0.55-2.67c0-1.15,0.13-2.05,0.4-2.71c0.27-0.66,0.74-1.13,1.41-1.41
		c0.67-0.28,1.61-0.41,2.82-0.41c0.2,0,0.51,0.01,0.93,0.01c0.43,0.01,0.91,0.02,1.47,0.03c0.55,0.01,1.11,0.02,1.67,0.03
		c0.56,0.01,1.08,0.03,1.56,0.04v-0.95c0-0.89-0.06-1.58-0.16-2.09c-0.11-0.5-0.33-0.88-0.67-1.13c-0.34-0.25-0.81-0.4-1.41-0.47
		c-0.6-0.07-1.4-0.1-2.39-0.1c-0.43,0-0.95,0.01-1.54,0.04c-0.59,0.03-1.17,0.07-1.73,0.12c-0.56,0.05-1.01,0.1-1.35,0.16v-1.96
		c0.75-0.14,1.59-0.24,2.53-0.31c0.94-0.07,1.91-0.1,2.92-0.1c1.07,0,1.97,0.06,2.71,0.19c0.74,0.13,1.34,0.33,1.81,0.61
		c0.46,0.28,0.82,0.64,1.05,1.1c0.24,0.45,0.4,1.01,0.49,1.66c0.09,0.65,0.13,1.41,0.13,2.28v9.51h-2.16l-0.09-2.13h-0.18
		c-0.32,0.69-0.77,1.21-1.35,1.55c-0.58,0.35-1.22,0.57-1.91,0.67C1326.34,616.64,1325.67,616.69,1325.04,616.69 M1325.93,614.71
		c0.57,0,1.11-0.03,1.6-0.1c0.49-0.07,0.93-0.2,1.3-0.4c0.37-0.2,0.67-0.49,0.89-0.89c0.22-0.41,0.37-0.86,0.46-1.35
		c0.09-0.48,0.13-1.05,0.13-1.7v-0.77h-5.04c-0.77,0-1.36,0.06-1.78,0.18c-0.41,0.12-0.7,0.37-0.84,0.74
		c-0.15,0.37-0.22,0.94-0.22,1.69c0,0.73,0.09,1.28,0.27,1.66c0.18,0.37,0.52,0.63,1.02,0.76S1324.96,614.71,1325.93,614.71"/>
	<path style="clip-path:url(#SVGID_4_);fill:#1A1A1A;" d="M1350.19,616.69c-1.24,0-2.28-0.07-3.1-0.22
		c-0.82-0.15-1.47-0.39-1.94-0.73c-0.47-0.34-0.83-0.8-1.05-1.39c-0.23-0.59-0.37-1.34-0.43-2.24c-0.06-0.9-0.09-1.97-0.09-3.21
		c0-1.24,0.03-2.32,0.09-3.21c0.06-0.9,0.2-1.64,0.43-2.24c0.23-0.59,0.58-1.06,1.05-1.39c0.47-0.34,1.12-0.58,1.94-0.73
		c0.82-0.15,1.85-0.22,3.1-0.22c1.26,0,2.3,0.07,3.11,0.22c0.81,0.15,1.46,0.39,1.94,0.73c0.48,0.34,0.84,0.8,1.07,1.39
		c0.23,0.59,0.37,1.34,0.43,2.24c0.06,0.9,0.09,1.97,0.09,3.21c0,1.24-0.03,2.32-0.09,3.21c-0.06,0.9-0.2,1.64-0.43,2.24
		c-0.23,0.59-0.58,1.06-1.07,1.39c-0.48,0.34-1.13,0.58-1.94,0.73C1352.49,616.62,1351.46,616.69,1350.19,616.69 M1350.19,614.65
		c1.07,0,1.89-0.07,2.46-0.21c0.57-0.14,0.98-0.4,1.23-0.8c0.25-0.4,0.4-0.97,0.44-1.73c0.05-0.76,0.07-1.76,0.07-3.01
		c0-1.24-0.02-2.25-0.07-3.01c-0.05-0.76-0.2-1.34-0.44-1.73c-0.25-0.4-0.66-0.66-1.23-0.8c-0.57-0.14-1.39-0.21-2.46-0.21
		c-1.05,0-1.86,0.07-2.44,0.21c-0.58,0.14-0.99,0.41-1.23,0.8c-0.24,0.4-0.39,0.97-0.44,1.73c-0.06,0.76-0.09,1.76-0.09,3.01
		c0,1.24,0.03,2.25,0.09,3.01c0.06,0.76,0.21,1.34,0.44,1.73c0.24,0.4,0.65,0.66,1.23,0.8
		C1348.33,614.58,1349.15,614.65,1350.19,614.65"/>
	<path style="clip-path:url(#SVGID_4_);fill:#1A1A1A;" d="M1361.01,616.45v-15.11h2.19l0.09,2.16h0.18c0.22-0.47,0.52-0.89,0.9-1.24
		c0.38-0.35,0.91-0.64,1.57-0.84c0.66-0.21,1.51-0.31,2.53-0.31c1.13,0,2.02,0.12,2.7,0.36c0.67,0.24,1.19,0.59,1.55,1.07
		c0.37,0.47,0.61,1.08,0.73,1.82c0.12,0.74,0.18,1.62,0.18,2.65v9.45h-2.4v-8.62c0-1.03-0.05-1.84-0.13-2.44
		c-0.09-0.6-0.26-1.06-0.52-1.36c-0.26-0.31-0.63-0.51-1.13-0.61c-0.49-0.1-1.15-0.15-1.96-0.15c-0.97,0-1.73,0.12-2.28,0.37
		c-0.55,0.25-0.96,0.6-1.21,1.07c-0.26,0.46-0.41,1.03-0.47,1.69c-0.06,0.66-0.09,1.42-0.09,2.27v7.79H1361.01z"/>
	<rect x="1378.46" y="594.44" style="clip-path:url(#SVGID_4_);fill:#1A1A1A;" width="2.43" height="22.01"/>
	<path style="clip-path:url(#SVGID_4_);fill:#1A1A1A;" d="M1385.63,594.44h2.58v2.64h-2.58V594.44z M1385.69,601.34h2.43v15.11
		h-2.43V601.34z"/>
	<path style="clip-path:url(#SVGID_4_);fill:#1A1A1A;" d="M1392.92,616.45v-15.11h2.19l0.09,2.16h0.18c0.22-0.47,0.52-0.89,0.9-1.24
		c0.38-0.35,0.91-0.64,1.57-0.84c0.66-0.21,1.51-0.31,2.53-0.31c1.13,0,2.02,0.12,2.7,0.36c0.67,0.24,1.19,0.59,1.55,1.07
		c0.37,0.47,0.61,1.08,0.73,1.82c0.12,0.74,0.18,1.62,0.18,2.65v9.45h-2.4v-8.62c0-1.03-0.05-1.84-0.13-2.44
		c-0.09-0.6-0.26-1.06-0.52-1.36s-0.63-0.51-1.13-0.61c-0.49-0.1-1.15-0.15-1.96-0.15c-0.97,0-1.73,0.12-2.28,0.37
		c-0.55,0.25-0.96,0.6-1.21,1.07c-0.26,0.46-0.41,1.03-0.47,1.69c-0.06,0.66-0.09,1.42-0.09,2.27v7.79H1392.92z"/>
	<path style="clip-path:url(#SVGID_4_);fill:#1A1A1A;" d="M1416.53,616.69c-1.22,0-2.25-0.08-3.07-0.24
		c-0.82-0.16-1.48-0.42-1.97-0.78c-0.49-0.37-0.87-0.85-1.13-1.45c-0.26-0.6-0.43-1.34-0.5-2.21c-0.08-0.87-0.12-1.9-0.12-3.08
		c0-1.4,0.06-2.6,0.18-3.6c0.12-1,0.39-1.81,0.81-2.43c0.42-0.62,1.09-1.08,2-1.36c0.91-0.29,2.13-0.43,3.67-0.43
		c1.16,0,2.12,0.09,2.86,0.27c0.74,0.18,1.33,0.46,1.76,0.83c0.43,0.38,0.75,0.87,0.96,1.5c0.21,0.62,0.34,1.36,0.4,2.22
		c0.06,0.86,0.09,1.85,0.09,2.98v0.8h-10.34c0,1.03,0.05,1.87,0.15,2.52c0.1,0.65,0.3,1.16,0.61,1.51c0.31,0.36,0.79,0.6,1.45,0.74
		c0.66,0.14,1.57,0.21,2.71,0.21c0.47,0,1-0.02,1.57-0.04c0.57-0.03,1.15-0.07,1.72-0.13c0.57-0.06,1.09-0.12,1.54-0.18v1.96
		c-0.42,0.08-0.92,0.15-1.53,0.21c-0.6,0.06-1.23,0.11-1.9,0.15C1417.81,616.67,1417.16,616.69,1416.53,616.69 M1420.14,608.48v-0.8
		c0-1.03-0.06-1.84-0.18-2.44c-0.12-0.6-0.32-1.06-0.61-1.36c-0.29-0.31-0.68-0.51-1.17-0.61c-0.49-0.1-1.11-0.15-1.84-0.15
		c-0.95,0-1.7,0.06-2.25,0.19c-0.55,0.13-0.97,0.36-1.24,0.7c-0.28,0.34-0.46,0.82-0.56,1.45c-0.1,0.63-0.15,1.47-0.15,2.52h8.56
		L1420.14,608.48z"/>
	<polygon style="clip-path:url(#SVGID_4_);fill:#D21034;" points="792.87,584.08 810.94,499.53 845.47,499.53 849.4,543.9 
		850.38,543.9 873.24,499.53 907.77,499.53 889.71,584.08 865.5,584.08 876.44,533.08 875.21,533.08 849.4,584.08 832.69,584.08 
		828.51,533.08 827.4,533.08 816.47,584.08 	"/>
	<path style="clip-path:url(#SVGID_4_);fill:#D21034;" d="M942.18,585.06c-8.68,0-15.53-0.59-20.52-1.78
		c-5-1.19-8.52-3.17-10.57-5.96c-2.05-2.78-3.07-6.55-3.07-11.3c0-3.11,0.41-6.74,1.23-10.88c0.82-4.14,1.76-8.91,2.83-14.32
		c1.31-6.88,2.58-12.78,3.81-17.7c1.23-4.92,2.74-8.95,4.55-12.1c1.8-3.15,4.16-5.65,7.07-7.5c2.91-1.84,6.68-3.13,11.31-3.87
		c4.63-0.74,10.47-1.11,17.51-1.11c8.68,0,15.46,0.59,20.34,1.78c4.87,1.19,8.31,3.18,10.32,5.96c2.01,2.79,3.01,6.6,3.01,11.43
		c0,3.2-0.33,6.82-0.98,10.88c-0.66,4.06-1.6,8.79-2.83,14.19c-1.47,6.96-2.89,12.9-4.24,17.82c-1.35,4.92-2.91,8.95-4.67,12.1
		c-1.76,3.15-4.05,5.63-6.88,7.44c-2.83,1.8-6.49,3.07-11,3.81C954.88,584.7,949.15,585.06,942.18,585.06 M943.78,566.63
		c2.29,0,4.2-0.1,5.71-0.31c1.51-0.2,2.78-0.7,3.81-1.48c1.02-0.78,1.92-2.03,2.7-3.75c0.78-1.72,1.54-4.16,2.27-7.31
		c0.74-3.15,1.64-7.15,2.7-11.98c1.06-4.75,1.86-8.66,2.4-11.74c0.53-3.07,0.8-5.51,0.8-7.31c0-1.8-0.33-3.11-0.98-3.93
		c-0.66-0.82-1.7-1.33-3.13-1.54c-1.43-0.2-3.38-0.31-5.84-0.31c-2.21,0-4.08,0.1-5.59,0.31c-1.52,0.21-2.81,0.7-3.87,1.47
		c-1.07,0.78-1.95,2.03-2.64,3.75c-0.7,1.72-1.43,4.16-2.21,7.31c-0.78,3.15-1.66,7.15-2.64,11.98c-0.74,3.28-1.35,6.14-1.84,8.6
		s-0.88,4.55-1.17,6.27c-0.29,1.72-0.43,3.16-0.43,4.3c0,1.8,0.33,3.09,0.98,3.87c0.65,0.78,1.74,1.27,3.26,1.48
		C939.58,566.53,941.49,566.63,943.78,566.63"/>
	<polygon style="clip-path:url(#SVGID_4_);fill:#D21034;" points="988.15,584.08 992.08,566.26 1036.2,517.97 1003.51,517.97 
		1007.56,499.53 1072.57,499.53 1068.89,516.74 1024.03,565.65 1058.56,565.65 1054.51,584.08 	"/>
	<path style="clip-path:url(#SVGID_4_);fill:#D21034;" d="M1060.65,584.08l43.5-84.55h34.9l7.38,84.55h-24.46l-1.1-14.5h-27.65
		l-7.13,14.5H1060.65z M1101.45,551.76h18.56l-2.09-31.34h-0.98L1101.45,551.76z"/>
	<polygon style="clip-path:url(#SVGID_4_);fill:#007168;" points="1173.83,584.08 1155.03,499.53 1176.29,499.53 1188.58,559.87 
		1189.44,559.87 1203.2,499.53 1225.32,499.53 1239.33,559.87 1240.32,559.87 1251.38,499.53 1272.76,499.53 1253.96,584.08 
		1227.17,584.08 1214.39,530.75 1213.53,530.75 1200.62,584.08 	"/>
	<polygon style="clip-path:url(#SVGID_4_);fill:#007168;" points="1283.21,584.08 1283.21,499.53 1342.44,499.53 1342.44,516 
		1304.59,516 1304.59,533.33 1336.67,533.33 1336.67,549.55 1304.59,549.55 1304.59,567.61 1342.44,567.61 1342.44,584.08 	"/>
	<path style="clip-path:url(#SVGID_4_);fill:#007168;" d="M1357.68,584.08v-84.55h42.77c5.41,0,9.87,0.78,13.4,2.34
		c3.52,1.56,6.16,3.91,7.93,7.07c1.76,3.15,2.64,7.11,2.64,11.86c0,3.93-0.53,7.25-1.6,9.95c-1.07,2.7-2.68,4.85-4.85,6.45
		c-2.17,1.6-4.94,2.76-8.3,3.5v0.49c3.6,0.74,6.53,1.89,8.79,3.44c2.25,1.56,3.91,3.71,4.98,6.45c1.07,2.75,1.6,6.25,1.6,10.51
		c0,3.44-0.43,6.57-1.29,9.4c-0.86,2.83-2.23,5.2-4.12,7.13c-1.89,1.93-4.42,3.4-7.62,4.42c-3.2,1.03-7.09,1.54-11.67,1.54H1357.68z
		 M1378.82,533.94h13.64c2.78,0,4.96-0.27,6.51-0.8c1.56-0.53,2.64-1.45,3.26-2.77c0.61-1.31,0.92-3.15,0.92-5.53
		c0-2.62-0.29-4.59-0.86-5.9c-0.57-1.31-1.6-2.19-3.07-2.64c-1.47-0.45-3.73-0.68-6.76-0.68h-13.64V533.94z M1378.82,568.11h14.01
		c2.95,0,5.2-0.26,6.76-0.8c1.56-0.53,2.62-1.49,3.2-2.89c0.57-1.39,0.86-3.4,0.86-6.02c0-2.54-0.29-4.51-0.86-5.9
		c-0.57-1.39-1.64-2.35-3.2-2.89c-1.56-0.53-3.81-0.8-6.76-0.8h-14.01V568.11z"/>
</g>
</svg>
