<?xml version="1.0" encoding="utf-8"?>
<!-- Generator: Adobe Illustrator 26.0.1, SVG Export Plug-In . SVG Version: 6.00 Build 0)  -->
<svg version="1.1" id="Camada_1" xmlns="http://www.w3.org/2000/svg" xmlns:xlink="http://www.w3.org/1999/xlink" x="0px" y="0px"
	 viewBox="0 0 1920 1920" style="enable-background:new 0 0 1920 1920;" xml:space="preserve">
<style type="text/css">
	.st0{fill:#9E0C27;}
	.st1{fill:#D21034;}
	.st2{fill:#007168;}
	.st3{fill:#1A1A1A;}
</style>
<g>
	<g>
		<polygon class="st0" points="651.42,984.84 651.42,1012.65 644.25,1015.91 632.21,1021.38 601.58,1035.28 589.54,1040.75 
			558.91,1054.65 558.91,1054.65 558.91,1026.84 558.91,1026.84 570.95,1021.38 601.58,1007.47 613.63,1002 644.25,988.1 		"/>
		<path class="st1" d="M546.86,1021.38l-30.62-13.91l-12.05-5.46l-30.63-13.91l-7.16-3.25v27.8l7.16,3.25l12.05,5.47l30.63,13.91
			l12.04,5.46l30.63,13.91v-27.81L546.86,1021.38z M495.66,1010.19c-1.11,2.43-4,3.52-6.44,2.41c-1.19-0.54-2.07-1.52-2.51-2.67
			c-0.46-1.17-0.46-2.53,0.11-3.77c1.1-2.43,3.99-3.52,6.43-2.41c1.03,0.47,1.81,1.24,2.29,2.18
			C496.2,1007.21,496.3,1008.78,495.66,1010.19z M533.55,1027.4c0,0.01,0,0.01-0.01,0.02c-1.02,2.21-3.51,3.31-5.79,2.63
			c-0.21-0.07-0.42-0.14-0.63-0.23l-25.26-11.47c-1.37-0.62-2.3-1.79-2.68-3.13c-0.29-1.05-0.23-2.22,0.26-3.3
			c1.11-2.44,4-3.52,6.43-2.42l2.95,1.35l22.33,10.13C533.57,1022.08,534.66,1024.97,533.55,1027.4z"/>
		<polygon class="st0" points="651.42,946.1 651.42,973.91 632.21,982.63 601.58,996.53 589.54,1002 558.91,1015.91 558.91,1015.91 
			558.91,988.1 558.91,988.1 570.95,982.63 601.58,968.72 		"/>
		<path class="st1" d="M546.86,982.63l-30.62-13.91L466.4,946.1v27.81l19.21,8.71l30.63,13.91l12.04,5.47l30.63,13.9v-27.81
			L546.86,982.63z M495.66,974.63c-1.11,2.44-4,3.52-6.44,2.41c-2.43-1.1-3.52-3.99-2.41-6.42c1.1-2.44,3.99-3.53,6.43-2.42
			C495.68,969.3,496.75,972.18,495.66,974.63z M533.55,991.83c-1.11,2.44-3.99,3.52-6.43,2.42l-2.92-1.33l-22.34-10.14
			c-2.44-1.11-3.52-3.99-2.42-6.43c0.05-0.12,0.11-0.22,0.16-0.33c0.12-0.21,0.25-0.41,0.39-0.6c0.07-0.09,0.14-0.19,0.22-0.28
			c0.08-0.08,0.16-0.16,0.25-0.25c1.75-0.98,2.49-1.27,2.97-1.36c0.08-0.02,0.16-0.04,0.23-0.04c0.07-0.01,0.13-0.01,0.2-0.01
			c0.48,0,0.95,0.07,1.42,0.21c0.2,0.06,0.41,0.14,0.6,0.22l25.28,11.47c1.37,0.62,2.3,1.8,2.68,3.16
			C534.1,989.61,534.04,990.77,533.55,991.83z"/>
		<path class="st2" d="M503.66,973.5c-0.08,0-0.15,0.02-0.23,0.03C503.51,973.52,503.58,973.51,503.66,973.5z"/>
		<path class="st2" d="M500.45,974.89c0.81-0.8,1.87-1.26,2.97-1.36C502.94,973.62,502.21,973.91,500.45,974.89z"/>
		<polygon class="st0" points="651.42,907.35 651.42,935.16 589.54,963.25 558.91,977.16 558.91,977.16 558.91,949.35 
			558.91,949.35 		"/>
		<path class="st1" d="M466.4,907.35v27.81l61.87,28.09l30.63,13.9v-27.81L466.4,907.35z M495.66,936.9c-1.11,2.43-4,3.52-6.44,2.41
			c-2.43-1.11-3.52-3.99-2.41-6.43c1.1-2.44,3.99-3.52,6.43-2.41C495.68,931.57,496.75,934.46,495.66,936.9z M533.55,954.11
			c-1.11,2.44-3.99,3.52-6.43,2.42l-25.26-11.47c-2.44-1.11-3.52-4-2.42-6.43c1.11-2.44,4-3.53,6.43-2.42l25.28,11.47
			C533.57,948.78,534.66,951.67,533.55,954.11z"/>
		<path class="st1" d="M651.42,907.35l-92.51-42l-92.51,42l92.51,41.99v0.01L651.42,907.35z M549.58,916.59l9.33-3.64l10.78-4.21
			l-0.55-0.21l-10.23,2.46l-14.45,3.46l-7.54-3.15l15.7-9.24l-0.53-0.2l-20.08,7.39l-10.07-4.2l34.83-12.42l2.14,0.81l12.9,4.81
			l-12.18,7.42l0.43,0.18l19.65-4.64l16.16,6.02l-34.91,14.12l-2.06-0.85L549.58,916.59z"/>
	</g>
	<g>
		<path class="st3" d="M717.74,1028.85v-30.23h3.78v26.89h14.1v3.34H717.74z"/>
		<path class="st3" d="M740.23,1000.11v-3.91h3.82v3.91H740.23z M740.32,1028.85v-22.41h3.6v22.41H740.32z"/>
		<path class="st3" d="M758.37,1029.2c-1.61,0-2.95-0.18-4.02-0.53c-1.07-0.35-1.91-0.96-2.53-1.82c-0.62-0.86-1.05-2.04-1.32-3.54
			c-0.26-1.49-0.4-3.37-0.4-5.62c0-2.28,0.12-4.18,0.37-5.69c0.25-1.51,0.68-2.69,1.3-3.54c0.62-0.85,1.45-1.46,2.5-1.82
			c1.05-0.37,2.39-0.55,4-0.55c1.2,0,2.27,0.1,3.21,0.29c0.94,0.19,1.75,0.52,2.44,0.99s1.24,1.11,1.65,1.93h0.22V996.2h3.6v32.64
			h-3.21l-0.18-3.21h-0.26c-0.41,1.03-1,1.79-1.78,2.31c-0.78,0.51-1.65,0.85-2.61,1.01C760.39,1029.12,759.4,1029.2,758.37,1029.2z
			 M759.78,1026.03c1.49,0,2.68-0.2,3.56-0.61c0.88-0.41,1.49-1.05,1.85-1.93c0.29-0.82,0.47-1.71,0.53-2.68
			c0.06-0.97,0.09-2.11,0.09-3.43c0-1.08-0.03-2.07-0.09-2.97c-0.06-0.89-0.22-1.68-0.48-2.35c-0.38-0.99-1.01-1.71-1.89-2.13
			c-0.88-0.42-2.09-0.64-3.65-0.64c-1.32,0-2.37,0.09-3.16,0.26c-0.79,0.18-1.39,0.55-1.8,1.12c-0.41,0.57-0.69,1.4-0.83,2.5
			c-0.15,1.1-0.22,2.58-0.22,4.46s0.07,3.37,0.22,4.48c0.15,1.11,0.42,1.95,0.83,2.5s1.02,0.93,1.82,1.12
			C757.36,1025.94,758.43,1026.03,759.78,1026.03z"/>
		<path class="st3" d="M785.66,1029.2c-1.82,0-3.33-0.12-4.55-0.35s-2.19-0.62-2.92-1.16c-0.73-0.54-1.29-1.26-1.67-2.15
			c-0.38-0.89-0.63-1.98-0.75-3.27c-0.12-1.29-0.18-2.81-0.18-4.57c0-2.08,0.09-3.86,0.26-5.34c0.18-1.48,0.58-2.68,1.21-3.6
			c0.63-0.92,1.62-1.6,2.97-2.02c1.35-0.42,3.16-0.64,5.45-0.64c1.73,0,3.14,0.13,4.24,0.4c1.1,0.26,1.97,0.67,2.61,1.23
			c0.64,0.56,1.12,1.3,1.43,2.22c0.31,0.92,0.51,2.02,0.59,3.29c0.09,1.27,0.13,2.75,0.13,4.42v1.19h-15.33
			c0,1.52,0.07,2.77,0.22,3.74c0.15,0.97,0.45,1.71,0.9,2.24c0.45,0.53,1.17,0.89,2.15,1.1c0.98,0.21,2.32,0.31,4.02,0.31
			c0.7,0,1.48-0.02,2.33-0.07c0.85-0.04,1.7-0.11,2.55-0.2c0.85-0.09,1.61-0.17,2.28-0.26v2.9c-0.62,0.12-1.37,0.22-2.26,0.31
			c-0.89,0.09-1.83,0.16-2.81,0.22C787.55,1029.17,786.59,1029.2,785.66,1029.2z M791.02,1017.03v-1.19c0-1.52-0.09-2.73-0.26-3.62
			c-0.18-0.89-0.48-1.57-0.9-2.02c-0.42-0.45-1-0.75-1.74-0.9c-0.73-0.15-1.64-0.22-2.72-0.22c-1.41,0-2.52,0.09-3.34,0.29
			s-1.44,0.53-1.85,1.03c-0.41,0.5-0.69,1.22-0.83,2.15c-0.15,0.94-0.22,2.18-0.22,3.74h12.7L791.02,1017.03z"/>
		<path class="st3" d="M800.64,1028.85v-22.41h3.21l0.18,4.31h0.26c0.38-1.26,0.92-2.23,1.63-2.9c0.7-0.67,1.55-1.14,2.55-1.38
			c0.99-0.25,2.09-0.37,3.29-0.37v3.51c-2.02,0-3.57,0.32-4.66,0.97c-1.08,0.65-1.83,1.64-2.24,2.99c-0.41,1.35-0.62,3.05-0.62,5.1
			v10.19H800.64z"/>
		<path class="st3" d="M835.34,1029.2c-1.82,0-3.33-0.12-4.55-0.35s-2.19-0.62-2.92-1.16c-0.73-0.54-1.29-1.26-1.67-2.15
			c-0.38-0.89-0.63-1.98-0.75-3.27c-0.12-1.29-0.18-2.81-0.18-4.57c0-2.08,0.09-3.86,0.26-5.34c0.18-1.48,0.58-2.68,1.21-3.6
			c0.63-0.92,1.62-1.6,2.97-2.02c1.35-0.42,3.16-0.64,5.45-0.64c1.73,0,3.14,0.13,4.24,0.4c1.1,0.26,1.97,0.67,2.61,1.23
			c0.64,0.56,1.12,1.3,1.43,2.22c0.31,0.92,0.51,2.02,0.59,3.29c0.09,1.27,0.13,2.75,0.13,4.42v1.19h-15.33
			c0,1.52,0.07,2.77,0.22,3.74c0.15,0.97,0.45,1.71,0.9,2.24c0.45,0.53,1.17,0.89,2.15,1.1c0.98,0.21,2.32,0.31,4.02,0.31
			c0.7,0,1.48-0.02,2.33-0.07c0.85-0.04,1.7-0.11,2.55-0.2c0.85-0.09,1.61-0.17,2.28-0.26v2.9c-0.62,0.12-1.37,0.22-2.26,0.31
			c-0.89,0.09-1.83,0.16-2.81,0.22C837.24,1029.17,836.28,1029.2,835.34,1029.2z M840.7,1017.03v-1.19c0-1.52-0.09-2.73-0.26-3.62
			c-0.18-0.89-0.48-1.57-0.9-2.02c-0.42-0.45-1-0.75-1.74-0.9c-0.73-0.15-1.64-0.22-2.72-0.22c-1.41,0-2.52,0.09-3.34,0.29
			s-1.44,0.53-1.85,1.03c-0.41,0.5-0.69,1.22-0.83,2.15c-0.15,0.94-0.22,2.18-0.22,3.74h12.7L840.7,1017.03z"/>
		<path class="st3" d="M850.32,1028.85v-22.41h3.25l0.13,3.21h0.26c0.26-0.7,0.67-1.32,1.21-1.85c0.54-0.53,1.26-0.94,2.15-1.25
			c0.89-0.31,2.04-0.46,3.45-0.46c1.99,0,3.47,0.29,4.44,0.86c0.97,0.57,1.64,1.47,2.02,2.7h0.26c0.29-0.7,0.72-1.32,1.27-1.85
			c0.56-0.53,1.3-0.94,2.24-1.25c0.94-0.31,2.09-0.46,3.47-0.46c2.02,0,3.53,0.31,4.52,0.92c1,0.61,1.65,1.57,1.98,2.86
			c0.32,1.29,0.48,2.94,0.48,4.96v14.02h-3.56v-12.78c0-1.52-0.06-2.73-0.18-3.62c-0.12-0.89-0.34-1.57-0.66-2.02
			c-0.32-0.45-0.81-0.75-1.45-0.9c-0.64-0.15-1.51-0.22-2.59-0.22c-1.26,0-2.26,0.17-2.99,0.5c-0.73,0.34-1.27,0.84-1.6,1.52
			c-0.34,0.67-0.55,1.51-0.64,2.5s-0.13,2.15-0.13,3.47v11.55h-3.56v-12.78c0-1.52-0.06-2.73-0.18-3.62
			c-0.12-0.89-0.34-1.57-0.66-2.02c-0.32-0.45-0.81-0.75-1.45-0.9c-0.64-0.15-1.51-0.22-2.59-0.22c-1.26,0-2.26,0.18-2.99,0.55
			c-0.73,0.37-1.26,0.89-1.58,1.56c-0.32,0.67-0.53,1.51-0.62,2.5c-0.09,1-0.13,2.12-0.13,3.38v11.55H850.32z"/>
		<path class="st3" d="M905.99,1029.2c-0.85,0-1.76-0.03-2.72-0.09c-0.97-0.06-1.92-0.13-2.86-0.2c-0.94-0.07-1.79-0.17-2.55-0.29
			v-2.9c0.7,0.06,1.38,0.12,2.04,0.18c0.66,0.06,1.31,0.11,1.95,0.15c0.64,0.04,1.29,0.07,1.93,0.09c0.64,0.01,1.3,0.02,1.98,0.02
			c1.52,0,2.63-0.11,3.32-0.33c0.69-0.22,1.14-0.59,1.36-1.12c0.22-0.53,0.33-1.21,0.33-2.06c0-0.97-0.08-1.67-0.24-2.11
			c-0.16-0.44-0.44-0.72-0.83-0.86c-0.4-0.13-0.99-0.24-1.78-0.33l-5.8-0.66c-1.38-0.15-2.42-0.45-3.12-0.9
			c-0.7-0.45-1.19-1.11-1.45-1.96c-0.26-0.85-0.4-1.92-0.4-3.21c0-1.46,0.2-2.64,0.62-3.51c0.41-0.88,1-1.54,1.76-1.98
			c0.76-0.44,1.68-0.72,2.77-0.86c1.08-0.13,2.3-0.2,3.65-0.2c0.76,0,1.57,0.03,2.42,0.09c0.85,0.06,1.68,0.13,2.5,0.22
			c0.82,0.09,1.52,0.19,2.11,0.31v2.9c-0.76-0.12-1.53-0.21-2.31-0.29c-0.78-0.07-1.57-0.12-2.37-0.15
			c-0.81-0.03-1.62-0.04-2.44-0.04c-1.11,0-2.06,0.06-2.86,0.18c-0.79,0.12-1.38,0.41-1.78,0.88c-0.4,0.47-0.59,1.24-0.59,2.33
			c0,0.85,0.07,1.49,0.2,1.91c0.13,0.42,0.4,0.72,0.81,0.88c0.41,0.16,0.98,0.29,1.71,0.37l6.06,0.66c1.2,0.12,2.15,0.34,2.83,0.68
			c0.69,0.34,1.19,0.93,1.49,1.78c0.31,0.85,0.46,2.12,0.46,3.82c0,1.41-0.17,2.54-0.5,3.4c-0.34,0.86-0.86,1.53-1.56,2
			c-0.7,0.47-1.57,0.78-2.59,0.94C908.52,1029.12,907.33,1029.2,905.99,1029.2z"/>
		<path class="st3" d="M928.88,1029.2c-1.84,0-3.38-0.11-4.59-0.33c-1.22-0.22-2.17-0.58-2.88-1.08c-0.7-0.5-1.22-1.19-1.56-2.07
			c-0.34-0.88-0.55-1.98-0.64-3.32c-0.09-1.33-0.13-2.92-0.13-4.77c0-1.85,0.04-3.43,0.13-4.77c0.09-1.33,0.3-2.44,0.64-3.32
			c0.34-0.88,0.86-1.57,1.56-2.07c0.7-0.5,1.66-0.86,2.88-1.08c1.22-0.22,2.75-0.33,4.59-0.33c1.87,0,3.41,0.11,4.61,0.33
			c1.2,0.22,2.16,0.58,2.88,1.08c0.72,0.5,1.24,1.19,1.58,2.07c0.34,0.88,0.55,1.98,0.64,3.32c0.09,1.33,0.13,2.92,0.13,4.77
			c0,1.84-0.04,3.43-0.13,4.77c-0.09,1.33-0.3,2.44-0.64,3.32c-0.34,0.88-0.86,1.57-1.58,2.07c-0.72,0.5-1.68,0.86-2.88,1.08
			C932.29,1029.09,930.75,1029.2,928.88,1029.2z M928.88,1026.17c1.58,0,2.8-0.1,3.65-0.31c0.85-0.21,1.46-0.6,1.82-1.19
			c0.37-0.59,0.59-1.44,0.66-2.57c0.07-1.13,0.11-2.61,0.11-4.46c0-1.85-0.04-3.33-0.11-4.46c-0.07-1.13-0.29-1.98-0.66-2.57
			c-0.37-0.59-0.97-0.98-1.82-1.19c-0.85-0.2-2.07-0.31-3.65-0.31c-1.55,0-2.76,0.1-3.62,0.31c-0.86,0.21-1.47,0.6-1.82,1.19
			c-0.35,0.59-0.57,1.44-0.66,2.57c-0.09,1.13-0.13,2.61-0.13,4.46c0,1.84,0.04,3.33,0.13,4.46s0.31,1.98,0.66,2.57
			s0.96,0.98,1.82,1.19C926.11,1026.06,927.32,1026.17,928.88,1026.17z"/>
		<path class="st3" d="M944.91,1028.85V996.2h3.6v32.64H944.91z"/>
		<path class="st3" d="M963.27,1029.2c-1.64,0-2.97-0.18-3.98-0.53c-1.01-0.35-1.78-0.88-2.31-1.58c-0.53-0.7-0.89-1.6-1.08-2.7
			c-0.19-1.1-0.29-2.41-0.29-3.93v-14.02h3.6v12.78c0,1.49,0.06,2.69,0.18,3.6c0.12,0.91,0.37,1.59,0.77,2.04
			c0.4,0.45,0.96,0.76,1.69,0.9c0.73,0.15,1.68,0.22,2.86,0.22c1.46,0,2.61-0.18,3.43-0.55c0.82-0.37,1.41-0.89,1.78-1.58
			c0.37-0.69,0.6-1.52,0.7-2.5c0.1-0.98,0.15-2.1,0.15-3.36v-11.55h3.56v22.41h-3.21l-0.13-3.21h-0.31c-0.29,0.7-0.73,1.32-1.3,1.85
			c-0.57,0.53-1.35,0.94-2.35,1.25S964.8,1029.2,963.27,1029.2z"/>
		<path class="st3" d="M989.68,1029.2c-1.7,0-3.1-0.15-4.2-0.44c-1.1-0.29-1.98-0.73-2.64-1.32c-0.66-0.58-1.15-1.33-1.47-2.24
			c-0.32-0.91-0.53-1.99-0.64-3.25c-0.1-1.26-0.15-2.69-0.15-4.3c0-1.67,0.07-3.13,0.2-4.39c0.13-1.26,0.38-2.35,0.75-3.27
			c0.37-0.92,0.88-1.66,1.54-2.22s1.52-0.97,2.57-1.25c1.05-0.28,2.36-0.42,3.91-0.42c1.02,0,2.1,0.05,3.23,0.15
			c1.13,0.1,2.06,0.24,2.79,0.42v2.9c-0.67-0.12-1.5-0.22-2.48-0.31c-0.98-0.09-1.87-0.13-2.66-0.13c-1.38,0-2.48,0.12-3.32,0.35
			c-0.83,0.23-1.47,0.66-1.89,1.27c-0.42,0.62-0.71,1.48-0.86,2.59c-0.15,1.11-0.22,2.55-0.22,4.31c0,1.79,0.07,3.24,0.22,4.37
			c0.15,1.13,0.45,1.99,0.9,2.59c0.45,0.6,1.1,1.01,1.93,1.23c0.83,0.22,1.94,0.33,3.32,0.33c0.82,0,1.71-0.04,2.68-0.13
			c0.97-0.09,1.83-0.19,2.59-0.31v2.9c-0.73,0.15-1.67,0.28-2.81,0.4C991.83,1029.14,990.73,1029.2,989.68,1029.2z M985.77,1037.19
			v-0.22l2.99-8.92h2.42v0.22l-1.85,8.92H985.77z"/>
		<path class="st3" d="M1010.15,1029.2c-1.84,0-3.38-0.11-4.59-0.33c-1.22-0.22-2.17-0.58-2.88-1.08c-0.7-0.5-1.22-1.19-1.56-2.07
			c-0.34-0.88-0.55-1.98-0.64-3.32c-0.09-1.33-0.13-2.92-0.13-4.77c0-1.85,0.04-3.43,0.13-4.77c0.09-1.33,0.3-2.44,0.64-3.32
			c0.34-0.88,0.86-1.57,1.56-2.07c0.7-0.5,1.66-0.86,2.88-1.08c1.22-0.22,2.75-0.33,4.59-0.33c1.87,0,3.41,0.11,4.61,0.33
			c1.2,0.22,2.16,0.58,2.88,1.08c0.72,0.5,1.24,1.19,1.58,2.07c0.34,0.88,0.55,1.98,0.64,3.32c0.09,1.33,0.13,2.92,0.13,4.77
			c0,1.84-0.04,3.43-0.13,4.77c-0.09,1.33-0.3,2.44-0.64,3.32c-0.34,0.88-0.86,1.57-1.58,2.07c-0.72,0.5-1.68,0.86-2.88,1.08
			C1013.56,1029.09,1012.03,1029.2,1010.15,1029.2z M1002.64,1002.4c0-1.14,0.07-2.08,0.2-2.81c0.13-0.73,0.43-1.28,0.9-1.65
			c0.47-0.37,1.19-0.55,2.15-0.55c0.82,0,1.63,0.11,2.42,0.33s1.58,0.46,2.37,0.73c0.61,0.2,1.21,0.4,1.78,0.57
			c0.57,0.17,1.15,0.26,1.74,0.26c0.64,0,1.03-0.17,1.16-0.5c0.13-0.34,0.2-0.96,0.2-1.87h2.07c0,1.14-0.07,2.08-0.2,2.81
			s-0.42,1.28-0.88,1.65c-0.45,0.37-1.17,0.55-2.13,0.55c-0.88,0-1.69-0.12-2.44-0.35c-0.75-0.23-1.53-0.47-2.35-0.7
			c-0.62-0.2-1.22-0.4-1.8-0.57c-0.59-0.18-1.16-0.26-1.71-0.26c-0.65,0-1.03,0.17-1.17,0.51c-0.13,0.34-0.2,0.96-0.2,1.87H1002.64z
			 M1010.15,1026.17c1.58,0,2.8-0.1,3.65-0.31c0.85-0.21,1.46-0.6,1.82-1.19c0.37-0.59,0.59-1.44,0.66-2.57
			c0.07-1.13,0.11-2.61,0.11-4.46c0-1.85-0.04-3.33-0.11-4.46c-0.07-1.13-0.29-1.98-0.66-2.57c-0.37-0.59-0.97-0.98-1.82-1.19
			c-0.85-0.2-2.07-0.31-3.65-0.31c-1.55,0-2.76,0.1-3.62,0.31c-0.86,0.21-1.47,0.6-1.82,1.19c-0.35,0.59-0.57,1.44-0.66,2.57
			c-0.09,1.13-0.13,2.61-0.13,4.46c0,1.84,0.04,3.33,0.13,4.46s0.31,1.98,0.66,2.57s0.96,0.98,1.82,1.19
			C1007.39,1026.06,1008.6,1026.17,1010.15,1026.17z"/>
		<path class="st3" d="M1035.32,1029.2c-1.82,0-3.33-0.12-4.55-0.35c-1.22-0.23-2.19-0.62-2.92-1.16c-0.73-0.54-1.29-1.26-1.67-2.15
			c-0.38-0.89-0.63-1.98-0.75-3.27c-0.12-1.29-0.18-2.81-0.18-4.57c0-2.08,0.09-3.86,0.26-5.34c0.18-1.48,0.58-2.68,1.21-3.6
			c0.63-0.92,1.62-1.6,2.97-2.02c1.35-0.42,3.16-0.64,5.45-0.64c1.73,0,3.14,0.13,4.24,0.4c1.1,0.26,1.97,0.67,2.61,1.23
			c0.64,0.56,1.12,1.3,1.43,2.22c0.31,0.92,0.5,2.02,0.59,3.29c0.09,1.27,0.13,2.75,0.13,4.42v1.19h-15.33
			c0,1.52,0.07,2.77,0.22,3.74c0.15,0.97,0.45,1.71,0.9,2.24c0.45,0.53,1.17,0.89,2.15,1.1c0.98,0.21,2.32,0.31,4.02,0.31
			c0.7,0,1.48-0.02,2.33-0.07c0.85-0.04,1.7-0.11,2.55-0.2c0.85-0.09,1.61-0.17,2.28-0.26v2.9c-0.62,0.12-1.37,0.22-2.26,0.31
			c-0.89,0.09-1.83,0.16-2.81,0.22C1037.22,1029.17,1036.26,1029.2,1035.32,1029.2z M1040.69,1017.03v-1.19
			c0-1.52-0.09-2.73-0.26-3.62c-0.18-0.89-0.48-1.57-0.9-2.02c-0.42-0.45-1-0.75-1.74-0.9c-0.73-0.15-1.64-0.22-2.72-0.22
			c-1.41,0-2.52,0.09-3.34,0.29c-0.82,0.19-1.43,0.53-1.84,1.03c-0.41,0.5-0.69,1.22-0.83,2.15c-0.15,0.94-0.22,2.18-0.22,3.74h12.7
			L1040.69,1017.03z"/>
		<path class="st3" d="M1057.78,1029.2c-0.85,0-1.76-0.03-2.72-0.09c-0.97-0.06-1.92-0.13-2.86-0.2c-0.94-0.07-1.79-0.17-2.55-0.29
			v-2.9c0.7,0.06,1.38,0.12,2.04,0.18c0.66,0.06,1.31,0.11,1.96,0.15c0.64,0.04,1.29,0.07,1.93,0.09c0.64,0.01,1.3,0.02,1.98,0.02
			c1.52,0,2.63-0.11,3.32-0.33c0.69-0.22,1.14-0.59,1.36-1.12c0.22-0.53,0.33-1.21,0.33-2.06c0-0.97-0.08-1.67-0.24-2.11
			c-0.16-0.44-0.44-0.72-0.83-0.86c-0.4-0.13-0.99-0.24-1.78-0.33l-5.8-0.66c-1.38-0.15-2.42-0.45-3.12-0.9
			c-0.7-0.45-1.19-1.11-1.45-1.96c-0.26-0.85-0.4-1.92-0.4-3.21c0-1.46,0.21-2.64,0.62-3.51c0.41-0.88,0.99-1.54,1.76-1.98
			c0.76-0.44,1.68-0.72,2.77-0.86c1.08-0.13,2.3-0.2,3.65-0.2c0.76,0,1.57,0.03,2.42,0.09c0.85,0.06,1.68,0.13,2.5,0.22
			s1.52,0.19,2.11,0.31v2.9c-0.76-0.12-1.53-0.21-2.31-0.29c-0.78-0.07-1.57-0.12-2.37-0.15c-0.81-0.03-1.62-0.04-2.44-0.04
			c-1.11,0-2.07,0.06-2.86,0.18c-0.79,0.12-1.38,0.41-1.78,0.88c-0.4,0.47-0.59,1.24-0.59,2.33c0,0.85,0.07,1.49,0.2,1.91
			c0.13,0.42,0.4,0.72,0.81,0.88c0.41,0.16,0.98,0.29,1.71,0.37l6.06,0.66c1.2,0.12,2.15,0.34,2.83,0.68
			c0.69,0.34,1.19,0.93,1.49,1.78c0.31,0.85,0.46,2.12,0.46,3.82c0,1.41-0.17,2.54-0.5,3.4c-0.34,0.86-0.86,1.53-1.56,2
			c-0.7,0.47-1.57,0.78-2.59,0.94C1060.31,1029.12,1059.12,1029.2,1057.78,1029.2z"/>
		<path class="st3" d="M1089.01,1029.2c-1.61,0-2.95-0.18-4.02-0.53c-1.07-0.35-1.91-0.96-2.53-1.82c-0.61-0.86-1.05-2.04-1.32-3.54
			c-0.26-1.49-0.4-3.37-0.4-5.62c0-2.28,0.12-4.18,0.37-5.69c0.25-1.51,0.68-2.69,1.3-3.54c0.61-0.85,1.45-1.46,2.5-1.82
			c1.05-0.37,2.39-0.55,4-0.55c1.2,0,2.27,0.1,3.21,0.29c0.94,0.19,1.75,0.52,2.44,0.99c0.69,0.47,1.24,1.11,1.65,1.93h0.22V996.2
			h3.6v32.64h-3.21l-0.18-3.21h-0.26c-0.41,1.03-1,1.79-1.78,2.31c-0.78,0.51-1.65,0.85-2.61,1.01
			C1091.03,1029.12,1090.03,1029.2,1089.01,1029.2z M1090.42,1026.03c1.49,0,2.68-0.2,3.56-0.61c0.88-0.41,1.49-1.05,1.85-1.93
			c0.29-0.82,0.47-1.71,0.53-2.68c0.06-0.97,0.09-2.11,0.09-3.43c0-1.08-0.03-2.07-0.09-2.97c-0.06-0.89-0.22-1.68-0.48-2.35
			c-0.38-0.99-1.01-1.71-1.89-2.13c-0.88-0.42-2.09-0.64-3.65-0.64c-1.32,0-2.37,0.09-3.16,0.26c-0.79,0.18-1.39,0.55-1.8,1.12
			c-0.41,0.57-0.69,1.4-0.83,2.5c-0.15,1.1-0.22,2.58-0.22,4.46s0.07,3.37,0.22,4.48c0.15,1.11,0.42,1.95,0.83,2.5
			c0.41,0.56,1.02,0.93,1.82,1.12C1087.99,1025.94,1089.07,1026.03,1090.42,1026.03z"/>
		<path class="st3" d="M1116.29,1029.2c-1.82,0-3.33-0.12-4.55-0.35s-2.19-0.62-2.92-1.16c-0.73-0.54-1.29-1.26-1.67-2.15
			c-0.38-0.89-0.63-1.98-0.75-3.27c-0.12-1.29-0.18-2.81-0.18-4.57c0-2.08,0.09-3.86,0.26-5.34c0.18-1.48,0.58-2.68,1.21-3.6
			c0.63-0.92,1.62-1.6,2.97-2.02c1.35-0.42,3.16-0.64,5.45-0.64c1.73,0,3.14,0.13,4.24,0.4c1.1,0.26,1.97,0.67,2.61,1.23
			c0.64,0.56,1.12,1.3,1.43,2.22c0.31,0.92,0.5,2.02,0.59,3.29c0.09,1.27,0.13,2.75,0.13,4.42v1.19h-15.33
			c0,1.52,0.07,2.77,0.22,3.74c0.15,0.97,0.45,1.71,0.9,2.24c0.45,0.53,1.17,0.89,2.15,1.1c0.98,0.21,2.32,0.31,4.02,0.31
			c0.7,0,1.48-0.02,2.33-0.07c0.85-0.04,1.7-0.11,2.55-0.2c0.85-0.09,1.61-0.17,2.28-0.26v2.9c-0.62,0.12-1.37,0.22-2.26,0.31
			c-0.89,0.09-1.83,0.16-2.81,0.22C1118.19,1029.17,1117.23,1029.2,1116.29,1029.2z M1121.65,1017.03v-1.19
			c0-1.52-0.09-2.73-0.26-3.62c-0.18-0.89-0.48-1.57-0.9-2.02c-0.42-0.45-1-0.75-1.73-0.9c-0.73-0.15-1.64-0.22-2.72-0.22
			c-1.4,0-2.52,0.09-3.34,0.29c-0.82,0.19-1.43,0.53-1.84,1.03c-0.41,0.5-0.69,1.22-0.83,2.15c-0.15,0.94-0.22,2.18-0.22,3.74h12.7
			L1121.65,1017.03z"/>
		<path class="st3" d="M1141.16,1037.59v-31.15h3.25l0.13,3.21h0.26c0.44-1,1.04-1.76,1.8-2.28c0.76-0.53,1.63-0.87,2.59-1.03
			c0.97-0.16,1.96-0.24,2.99-0.24c1.61,0,2.95,0.18,4.02,0.53c1.07,0.35,1.91,0.96,2.53,1.82c0.62,0.86,1.05,2.04,1.32,3.54
			c0.26,1.49,0.4,3.37,0.4,5.62c0,2.29-0.12,4.18-0.37,5.69c-0.25,1.51-0.68,2.69-1.3,3.54c-0.62,0.85-1.45,1.46-2.5,1.82
			c-1.05,0.37-2.39,0.55-4,0.55c-1.2,0-2.27-0.1-3.21-0.29c-0.94-0.19-1.75-0.52-2.44-0.99c-0.69-0.47-1.24-1.11-1.65-1.93h-0.22
			v11.6H1141.16z M1150.78,1025.99c1.35,0,2.42-0.09,3.23-0.26c0.81-0.18,1.41-0.55,1.82-1.12c0.41-0.57,0.69-1.41,0.83-2.5
			c0.15-1.1,0.22-2.58,0.22-4.46s-0.07-3.37-0.22-4.48c-0.15-1.11-0.42-1.95-0.83-2.5c-0.41-0.56-1.02-0.93-1.82-1.12
			c-0.81-0.19-1.88-0.29-3.23-0.29c-1.49,0-2.67,0.21-3.54,0.64c-0.86,0.42-1.49,1.09-1.87,2c-0.29,0.7-0.47,1.54-0.53,2.5
			c-0.06,0.97-0.09,2.05-0.09,3.25c0,1.23,0.03,2.31,0.09,3.23c0.06,0.92,0.2,1.69,0.44,2.31c0.41,1.03,1.05,1.75,1.93,2.17
			C1148.1,1025.78,1149.29,1025.99,1150.78,1025.99z"/>
		<path class="st3" d="M1166.64,1028.85v-22.41h3.21l0.17,4.31h0.26c0.38-1.26,0.92-2.23,1.63-2.9c0.7-0.67,1.55-1.14,2.55-1.38
			c1-0.25,2.09-0.37,3.3-0.37v3.51c-2.02,0-3.57,0.32-4.66,0.97c-1.08,0.65-1.83,1.64-2.24,2.99c-0.41,1.35-0.61,3.05-0.61,5.1
			v10.19H1166.64z"/>
		<path class="st3" d="M1191.46,1029.2c-1.82,0-3.33-0.12-4.55-0.35s-2.19-0.62-2.92-1.16c-0.73-0.54-1.29-1.26-1.67-2.15
			c-0.38-0.89-0.63-1.98-0.75-3.27c-0.12-1.29-0.18-2.81-0.18-4.57c0-2.08,0.09-3.86,0.26-5.34c0.18-1.48,0.58-2.68,1.21-3.6
			c0.63-0.92,1.62-1.6,2.97-2.02c1.35-0.42,3.16-0.64,5.45-0.64c1.73,0,3.14,0.13,4.24,0.4c1.1,0.26,1.97,0.67,2.61,1.23
			c0.64,0.56,1.12,1.3,1.43,2.22c0.31,0.92,0.5,2.02,0.59,3.29c0.09,1.27,0.13,2.75,0.13,4.42v1.19h-15.33
			c0,1.52,0.07,2.77,0.22,3.74c0.15,0.97,0.45,1.71,0.9,2.24c0.45,0.53,1.17,0.89,2.15,1.1c0.98,0.21,2.32,0.31,4.02,0.31
			c0.7,0,1.48-0.02,2.33-0.07c0.85-0.04,1.7-0.11,2.55-0.2c0.85-0.09,1.61-0.17,2.28-0.26v2.9c-0.62,0.12-1.37,0.22-2.26,0.31
			c-0.89,0.09-1.83,0.16-2.81,0.22C1193.36,1029.17,1192.4,1029.2,1191.46,1029.2z M1196.82,1017.03v-1.19
			c0-1.52-0.09-2.73-0.26-3.62c-0.18-0.89-0.48-1.57-0.9-2.02c-0.42-0.45-1-0.75-1.74-0.9c-0.73-0.15-1.64-0.22-2.72-0.22
			c-1.41,0-2.52,0.09-3.34,0.29s-1.43,0.53-1.84,1.03c-0.41,0.5-0.69,1.22-0.83,2.15c-0.15,0.94-0.22,2.18-0.22,3.74h12.7
			L1196.82,1017.03z"/>
		<path class="st3" d="M1213.91,1029.2c-0.85,0-1.76-0.03-2.72-0.09c-0.97-0.06-1.92-0.13-2.86-0.2c-0.94-0.07-1.79-0.17-2.55-0.29
			v-2.9c0.7,0.06,1.38,0.12,2.04,0.18c0.66,0.06,1.31,0.11,1.96,0.15c0.64,0.04,1.29,0.07,1.93,0.09c0.64,0.01,1.3,0.02,1.98,0.02
			c1.52,0,2.63-0.11,3.32-0.33c0.69-0.22,1.14-0.59,1.36-1.12c0.22-0.53,0.33-1.21,0.33-2.06c0-0.97-0.08-1.67-0.24-2.11
			c-0.16-0.44-0.44-0.72-0.83-0.86c-0.4-0.13-0.99-0.24-1.78-0.33l-5.8-0.66c-1.38-0.15-2.42-0.45-3.12-0.9
			c-0.7-0.45-1.19-1.11-1.45-1.96c-0.26-0.85-0.4-1.92-0.4-3.21c0-1.46,0.21-2.64,0.62-3.51c0.41-0.88,0.99-1.54,1.76-1.98
			c0.76-0.44,1.68-0.72,2.77-0.86c1.08-0.13,2.3-0.2,3.65-0.2c0.76,0,1.57,0.03,2.42,0.09c0.85,0.06,1.68,0.13,2.5,0.22
			c0.82,0.09,1.52,0.19,2.11,0.31v2.9c-0.76-0.12-1.53-0.21-2.31-0.29c-0.78-0.07-1.57-0.12-2.37-0.15
			c-0.81-0.03-1.62-0.04-2.44-0.04c-1.11,0-2.07,0.06-2.86,0.18c-0.79,0.12-1.38,0.41-1.78,0.88c-0.4,0.47-0.59,1.24-0.59,2.33
			c0,0.85,0.07,1.49,0.2,1.91c0.13,0.42,0.4,0.72,0.81,0.88c0.41,0.16,0.98,0.29,1.71,0.37l6.06,0.66c1.2,0.12,2.15,0.34,2.83,0.68
			c0.69,0.34,1.19,0.93,1.49,1.78c0.31,0.85,0.46,2.12,0.46,3.82c0,1.41-0.17,2.54-0.5,3.4c-0.34,0.86-0.86,1.53-1.56,2
			c-0.7,0.47-1.57,0.78-2.59,0.94C1216.44,1029.12,1215.26,1029.2,1213.91,1029.2z"/>
		<path class="st3" d="M1237.06,1029.2c-1.82,0-3.33-0.12-4.55-0.35s-2.19-0.62-2.92-1.16c-0.73-0.54-1.29-1.26-1.67-2.15
			c-0.38-0.89-0.63-1.98-0.75-3.27c-0.12-1.29-0.18-2.81-0.18-4.57c0-2.08,0.09-3.86,0.26-5.34c0.18-1.48,0.58-2.68,1.21-3.6
			c0.63-0.92,1.62-1.6,2.97-2.02c1.35-0.42,3.16-0.64,5.45-0.64c1.73,0,3.14,0.13,4.24,0.4c1.1,0.26,1.97,0.67,2.61,1.23
			c0.64,0.56,1.12,1.3,1.43,2.22c0.31,0.92,0.5,2.02,0.59,3.29c0.09,1.27,0.13,2.75,0.13,4.42v1.19h-15.33
			c0,1.52,0.07,2.77,0.22,3.74c0.15,0.97,0.45,1.71,0.9,2.24c0.45,0.53,1.17,0.89,2.15,1.1c0.98,0.21,2.32,0.31,4.02,0.31
			c0.7,0,1.48-0.02,2.33-0.07c0.85-0.04,1.7-0.11,2.55-0.2c0.85-0.09,1.61-0.17,2.28-0.26v2.9c-0.62,0.12-1.37,0.22-2.26,0.31
			c-0.89,0.09-1.83,0.16-2.81,0.22C1238.96,1029.17,1238,1029.2,1237.06,1029.2z M1242.42,1017.03v-1.19c0-1.52-0.09-2.73-0.26-3.62
			c-0.18-0.89-0.48-1.57-0.9-2.02c-0.42-0.45-1-0.75-1.73-0.9c-0.73-0.15-1.64-0.22-2.72-0.22c-1.4,0-2.52,0.09-3.34,0.29
			c-0.82,0.19-1.43,0.53-1.84,1.03c-0.41,0.5-0.69,1.22-0.83,2.15c-0.15,0.94-0.22,2.18-0.22,3.74h12.7L1242.42,1017.03z"/>
		<path class="st3" d="M1252.04,1028.85v-22.41h3.25l0.13,3.21h0.26c0.32-0.7,0.77-1.32,1.34-1.85c0.57-0.53,1.35-0.94,2.33-1.25
			c0.98-0.31,2.23-0.46,3.76-0.46c1.67,0,3,0.18,4,0.53c0.99,0.35,1.76,0.88,2.31,1.58c0.54,0.7,0.9,1.6,1.08,2.7
			c0.18,1.1,0.26,2.41,0.26,3.93v14.02h-3.56v-12.78c0-1.52-0.07-2.73-0.2-3.62c-0.13-0.89-0.39-1.57-0.77-2.02s-0.94-0.75-1.67-0.9
			c-0.73-0.15-1.7-0.22-2.9-0.22c-1.43,0-2.56,0.18-3.38,0.55c-0.82,0.37-1.42,0.89-1.8,1.58c-0.38,0.69-0.62,1.52-0.7,2.5
			c-0.09,0.98-0.13,2.1-0.13,3.36v11.55H1252.04z"/>
		<path class="st3" d="M1286.09,1029.2c-1.7,0-3.1-0.15-4.2-0.44c-1.1-0.29-1.98-0.73-2.64-1.32c-0.66-0.58-1.15-1.33-1.47-2.24
			c-0.32-0.91-0.53-1.99-0.64-3.25c-0.1-1.26-0.15-2.69-0.15-4.3c0-1.67,0.07-3.13,0.2-4.39c0.13-1.26,0.38-2.35,0.75-3.27
			c0.37-0.92,0.88-1.66,1.54-2.22s1.52-0.97,2.57-1.25c1.05-0.28,2.36-0.42,3.91-0.42c1.02,0,2.1,0.05,3.23,0.15
			c1.13,0.1,2.06,0.24,2.79,0.42v2.9c-0.67-0.12-1.5-0.22-2.48-0.31c-0.98-0.09-1.87-0.13-2.66-0.13c-1.38,0-2.48,0.12-3.32,0.35
			c-0.83,0.23-1.47,0.66-1.89,1.27c-0.42,0.62-0.71,1.48-0.86,2.59c-0.15,1.11-0.22,2.55-0.22,4.31c0,1.79,0.07,3.24,0.22,4.37
			c0.15,1.13,0.45,1.99,0.9,2.59c0.45,0.6,1.1,1.01,1.93,1.23c0.83,0.22,1.94,0.33,3.32,0.33c0.82,0,1.71-0.04,2.68-0.13
			c0.97-0.09,1.83-0.19,2.59-0.31v2.9c-0.73,0.15-1.67,0.28-2.81,0.4C1288.25,1029.14,1287.15,1029.2,1286.09,1029.2z
			 M1282.18,1037.19v-0.22l2.99-8.92h2.42v0.22l-1.85,8.92H1282.18z"/>
		<path class="st3" d="M1303.71,1029.2c-1.64,0-3.01-0.19-4.11-0.57c-1.1-0.38-1.92-1.04-2.46-1.98c-0.54-0.94-0.81-2.25-0.81-3.95
			c0-1.7,0.2-3.04,0.59-4.02c0.4-0.98,1.09-1.68,2.09-2.09c0.99-0.41,2.39-0.62,4.17-0.62c0.29,0,0.75,0.01,1.38,0.02
			c0.63,0.01,1.35,0.03,2.17,0.04c0.82,0.01,1.65,0.03,2.48,0.04c0.83,0.02,1.6,0.04,2.31,0.07v-1.41c0-1.32-0.08-2.35-0.24-3.1
			c-0.16-0.75-0.49-1.3-0.99-1.67c-0.5-0.37-1.19-0.6-2.09-0.7c-0.89-0.1-2.07-0.15-3.54-0.15c-0.64,0-1.4,0.02-2.28,0.07
			c-0.88,0.04-1.74,0.1-2.57,0.18c-0.83,0.07-1.5,0.15-2,0.24v-2.9c1.11-0.2,2.37-0.36,3.76-0.46c1.39-0.1,2.83-0.15,4.33-0.15
			c1.58,0,2.92,0.1,4.02,0.29c1.1,0.19,1.99,0.49,2.68,0.9c0.69,0.41,1.21,0.95,1.56,1.63c0.35,0.67,0.59,1.49,0.73,2.46
			c0.13,0.97,0.2,2.09,0.2,3.38v14.1h-3.21l-0.13-3.16h-0.26c-0.47,1.03-1.14,1.79-2,2.31c-0.86,0.51-1.81,0.84-2.83,0.99
			S1304.65,1029.2,1303.71,1029.2z M1305.03,1026.25c0.85,0,1.64-0.05,2.37-0.15c0.73-0.1,1.38-0.3,1.93-0.59
			c0.56-0.29,0.99-0.73,1.32-1.32c0.32-0.62,0.55-1.28,0.68-2c0.13-0.72,0.2-1.56,0.2-2.53v-1.14h-7.47c-1.14,0-2.02,0.09-2.64,0.26
			c-0.61,0.18-1.03,0.54-1.25,1.1c-0.22,0.56-0.33,1.39-0.33,2.5c0,1.08,0.13,1.9,0.4,2.46c0.26,0.56,0.77,0.93,1.52,1.12
			C1302.5,1026.16,1303.59,1026.25,1305.03,1026.25z"/>
		<path class="st3" d="M1341.01,1029.2c-1.84,0-3.38-0.11-4.59-0.33c-1.22-0.22-2.17-0.58-2.88-1.08c-0.7-0.5-1.22-1.19-1.56-2.07
			c-0.34-0.88-0.55-1.98-0.64-3.32c-0.09-1.33-0.13-2.92-0.13-4.77c0-1.85,0.04-3.43,0.13-4.77c0.09-1.33,0.3-2.44,0.64-3.32
			c0.34-0.88,0.86-1.57,1.56-2.07c0.7-0.5,1.66-0.86,2.88-1.08c1.22-0.22,2.75-0.33,4.59-0.33c1.87,0,3.41,0.11,4.61,0.33
			c1.2,0.22,2.16,0.58,2.88,1.08s1.24,1.19,1.58,2.07c0.34,0.88,0.55,1.98,0.64,3.32c0.09,1.33,0.13,2.92,0.13,4.77
			c0,1.84-0.04,3.43-0.13,4.77c-0.09,1.33-0.3,2.44-0.64,3.32c-0.34,0.88-0.86,1.57-1.58,2.07c-0.72,0.5-1.68,0.86-2.88,1.08
			C1344.42,1029.09,1342.88,1029.2,1341.01,1029.2z M1341.01,1026.17c1.58,0,2.8-0.1,3.65-0.31c0.85-0.21,1.46-0.6,1.82-1.19
			c0.37-0.59,0.59-1.44,0.66-2.57c0.07-1.13,0.11-2.61,0.11-4.46c0-1.85-0.04-3.33-0.11-4.46c-0.07-1.13-0.29-1.98-0.66-2.57
			c-0.37-0.59-0.97-0.98-1.82-1.19c-0.85-0.2-2.07-0.31-3.65-0.31c-1.55,0-2.76,0.1-3.62,0.31c-0.86,0.21-1.47,0.6-1.82,1.19
			c-0.35,0.59-0.57,1.44-0.66,2.57c-0.09,1.13-0.13,2.61-0.13,4.46c0,1.84,0.04,3.33,0.13,4.46c0.09,1.13,0.31,1.98,0.66,2.57
			s0.96,0.98,1.82,1.19C1338.25,1026.06,1339.46,1026.17,1341.01,1026.17z"/>
		<path class="st3" d="M1357.04,1028.85v-22.41h3.25l0.13,3.21h0.26c0.32-0.7,0.77-1.32,1.34-1.85c0.57-0.53,1.35-0.94,2.33-1.25
			c0.98-0.31,2.23-0.46,3.76-0.46c1.67,0,3,0.18,4,0.53c0.99,0.35,1.76,0.88,2.31,1.58c0.54,0.7,0.9,1.6,1.08,2.7
			c0.18,1.1,0.26,2.41,0.26,3.93v14.02h-3.56v-12.78c0-1.52-0.07-2.73-0.2-3.62c-0.13-0.89-0.39-1.57-0.77-2.02
			c-0.38-0.45-0.94-0.75-1.67-0.9c-0.73-0.15-1.7-0.22-2.9-0.22c-1.43,0-2.56,0.18-3.38,0.55c-0.82,0.37-1.42,0.89-1.8,1.58
			c-0.38,0.69-0.62,1.52-0.7,2.5c-0.09,0.98-0.13,2.1-0.13,3.36v11.55H1357.04z"/>
		<path class="st3" d="M1382.92,1028.85V996.2h3.6v32.64H1382.92z"/>
		<path class="st3" d="M1393.55,1000.11v-3.91h3.82v3.91H1393.55z M1393.64,1028.85v-22.41h3.6v22.41H1393.64z"/>
		<path class="st3" d="M1404.36,1028.85v-22.41h3.25l0.13,3.21h0.26c0.32-0.7,0.77-1.32,1.34-1.85c0.57-0.53,1.35-0.94,2.33-1.25
			c0.98-0.31,2.23-0.46,3.76-0.46c1.67,0,3,0.18,4,0.53c0.99,0.35,1.76,0.88,2.31,1.58c0.54,0.7,0.9,1.6,1.08,2.7
			c0.18,1.1,0.26,2.41,0.26,3.93v14.02h-3.56v-12.78c0-1.52-0.07-2.73-0.2-3.62c-0.13-0.89-0.39-1.57-0.77-2.02s-0.94-0.75-1.67-0.9
			c-0.73-0.15-1.7-0.22-2.9-0.22c-1.43,0-2.56,0.18-3.38,0.55c-0.82,0.37-1.42,0.89-1.8,1.58c-0.38,0.69-0.62,1.52-0.7,2.5
			c-0.09,0.98-0.13,2.1-0.13,3.36v11.55H1404.36z"/>
		<path class="st3" d="M1439.37,1029.2c-1.82,0-3.33-0.12-4.55-0.35s-2.19-0.62-2.92-1.16c-0.73-0.54-1.29-1.26-1.67-2.15
			c-0.38-0.89-0.63-1.98-0.75-3.27c-0.12-1.29-0.18-2.81-0.18-4.57c0-2.08,0.09-3.86,0.26-5.34c0.18-1.48,0.58-2.68,1.21-3.6
			c0.63-0.92,1.62-1.6,2.97-2.02c1.35-0.42,3.16-0.64,5.45-0.64c1.73,0,3.14,0.13,4.24,0.4c1.1,0.26,1.97,0.67,2.61,1.23
			c0.64,0.56,1.12,1.3,1.43,2.22c0.31,0.92,0.5,2.02,0.59,3.29c0.09,1.27,0.13,2.75,0.13,4.42v1.19h-15.33
			c0,1.52,0.07,2.77,0.22,3.74c0.15,0.97,0.45,1.71,0.9,2.24c0.45,0.53,1.17,0.89,2.15,1.1c0.98,0.21,2.32,0.31,4.02,0.31
			c0.7,0,1.48-0.02,2.33-0.07c0.85-0.04,1.7-0.11,2.55-0.2c0.85-0.09,1.61-0.17,2.28-0.26v2.9c-0.62,0.12-1.37,0.22-2.26,0.31
			c-0.89,0.09-1.83,0.16-2.81,0.22C1441.27,1029.17,1440.31,1029.2,1439.37,1029.2z M1444.73,1017.03v-1.19
			c0-1.52-0.09-2.73-0.26-3.62c-0.18-0.89-0.48-1.57-0.9-2.02c-0.42-0.45-1-0.75-1.74-0.9c-0.73-0.15-1.64-0.22-2.72-0.22
			c-1.4,0-2.52,0.09-3.34,0.29s-1.43,0.53-1.84,1.03c-0.41,0.5-0.69,1.22-0.83,2.15c-0.15,0.94-0.22,2.18-0.22,3.74h12.7
			L1444.73,1017.03z"/>
	</g>
	<g>
		<path class="st1" d="M714.21,984.09l21.13-98.89h40.39l4.6,51.89h1.15l26.74-51.89h40.39l-21.13,98.89h-28.32l12.79-59.65h-1.44
			l-30.18,59.65h-19.55l-4.89-59.65h-1.29l-12.79,59.65H714.21z"/>
		<path class="st1" d="M888.85,985.24c-10.16,0-18.16-0.7-24-2.08c-5.85-1.39-9.97-3.71-12.36-6.97c-2.4-3.26-3.59-7.66-3.59-13.22
			c0-3.64,0.48-7.88,1.44-12.72c0.96-4.84,2.06-10.42,3.31-16.75c1.53-8.05,3.02-14.95,4.46-20.7c1.44-5.75,3.21-10.47,5.32-14.16
			c2.11-3.69,4.86-6.61,8.26-8.77c3.4-2.16,7.81-3.67,13.22-4.53c5.41-0.86,12.24-1.29,20.48-1.29c10.16,0,18.09,0.7,23.79,2.08
			c5.7,1.39,9.72,3.71,12.07,6.97c2.35,3.26,3.52,7.72,3.52,13.37c0,3.74-0.38,7.98-1.15,12.72c-0.77,4.74-1.87,10.28-3.31,16.6
			c-1.72,8.15-3.38,15.09-4.96,20.84c-1.58,5.75-3.4,10.47-5.46,14.16c-2.06,3.69-4.74,6.59-8.05,8.7
			c-3.31,2.11-7.6,3.59-12.87,4.46C903.7,984.81,896.99,985.24,888.85,985.24z M890.72,963.68c2.68,0,4.91-0.12,6.68-0.36
			c1.77-0.24,3.26-0.81,4.46-1.73c1.2-0.91,2.25-2.37,3.16-4.38c0.91-2.01,1.8-4.86,2.66-8.55c0.86-3.69,1.92-8.36,3.16-14.02
			c1.24-5.56,2.18-10.13,2.8-13.73c0.62-3.59,0.93-6.44,0.93-8.55c0-2.11-0.38-3.64-1.15-4.6c-0.77-0.96-1.99-1.56-3.67-1.8
			c-1.68-0.24-3.95-0.36-6.83-0.36c-2.59,0-4.77,0.12-6.54,0.36c-1.77,0.24-3.28,0.81-4.53,1.72c-1.25,0.91-2.28,2.37-3.09,4.38
			c-0.82,2.01-1.68,4.86-2.59,8.55c-0.91,3.69-1.94,8.36-3.09,14.01c-0.86,3.83-1.58,7.19-2.16,10.06
			c-0.58,2.88-1.03,5.32-1.37,7.33c-0.34,2.01-0.5,3.69-0.5,5.03c0,2.11,0.38,3.62,1.15,4.53c0.77,0.91,2.03,1.49,3.81,1.73
			C885.81,963.56,888.04,963.68,890.72,963.68z"/>
		<path class="st1" d="M942.61,984.09l4.6-20.84l51.6-56.49h-38.23l4.74-21.56h76.04l-4.31,20.12l-52.46,57.21h40.39l-4.74,21.56
			H942.61z"/>
		<path class="st1" d="M1027.41,984.09l50.88-98.89h40.82l8.62,98.89h-28.6l-1.29-16.96h-32.34l-8.34,16.96H1027.41z
			 M1075.13,946.28h21.7l-2.44-36.65h-1.15L1075.13,946.28z"/>
		<path class="st2" d="M1159.8,984.09l-21.99-98.89h24.87l14.37,70.58h1.01l16.1-70.58h25.87l16.39,70.58h1.15l12.94-70.58h25.01
			l-21.99,98.89h-31.33l-14.95-62.38h-1.01l-15.09,62.38H1159.8z"/>
		<path class="st2" d="M1287.72,984.09v-98.89h69.28v19.26h-44.27v20.27h37.52v18.97h-37.52v21.13h44.27v19.26H1287.72z"/>
		<path class="st2" d="M1374.83,984.09v-98.89h50.02c6.32,0,11.55,0.91,15.67,2.73c4.12,1.82,7.21,4.58,9.27,8.26
			c2.06,3.69,3.09,8.31,3.09,13.87c0,4.6-0.62,8.48-1.87,11.64c-1.25,3.16-3.14,5.68-5.68,7.55c-2.54,1.87-5.77,3.23-9.7,4.1v0.57
			c4.22,0.86,7.64,2.21,10.28,4.03c2.63,1.82,4.57,4.34,5.82,7.55c1.24,3.21,1.87,7.31,1.87,12.29c0,4.02-0.5,7.69-1.51,11
			c-1.01,3.31-2.61,6.09-4.82,8.34c-2.21,2.25-5.17,3.98-8.91,5.18c-3.74,1.2-8.29,1.8-13.66,1.8H1374.83z M1399.55,925.44h15.95
			c3.26,0,5.8-0.31,7.62-0.93c1.82-0.62,3.09-1.7,3.81-3.23c0.72-1.53,1.08-3.69,1.08-6.47c0-3.07-0.34-5.37-1.01-6.9
			c-0.67-1.53-1.87-2.56-3.59-3.09c-1.72-0.53-4.36-0.79-7.91-0.79h-15.95V925.44z M1399.55,965.4h16.39c3.45,0,6.08-0.31,7.91-0.93
			c1.82-0.62,3.07-1.75,3.74-3.38c0.67-1.63,1.01-3.97,1.01-7.04c0-2.97-0.34-5.27-1.01-6.9c-0.67-1.63-1.92-2.75-3.74-3.38
			c-1.82-0.62-4.46-0.93-7.91-0.93h-16.39V965.4z"/>
	</g>
</g>
</svg>
