<svg id="Layer_1" data-name="Layer 1" xmlns="http://www.w3.org/2000/svg" xmlns:xlink="http://www.w3.org/1999/xlink" viewBox="0 0 1920 1080"><defs><style>.cls-1{fill:none;}.cls-2{fill:#9e0c27;}.cls-3{clip-path:url(#clip-path);}.cls-4{fill:#d21034;}.cls-5{fill:#007168;}.cls-6{fill:#1a1a1a;}</style><clipPath id="clip-path"><rect class="cls-1" width="1920" height="1080"/></clipPath></defs><title>Artboard 1</title><polygon class="cls-2" points="769.19 584.73 769.19 608.51 763.06 611.29 752.76 615.96 726.58 627.85 716.28 632.53 690.1 644.41 690.09 644.41 690.09 620.64 690.1 620.64 700.39 615.96 726.58 604.07 736.88 599.4 763.06 587.51 769.19 584.73"/><g class="cls-3"><path class="cls-4" d="M679.8,616l-26.18-11.89-10.3-4.67-26.19-11.89L611,584.73V608.5l6.12,2.78,10.3,4.68,26.19,11.89,10.29,4.67,26.19,11.89V620.63ZM636,606.4a4.16,4.16,0,1,1-2.07-5.5,4.17,4.17,0,0,1,2.07,5.5m32.4,14.71v0a4.16,4.16,0,0,1-4.95,2.25c-.18-.06-.36-.12-.54-.2l-21.6-9.81a4.16,4.16,0,1,1,3.43-7.57l2.52,1.15,19.09,8.66a4.16,4.16,0,0,1,2.06,5.5"/><polygon class="cls-2" points="769.19 551.6 769.19 575.38 752.76 582.83 726.58 594.72 716.28 599.4 690.1 611.29 690.09 611.29 690.09 587.51 690.1 587.51 700.39 582.83 726.58 570.95 769.19 551.6"/><path class="cls-4" d="M679.8,582.83l-26.18-11.89L611,551.6v23.78l16.42,7.45,26.19,11.89,10.29,4.68,26.19,11.88V587.5ZM636,576a4.16,4.16,0,1,1-2.07-5.5A4.16,4.16,0,0,1,636,576m32.4,14.71a4.16,4.16,0,0,1-5.5,2.07l-2.5-1.14L641.32,583a4.16,4.16,0,0,1-2.07-5.5,2.44,2.44,0,0,1,.14-.28,4.45,4.45,0,0,1,.33-.51l.19-.24.21-.21a9.25,9.25,0,0,1,2.54-1.16l.2,0H643a4.17,4.17,0,0,1,1.21.18,4.45,4.45,0,0,1,.51.19l21.61,9.81a4.15,4.15,0,0,1,2.06,5.5"/><path class="cls-5" d="M642.86,575l-.2,0,.2,0"/><path class="cls-5" d="M640.12,576.22a4.1,4.1,0,0,1,2.54-1.16,9.25,9.25,0,0,0-2.54,1.16"/><polygon class="cls-2" points="769.19 518.47 769.19 542.25 716.28 566.27 690.1 578.16 690.09 578.16 690.09 554.38 690.1 554.38 769.19 518.47"/><path class="cls-4" d="M611,518.47v23.78l52.9,24,26.19,11.88V554.37Zm25,25.27a4.16,4.16,0,1,1-2.07-5.5,4.17,4.17,0,0,1,2.07,5.5m32.4,14.71a4.16,4.16,0,0,1-5.5,2.07l-21.6-9.81a4.16,4.16,0,1,1,3.43-7.57L666.36,553a4.16,4.16,0,0,1,2.06,5.5"/><path class="cls-4" d="M769.19,518.47,690.1,482.56,611,518.47l79.09,35.9h0Zm-87.07,7.9,8-3.11,9.22-3.6-.47-.18-8.75,2.1-12.35,3-6.45-2.69,13.42-7.9-.45-.17L667.1,520.1l-8.61-3.59,29.78-10.62,1.83.69,11,4.11L690.72,517l.37.15,16.8-4,13.82,5.15-29.85,12.07-1.76-.73Z"/><polygon class="cls-6" points="929.89 616.45 929.89 596.07 932.43 596.07 932.43 614.2 941.95 614.2 941.95 616.45 929.89 616.45"/><path class="cls-6" d="M945.06,594.44h2.57v2.64h-2.57Zm.06,6.9h2.42v15.11h-2.42Z"/><path class="cls-6" d="M957.29,616.69a9,9,0,0,1-2.71-.35,3.29,3.29,0,0,1-1.7-1.23,5.86,5.86,0,0,1-.89-2.39,22.13,22.13,0,0,1-.27-3.79,25.3,25.3,0,0,1,.25-3.84,5.52,5.52,0,0,1,.88-2.38,3.27,3.27,0,0,1,1.69-1.23,8.23,8.23,0,0,1,2.69-.37,10.78,10.78,0,0,1,2.16.19A4.44,4.44,0,0,1,961,602a3.38,3.38,0,0,1,1.11,1.3h.15v-8.83h2.43v22h-2.17l-.11-2.16h-.18a3.32,3.32,0,0,1-1.2,1.56,4.65,4.65,0,0,1-1.76.68,12.24,12.24,0,0,1-2,.16m1-2.13a5.68,5.68,0,0,0,2.4-.42,2.33,2.33,0,0,0,1.24-1.3,6.46,6.46,0,0,0,.36-1.81q.06-1,.06-2.31c0-.73,0-1.4-.06-2a5.19,5.19,0,0,0-.33-1.58,2.52,2.52,0,0,0-1.27-1.44,5.68,5.68,0,0,0-2.46-.43,10,10,0,0,0-2.13.18,2,2,0,0,0-1.22.75,3.89,3.89,0,0,0-.56,1.69,23.7,23.7,0,0,0-.15,3,24,24,0,0,0,.15,3,3.8,3.8,0,0,0,.56,1.69,2,2,0,0,0,1.23.75,9.73,9.73,0,0,0,2.18.2"/><path class="cls-6" d="M975.69,616.69a16.39,16.39,0,0,1-3.07-.24,4.81,4.81,0,0,1-2-.78,3.45,3.45,0,0,1-1.12-1.45A7.34,7.34,0,0,1,969,612c-.08-.87-.11-1.9-.11-3.08a31,31,0,0,1,.17-3.6,5.33,5.33,0,0,1,.82-2.43,3.59,3.59,0,0,1,2-1.36,12.48,12.48,0,0,1,3.67-.43,13.09,13.09,0,0,1,2.86.26,4.18,4.18,0,0,1,1.76.83,3.35,3.35,0,0,1,1,1.5,9.39,9.39,0,0,1,.4,2.22c.06.86.08,1.85.08,3v.8H971.3a17.17,17.17,0,0,0,.15,2.52,3,3,0,0,0,.61,1.51,2.59,2.59,0,0,0,1.45.74,13.74,13.74,0,0,0,2.71.21c.48,0,1,0,1.57,0s1.15-.07,1.72-.13l1.54-.18v2c-.41.07-.92.14-1.52.2s-1.24.11-1.9.15-1.31.06-1.94.06m3.61-8.21v-.8a14.15,14.15,0,0,0-.17-2.44,2.69,2.69,0,0,0-.61-1.36,2.13,2.13,0,0,0-1.17-.61,9.54,9.54,0,0,0-1.84-.15,10.94,10.94,0,0,0-2.25.19,2.16,2.16,0,0,0-1.24.7,3,3,0,0,0-.57,1.45,16.79,16.79,0,0,0-.15,2.52h8.57Z"/><path class="cls-6" d="M985.79,616.45V601.34H988l.12,2.91h.18a4.45,4.45,0,0,1,1.1-2,3.74,3.74,0,0,1,1.72-.93,9,9,0,0,1,2.22-.25v2.37a6.13,6.13,0,0,0-3.14.65,3.36,3.36,0,0,0-1.51,2,11.91,11.91,0,0,0-.42,3.44v6.87Z"/><path class="cls-6" d="M1009.2,616.69a16.39,16.39,0,0,1-3.07-.24,4.75,4.75,0,0,1-2-.78,3.55,3.55,0,0,1-1.13-1.45,7.67,7.67,0,0,1-.5-2.21c-.08-.87-.12-1.9-.12-3.08a30.79,30.79,0,0,1,.18-3.6,5.45,5.45,0,0,1,.81-2.43,3.66,3.66,0,0,1,2-1.36,12.56,12.56,0,0,1,3.68-.43,13.15,13.15,0,0,1,2.86.26,4.18,4.18,0,0,1,1.76.83,3.33,3.33,0,0,1,1,1.5,8.91,8.91,0,0,1,.4,2.22c.06.86.09,1.85.09,3v.8h-10.34a17.17,17.17,0,0,0,.15,2.52,3,3,0,0,0,.61,1.51,2.56,2.56,0,0,0,1.45.74,13.67,13.67,0,0,0,2.71.21c.47,0,1,0,1.57,0s1.15-.07,1.72-.13l1.54-.18v2c-.42.07-.92.14-1.53.2s-1.23.11-1.89.15-1.31.06-1.94.06m3.61-8.21v-.8a13.07,13.07,0,0,0-.18-2.44,2.69,2.69,0,0,0-.6-1.36,2.13,2.13,0,0,0-1.17-.61,9.54,9.54,0,0,0-1.84-.15,10.94,10.94,0,0,0-2.25.19,2.19,2.19,0,0,0-1.25.7,3.08,3.08,0,0,0-.56,1.45,16.79,16.79,0,0,0-.15,2.52h8.56Z"/><path class="cls-6" d="M1019.3,616.45V601.34h2.19l.09,2.17h.18a3.46,3.46,0,0,1,.81-1.25,4,4,0,0,1,1.45-.84,7.26,7.26,0,0,1,2.33-.31,6.11,6.11,0,0,1,3,.57,3.13,3.13,0,0,1,1.37,1.83h.17a3.73,3.73,0,0,1,.86-1.25,4.11,4.11,0,0,1,1.51-.84,7.54,7.54,0,0,1,2.34-.31,5.84,5.84,0,0,1,3.05.62,3,3,0,0,1,1.34,1.92,14.11,14.11,0,0,1,.32,3.35v9.45h-2.4v-8.62a22,22,0,0,0-.11-2.44,3,3,0,0,0-.45-1.36,1.56,1.56,0,0,0-1-.61,8,8,0,0,0-1.74-.15,4.9,4.9,0,0,0-2,.34,2.24,2.24,0,0,0-1.08,1,4.7,4.7,0,0,0-.43,1.69q-.09,1-.09,2.34v7.79h-2.4v-8.62a19.49,19.49,0,0,0-.12-2.44A3,3,0,0,0,1028,604a1.56,1.56,0,0,0-1-.61,8.11,8.11,0,0,0-1.75-.15,4.48,4.48,0,0,0-2,.37,2.27,2.27,0,0,0-1.07,1.05,4.93,4.93,0,0,0-.41,1.69q-.09,1-.09,2.28v7.79Z"/><path class="cls-6" d="M1056.84,616.69c-.58,0-1.19,0-1.84-.06l-1.93-.13c-.63,0-1.2-.12-1.72-.19v-2l1.38.12,1.32.1c.43,0,.87,0,1.3.06l1.34,0a7.88,7.88,0,0,0,2.23-.23,1.35,1.35,0,0,0,.92-.75,3.65,3.65,0,0,0,.22-1.39,4.5,4.5,0,0,0-.16-1.43.88.88,0,0,0-.56-.57,6.21,6.21,0,0,0-1.2-.23l-3.91-.44a4.9,4.9,0,0,1-2.11-.61,2.31,2.31,0,0,1-1-1.32,7.29,7.29,0,0,1-.27-2.16,5.59,5.59,0,0,1,.42-2.37,2.85,2.85,0,0,1,1.18-1.33,4.84,4.84,0,0,1,1.87-.58,20.32,20.32,0,0,1,2.46-.13q.76,0,1.62.06l1.69.14c.56.06,1,.13,1.43.21v2c-.52-.08-1-.15-1.56-.2s-1.06-.08-1.6-.1-1.09,0-1.64,0a13.26,13.26,0,0,0-1.93.12,1.91,1.91,0,0,0-1.2.59,2.43,2.43,0,0,0-.4,1.57,5,5,0,0,0,.13,1.29.88.88,0,0,0,.55.59,4.8,4.8,0,0,0,1.16.26l4.09.44a5.68,5.68,0,0,1,1.91.46,2,2,0,0,1,1,1.2,7.9,7.9,0,0,1,.32,2.58,6.33,6.33,0,0,1-.35,2.29,2.7,2.7,0,0,1-1,1.35,4.23,4.23,0,0,1-1.75.64,15.41,15.41,0,0,1-2.39.16"/><path class="cls-6" d="M1072.27,616.69a17.81,17.81,0,0,1-3.1-.22,4.83,4.83,0,0,1-1.94-.73,3,3,0,0,1-1-1.39,7.68,7.68,0,0,1-.43-2.24q-.09-1.35-.09-3.21c0-1.25,0-2.32.09-3.22a7.67,7.67,0,0,1,.43-2.23,3,3,0,0,1,1-1.4,5,5,0,0,1,1.94-.72,22,22,0,0,1,6.21,0,5,5,0,0,1,1.94.72,2.91,2.91,0,0,1,1.07,1.4,8,8,0,0,1,.43,2.23c.06.9.09,2,.09,3.22s0,2.31-.09,3.21a8,8,0,0,1-.43,2.24,2.88,2.88,0,0,1-1.07,1.39,4.89,4.89,0,0,1-1.94.73,17.7,17.7,0,0,1-3.11.22m0-2a11,11,0,0,0,2.46-.21,1.93,1.93,0,0,0,1.23-.8,3.75,3.75,0,0,0,.44-1.73c0-.76.08-1.77.08-3s0-2.25-.08-3a3.72,3.72,0,0,0-.44-1.73,1.9,1.9,0,0,0-1.23-.8,14.4,14.4,0,0,0-4.9,0,1.8,1.8,0,0,0-1.23.8,4,4,0,0,0-.45,1.73c-.06.76-.09,1.76-.09,3s0,2.25.09,3a4,4,0,0,0,.45,1.73,1.83,1.83,0,0,0,1.23.8,10.94,10.94,0,0,0,2.44.21"/><rect class="cls-6" x="1083.08" y="594.44" width="2.43" height="22.01"/><path class="cls-6" d="M1095.47,616.69a8.53,8.53,0,0,1-2.68-.35,3.28,3.28,0,0,1-1.56-1.07,4.17,4.17,0,0,1-.72-1.82,15.6,15.6,0,0,1-.2-2.66v-9.45h2.43V610a19.75,19.75,0,0,0,.12,2.43,2.51,2.51,0,0,0,.52,1.37,2,2,0,0,0,1.14.61,10.05,10.05,0,0,0,1.93.15,5.8,5.8,0,0,0,2.31-.37,2.48,2.48,0,0,0,1.2-1.07,4.74,4.74,0,0,0,.47-1.69,21.84,21.84,0,0,0,.1-2.26v-7.8h2.4v15.11h-2.16l-.09-2.16h-.2a3.51,3.51,0,0,1-.88,1.25,4.13,4.13,0,0,1-1.58.84,8.79,8.79,0,0,1-2.55.31"/><path class="cls-6" d="M1113.27,616.69a11.14,11.14,0,0,1-2.83-.3,4.21,4.21,0,0,1-1.77-.88,3.58,3.58,0,0,1-1-1.52,9,9,0,0,1-.43-2.19c-.06-.85-.1-1.82-.1-2.9s0-2.12.13-3a8.27,8.27,0,0,1,.51-2.21,3.72,3.72,0,0,1,1-1.5,4.56,4.56,0,0,1,1.74-.84,10.38,10.38,0,0,1,2.63-.28c.7,0,1.42,0,2.18.1a13.37,13.37,0,0,1,1.88.28v2c-.45-.08-1-.15-1.67-.21s-1.26-.09-1.79-.09a8.44,8.44,0,0,0-2.24.24,2.17,2.17,0,0,0-1.27.86,3.91,3.91,0,0,0-.58,1.75,22.66,22.66,0,0,0-.15,2.9,23.53,23.53,0,0,0,.15,3,3.59,3.59,0,0,0,.61,1.74,2.22,2.22,0,0,0,1.3.83,9,9,0,0,0,2.24.23q.83,0,1.8-.09c.66-.06,1.24-.13,1.75-.21v2c-.49.09-1.12.18-1.89.26a21.69,21.69,0,0,1-2.23.12m-2.63,5.39v-.14l2-6h1.63v.15l-1.24,6Z"/><path class="cls-6" d="M1127.08,616.69a17.81,17.81,0,0,1-3.1-.22,4.83,4.83,0,0,1-1.94-.73,3,3,0,0,1-1-1.39,7.68,7.68,0,0,1-.43-2.24q-.09-1.35-.09-3.21c0-1.25,0-2.32.09-3.22a7.67,7.67,0,0,1,.43-2.23,3,3,0,0,1,1-1.4,5,5,0,0,1,1.94-.72,22,22,0,0,1,6.21,0,5,5,0,0,1,1.94.72,3,3,0,0,1,1.07,1.4,8,8,0,0,1,.43,2.23c.06.9.09,2,.09,3.22s0,2.31-.09,3.21a8,8,0,0,1-.43,2.24,2.94,2.94,0,0,1-1.07,1.39,4.89,4.89,0,0,1-1.94.73,17.7,17.7,0,0,1-3.11.22M1122,598.62a10.94,10.94,0,0,1,.14-1.9,1.78,1.78,0,0,1,.6-1.11,2.33,2.33,0,0,1,1.45-.37,6.48,6.48,0,0,1,1.64.22c.53.15,1.06.31,1.59.49l1.21.39a3.85,3.85,0,0,0,1.17.17c.43,0,.69-.11.78-.34a3.91,3.91,0,0,0,.13-1.26h1.4a10.78,10.78,0,0,1-.14,1.9,1.72,1.72,0,0,1-.59,1.11,2.28,2.28,0,0,1-1.44.37,5.7,5.7,0,0,1-1.64-.23l-1.59-.48c-.41-.14-.82-.27-1.21-.38a4,4,0,0,0-1.16-.18c-.43,0-.69.11-.78.34a4,4,0,0,0-.13,1.26Zm5.07,16a11,11,0,0,0,2.46-.21,1.93,1.93,0,0,0,1.23-.8,3.88,3.88,0,0,0,.44-1.73c0-.76.08-1.77.08-3s0-2.25-.08-3a3.84,3.84,0,0,0-.44-1.73,1.9,1.9,0,0,0-1.23-.8,11,11,0,0,0-2.46-.21,11.1,11.1,0,0,0-2.45.21,1.8,1.8,0,0,0-1.22.8,4,4,0,0,0-.45,1.73c-.06.76-.09,1.76-.09,3s0,2.25.09,3a4,4,0,0,0,.45,1.73,1.83,1.83,0,0,0,1.22.8,11.1,11.1,0,0,0,2.45.21"/><path class="cls-6" d="M1144.06,616.69a16.39,16.39,0,0,1-3.07-.24,4.75,4.75,0,0,1-2-.78,3.47,3.47,0,0,1-1.13-1.45,7.67,7.67,0,0,1-.5-2.21c-.08-.87-.12-1.9-.12-3.08a30.79,30.79,0,0,1,.18-3.6,5.45,5.45,0,0,1,.81-2.43,3.63,3.63,0,0,1,2-1.36,12.56,12.56,0,0,1,3.68-.43,13.22,13.22,0,0,1,2.86.26,4.24,4.24,0,0,1,1.76.83,3.41,3.41,0,0,1,1,1.5,8.91,8.91,0,0,1,.4,2.22c.06.86.09,1.85.09,3v.8h-10.34a17.17,17.17,0,0,0,.15,2.52,3,3,0,0,0,.61,1.51,2.56,2.56,0,0,0,1.45.74,13.67,13.67,0,0,0,2.71.21c.47,0,1,0,1.57,0s1.14-.07,1.72-.13l1.54-.18v2c-.42.07-.93.14-1.53.2s-1.23.11-1.89.15-1.31.06-1.94.06m3.61-8.21v-.8a13.07,13.07,0,0,0-.18-2.44,2.69,2.69,0,0,0-.61-1.36,2.06,2.06,0,0,0-1.17-.61,9.36,9.36,0,0,0-1.83-.15,10.94,10.94,0,0,0-2.25.19,2.19,2.19,0,0,0-1.25.7,3,3,0,0,0-.56,1.45,16.79,16.79,0,0,0-.15,2.52h8.56Z"/><path class="cls-6" d="M1159.19,616.69q-.86,0-1.83-.06l-1.93-.13c-.63,0-1.2-.12-1.72-.19v-2l1.38.12,1.32.1c.43,0,.87,0,1.3.06l1.34,0a7.88,7.88,0,0,0,2.23-.23,1.35,1.35,0,0,0,.92-.75,3.65,3.65,0,0,0,.22-1.39,4.5,4.5,0,0,0-.16-1.43.91.91,0,0,0-.56-.57,6.21,6.21,0,0,0-1.2-.23l-3.91-.44a4.9,4.9,0,0,1-2.11-.61,2.27,2.27,0,0,1-1-1.32,7.29,7.29,0,0,1-.27-2.16,5.77,5.77,0,0,1,.41-2.37,2.87,2.87,0,0,1,1.19-1.33,4.79,4.79,0,0,1,1.87-.58,20.26,20.26,0,0,1,2.45-.13c.52,0,1.06,0,1.63.06l1.69.14c.56.06,1,.13,1.42.21v2c-.51-.08-1-.15-1.55-.2s-1.06-.08-1.6-.1-1.09,0-1.64,0a13.16,13.16,0,0,0-1.93.12,1.91,1.91,0,0,0-1.2.59,2.43,2.43,0,0,0-.4,1.57,4.62,4.62,0,0,0,.13,1.29.86.86,0,0,0,.55.59,4.8,4.8,0,0,0,1.16.26l4.09.44a5.74,5.74,0,0,1,1.91.46,2,2,0,0,1,1,1.2,8,8,0,0,1,.31,2.58,6.36,6.36,0,0,1-.34,2.29,2.7,2.7,0,0,1-1.05,1.35,4.28,4.28,0,0,1-1.75.64,15.46,15.46,0,0,1-2.4.16"/><path class="cls-6" d="M1180.26,616.69a9,9,0,0,1-2.71-.35,3.36,3.36,0,0,1-1.71-1.23,6,6,0,0,1-.89-2.39,23.34,23.34,0,0,1-.26-3.79,24.07,24.07,0,0,1,.25-3.84,5.65,5.65,0,0,1,.87-2.38,3.35,3.35,0,0,1,1.69-1.23,8.26,8.26,0,0,1,2.7-.37,10.78,10.78,0,0,1,2.16.19,4.51,4.51,0,0,1,1.65.67,3.38,3.38,0,0,1,1.11,1.3h.15v-8.83h2.42v22h-2.16l-.12-2.16h-.17a3.32,3.32,0,0,1-1.2,1.56,4.63,4.63,0,0,1-1.77.68,12,12,0,0,1-2,.16m1-2.13a5.74,5.74,0,0,0,2.4-.42,2.36,2.36,0,0,0,1.24-1.3,6.46,6.46,0,0,0,.36-1.81q.06-1,.06-2.31c0-.73,0-1.4-.06-2a5.19,5.19,0,0,0-.33-1.58,2.56,2.56,0,0,0-1.27-1.44,5.74,5.74,0,0,0-2.46-.43,10.21,10.21,0,0,0-2.14.18,2,2,0,0,0-1.21.75,3.76,3.76,0,0,0-.56,1.69,23.7,23.7,0,0,0-.15,3,24,24,0,0,0,.15,3,3.68,3.68,0,0,0,.56,1.69,2,2,0,0,0,1.23.75,9.67,9.67,0,0,0,2.18.2"/><path class="cls-6" d="M1198.66,616.69a16.39,16.39,0,0,1-3.07-.24,4.75,4.75,0,0,1-2-.78,3.55,3.55,0,0,1-1.13-1.45,7.67,7.67,0,0,1-.5-2.21c-.08-.87-.12-1.9-.12-3.08a30.79,30.79,0,0,1,.18-3.6,5.45,5.45,0,0,1,.81-2.43,3.66,3.66,0,0,1,2-1.36,12.56,12.56,0,0,1,3.68-.43,13.15,13.15,0,0,1,2.86.26,4.18,4.18,0,0,1,1.76.83,3.33,3.33,0,0,1,1,1.5,8.91,8.91,0,0,1,.4,2.22c.06.86.09,1.85.09,3v.8h-10.34a17.17,17.17,0,0,0,.15,2.52,3,3,0,0,0,.61,1.51,2.56,2.56,0,0,0,1.45.74,13.67,13.67,0,0,0,2.71.21c.47,0,1,0,1.57,0s1.15-.07,1.72-.13l1.54-.18v2c-.42.07-.92.14-1.53.2s-1.23.11-1.89.15-1.31.06-1.94.06m3.61-8.21v-.8a13.07,13.07,0,0,0-.18-2.44,2.69,2.69,0,0,0-.6-1.36,2.13,2.13,0,0,0-1.17-.61,9.54,9.54,0,0,0-1.84-.15,10.94,10.94,0,0,0-2.25.19,2.19,2.19,0,0,0-1.25.7,3.08,3.08,0,0,0-.56,1.45,16.79,16.79,0,0,0-.15,2.52h8.56Z"/><path class="cls-6" d="M1215.42,622.35v-21h2.2l.09,2.17h.17a3.53,3.53,0,0,1,1.22-1.54,4.17,4.17,0,0,1,1.75-.7,12,12,0,0,1,2-.16,9,9,0,0,1,2.71.35,3.36,3.36,0,0,1,1.71,1.23,5.8,5.8,0,0,1,.88,2.39,22,22,0,0,1,.27,3.79,24.07,24.07,0,0,1-.25,3.84,5.7,5.7,0,0,1-.87,2.38,3.47,3.47,0,0,1-1.69,1.23,8.26,8.26,0,0,1-2.7.37,10.78,10.78,0,0,1-2.16-.19,4.44,4.44,0,0,1-1.65-.67,3.38,3.38,0,0,1-1.11-1.3h-.15v7.82Zm6.49-7.82a10.5,10.5,0,0,0,2.18-.18,2,2,0,0,0,1.23-.76,3.67,3.67,0,0,0,.56-1.68,30.38,30.38,0,0,0,0-6,3.63,3.63,0,0,0-.56-1.69,2.06,2.06,0,0,0-1.23-.76,9.76,9.76,0,0,0-2.18-.19,5.42,5.42,0,0,0-2.38.43,2.52,2.52,0,0,0-1.26,1.35,5.09,5.09,0,0,0-.36,1.69q-.06,1-.06,2.19c0,.83,0,1.55.06,2.18a5.26,5.26,0,0,0,.3,1.55,2.67,2.67,0,0,0,1.3,1.47,5.73,5.73,0,0,0,2.4.43"/><path class="cls-6" d="M1232.61,616.45V601.34h2.16l.12,2.91h.18a4.44,4.44,0,0,1,1.09-2,3.85,3.85,0,0,1,1.72-.93,9,9,0,0,1,2.22-.25v2.37a6.15,6.15,0,0,0-3.14.65,3.4,3.4,0,0,0-1.51,2,12.31,12.31,0,0,0-.41,3.44v6.87Z"/><path class="cls-6" d="M1249.35,616.69a16.39,16.39,0,0,1-3.07-.24,4.75,4.75,0,0,1-2-.78,3.55,3.55,0,0,1-1.13-1.45,7.67,7.67,0,0,1-.5-2.21c-.08-.87-.12-1.9-.12-3.08a30.79,30.79,0,0,1,.18-3.6,5.45,5.45,0,0,1,.81-2.43,3.66,3.66,0,0,1,2-1.36,12.56,12.56,0,0,1,3.68-.43,13.15,13.15,0,0,1,2.86.26,4.24,4.24,0,0,1,1.76.83,3.41,3.41,0,0,1,1,1.5,8.91,8.91,0,0,1,.4,2.22c.06.86.09,1.85.09,3v.8H1245a17.17,17.17,0,0,0,.15,2.52,3,3,0,0,0,.61,1.51,2.56,2.56,0,0,0,1.45.74,13.67,13.67,0,0,0,2.71.21c.47,0,1,0,1.57,0s1.15-.07,1.72-.13l1.54-.18v2c-.42.07-.92.14-1.53.2s-1.23.11-1.89.15-1.31.06-1.94.06m3.61-8.21v-.8a13.07,13.07,0,0,0-.18-2.44,2.77,2.77,0,0,0-.6-1.36,2.13,2.13,0,0,0-1.17-.61,9.54,9.54,0,0,0-1.84-.15,10.94,10.94,0,0,0-2.25.19,2.19,2.19,0,0,0-1.25.7,3.08,3.08,0,0,0-.56,1.45A16.79,16.79,0,0,0,1245,608h8.56Z"/><path class="cls-6" d="M1264.49,616.69c-.58,0-1.19,0-1.84-.06l-1.93-.13c-.63,0-1.2-.12-1.72-.19v-2l1.38.12,1.32.1,1.3.06,1.34,0a7.88,7.88,0,0,0,2.23-.23,1.35,1.35,0,0,0,.92-.75,3.63,3.63,0,0,0,.23-1.39,4.44,4.44,0,0,0-.17-1.43.88.88,0,0,0-.56-.57,6.21,6.21,0,0,0-1.2-.23l-3.91-.44a4.9,4.9,0,0,1-2.11-.61,2.27,2.27,0,0,1-1-1.32,7.29,7.29,0,0,1-.27-2.16,5.59,5.59,0,0,1,.42-2.37,2.85,2.85,0,0,1,1.18-1.33,4.84,4.84,0,0,1,1.87-.58,20.32,20.32,0,0,1,2.46-.13c.51,0,1,0,1.63.06l1.68.14c.56.06,1,.13,1.43.21v2c-.52-.08-1-.15-1.56-.2s-1.06-.08-1.6-.1-1.09,0-1.64,0a13.26,13.26,0,0,0-1.93.12,1.91,1.91,0,0,0-1.2.59,2.43,2.43,0,0,0-.4,1.57,5,5,0,0,0,.13,1.29.88.88,0,0,0,.55.59,4.8,4.8,0,0,0,1.16.26l4.09.44a5.68,5.68,0,0,1,1.91.46,2,2,0,0,1,1,1.2,7.9,7.9,0,0,1,.32,2.58,6.58,6.58,0,0,1-.34,2.29,2.77,2.77,0,0,1-1.06,1.35,4.24,4.24,0,0,1-1.74.64,15.64,15.64,0,0,1-2.4.16"/><path class="cls-6" d="M1280.1,616.69a16.39,16.39,0,0,1-3.07-.24,4.81,4.81,0,0,1-2-.78,3.45,3.45,0,0,1-1.12-1.45,7.34,7.34,0,0,1-.51-2.21c-.08-.87-.12-1.9-.12-3.08a30.79,30.79,0,0,1,.18-3.6,5.33,5.33,0,0,1,.82-2.43,3.59,3.59,0,0,1,2-1.36,12.44,12.44,0,0,1,3.67-.43,13.09,13.09,0,0,1,2.86.26,4.18,4.18,0,0,1,1.76.83,3.35,3.35,0,0,1,1,1.5,8.94,8.94,0,0,1,.39,2.22c.06.86.09,1.85.09,3v.8h-10.34a17.17,17.17,0,0,0,.15,2.52,3,3,0,0,0,.61,1.51,2.59,2.59,0,0,0,1.45.74,13.74,13.74,0,0,0,2.71.21c.48,0,1,0,1.57,0s1.15-.07,1.72-.13l1.54-.18v2c-.41.07-.92.14-1.53.2s-1.23.11-1.89.15-1.31.06-1.94.06m3.61-8.21v-.8a13.07,13.07,0,0,0-.18-2.44,2.69,2.69,0,0,0-.6-1.36,2.13,2.13,0,0,0-1.17-.61,9.54,9.54,0,0,0-1.84-.15,10.94,10.94,0,0,0-2.25.19,2.16,2.16,0,0,0-1.24.7,3,3,0,0,0-.57,1.45,16.79,16.79,0,0,0-.15,2.52h8.57Z"/><path class="cls-6" d="M1290.2,616.45V601.34h2.19l.09,2.17h.18a4,4,0,0,1,.9-1.25,4.24,4.24,0,0,1,1.57-.84,8.62,8.62,0,0,1,2.54-.31,8.51,8.51,0,0,1,2.69.35,3.31,3.31,0,0,1,1.56,1.07,3.9,3.9,0,0,1,.72,1.82,16.88,16.88,0,0,1,.18,2.65v9.45h-2.4v-8.62a17.47,17.47,0,0,0-.13-2.44,2.67,2.67,0,0,0-.52-1.36,1.89,1.89,0,0,0-1.13-.61,10.14,10.14,0,0,0-2-.15,5.64,5.64,0,0,0-2.28.37,2.48,2.48,0,0,0-1.22,1.07,4.31,4.31,0,0,0-.47,1.69c-.06.66-.09,1.41-.09,2.26v7.79Z"/><path class="cls-6" d="M1313.16,616.69a11.14,11.14,0,0,1-2.83-.3,4.21,4.21,0,0,1-1.77-.88,3.58,3.58,0,0,1-1-1.52,9,9,0,0,1-.43-2.19c-.07-.85-.1-1.82-.1-2.9a28.38,28.38,0,0,1,.13-3,8.27,8.27,0,0,1,.51-2.21,3.72,3.72,0,0,1,1-1.5,4.49,4.49,0,0,1,1.74-.84,10.38,10.38,0,0,1,2.63-.28c.69,0,1.42,0,2.18.1a13.37,13.37,0,0,1,1.88.28v2c-.45-.08-1-.15-1.67-.21s-1.26-.09-1.79-.09a8.44,8.44,0,0,0-2.24.24,2.23,2.23,0,0,0-1.28.86,4,4,0,0,0-.57,1.75,22.66,22.66,0,0,0-.15,2.9,23.53,23.53,0,0,0,.15,3,3.7,3.7,0,0,0,.6,1.74,2.28,2.28,0,0,0,1.31.83,9,9,0,0,0,2.24.23q.82,0,1.8-.09c.65-.06,1.24-.13,1.75-.21v2c-.49.09-1.13.18-1.9.26a21.5,21.5,0,0,1-2.22.12m-2.63,5.39v-.14l2-6h1.63v.15l-1.25,6Z"/><path class="cls-6" d="M1325,616.69a8.78,8.78,0,0,1-2.77-.38,3,3,0,0,1-1.66-1.34,5.41,5.41,0,0,1-.55-2.66,7.56,7.56,0,0,1,.4-2.71,2.45,2.45,0,0,1,1.41-1.41,7.54,7.54,0,0,1,2.82-.42l.93,0,1.47,0,1.67,0,1.56,0v-.95a10.1,10.1,0,0,0-.17-2.08,1.83,1.83,0,0,0-.66-1.13,2.93,2.93,0,0,0-1.41-.48c-.6-.06-1.4-.1-2.39-.1-.43,0-.94,0-1.54.05s-1.17.07-1.73.11-1,.11-1.35.17v-2a23.55,23.55,0,0,1,2.54-.31c.93-.07,1.91-.1,2.91-.1a16,16,0,0,1,2.71.19,5.26,5.26,0,0,1,1.81.61,2.68,2.68,0,0,1,1,1.09,5.07,5.07,0,0,1,.49,1.66,16.77,16.77,0,0,1,.14,2.28v9.51h-2.17l-.09-2.13h-.17a3.46,3.46,0,0,1-1.35,1.56,5.23,5.23,0,0,1-1.91.66,14,14,0,0,1-2,.15m.89-2a11.38,11.38,0,0,0,1.6-.11,3.89,3.89,0,0,0,1.3-.4,2.07,2.07,0,0,0,.89-.89,4.58,4.58,0,0,0,.46-1.35,9.33,9.33,0,0,0,.14-1.7v-.77h-5a6.79,6.79,0,0,0-1.78.18,1.19,1.19,0,0,0-.84.74,4.81,4.81,0,0,0-.23,1.69,4,4,0,0,0,.27,1.66,1.46,1.46,0,0,0,1,.75,9.42,9.42,0,0,0,2.21.2"/><path class="cls-6" d="M1350.19,616.69a17.69,17.69,0,0,1-3.09-.22,4.77,4.77,0,0,1-1.94-.73,2.84,2.84,0,0,1-1.05-1.39,7.68,7.68,0,0,1-.43-2.24q-.09-1.35-.09-3.21c0-1.25,0-2.32.09-3.22a7.67,7.67,0,0,1,.43-2.23,2.87,2.87,0,0,1,1.05-1.4,4.92,4.92,0,0,1,1.94-.72,22,22,0,0,1,6.2,0,5.16,5.16,0,0,1,2,.72,2.89,2.89,0,0,1,1.06,1.4,7.67,7.67,0,0,1,.43,2.23c.06.9.09,2,.09,3.22s0,2.31-.09,3.21a7.68,7.68,0,0,1-.43,2.24,2.86,2.86,0,0,1-1.06,1.39,5,5,0,0,1-2,.73,17.62,17.62,0,0,1-3.11.22m0-2a11,11,0,0,0,2.46-.21,1.88,1.88,0,0,0,1.23-.8,3.74,3.74,0,0,0,.45-1.73c.05-.76.07-1.77.07-3s0-2.25-.07-3a3.71,3.71,0,0,0-.45-1.73,1.85,1.85,0,0,0-1.23-.8,14.4,14.4,0,0,0-4.9,0,1.85,1.85,0,0,0-1.23.8,4,4,0,0,0-.44,1.73c-.06.76-.09,1.76-.09,3s0,2.25.09,3a4,4,0,0,0,.44,1.73,1.88,1.88,0,0,0,1.23.8,11,11,0,0,0,2.44.21"/><path class="cls-6" d="M1361,616.45V601.34h2.19l.09,2.17h.18a3.7,3.7,0,0,1,.9-1.25,4.24,4.24,0,0,1,1.57-.84,10.54,10.54,0,0,1,5.23,0,3.23,3.23,0,0,1,1.55,1.07,3.9,3.9,0,0,1,.73,1.82,16.88,16.88,0,0,1,.18,2.65v9.45h-2.4v-8.62a19.17,19.17,0,0,0-.13-2.44,2.77,2.77,0,0,0-.52-1.36,1.92,1.92,0,0,0-1.13-.61,10.14,10.14,0,0,0-2-.15,5.73,5.73,0,0,0-2.29.37,2.5,2.5,0,0,0-1.21,1.07,4.15,4.15,0,0,0-.47,1.69c-.06.66-.09,1.41-.09,2.26v7.79Z"/><rect class="cls-6" x="1378.46" y="594.44" width="2.43" height="22.01"/><path class="cls-6" d="M1385.63,594.44h2.58v2.64h-2.58Zm.06,6.9h2.43v15.11h-2.43Z"/><path class="cls-6" d="M1392.92,616.45V601.34h2.19l.09,2.17h.17a3.87,3.87,0,0,1,.91-1.25,4.16,4.16,0,0,1,1.57-.84,10.54,10.54,0,0,1,5.23,0,3.23,3.23,0,0,1,1.55,1.07,3.9,3.9,0,0,1,.73,1.82,16.88,16.88,0,0,1,.18,2.65v9.45h-2.4v-8.62a17.22,17.22,0,0,0-.14-2.44,2.77,2.77,0,0,0-.51-1.36,1.92,1.92,0,0,0-1.13-.61,10.25,10.25,0,0,0-2-.15,5.71,5.71,0,0,0-2.28.37,2.46,2.46,0,0,0-1.21,1.07,4.15,4.15,0,0,0-.48,1.69c-.06.66-.08,1.41-.08,2.26v7.79Z"/><path class="cls-6" d="M1416.53,616.69a16.39,16.39,0,0,1-3.07-.24,4.81,4.81,0,0,1-2-.78,3.45,3.45,0,0,1-1.12-1.45,7.34,7.34,0,0,1-.51-2.21c-.08-.87-.12-1.9-.12-3.08a30.79,30.79,0,0,1,.18-3.6,5.33,5.33,0,0,1,.82-2.43,3.59,3.59,0,0,1,2-1.36,12.44,12.44,0,0,1,3.67-.43,13.09,13.09,0,0,1,2.86.26,4.18,4.18,0,0,1,1.76.83,3.35,3.35,0,0,1,1,1.5,8.94,8.94,0,0,1,.39,2.22c.06.86.09,1.85.09,3v.8h-10.34a17.17,17.17,0,0,0,.15,2.52,3,3,0,0,0,.61,1.51,2.59,2.59,0,0,0,1.45.74,13.74,13.74,0,0,0,2.71.21c.48,0,1,0,1.57,0s1.15-.07,1.72-.13l1.54-.18v2c-.41.07-.92.14-1.53.2s-1.23.11-1.89.15-1.31.06-1.94.06m3.61-8.21v-.8a14.15,14.15,0,0,0-.17-2.44,2.78,2.78,0,0,0-.61-1.36,2.13,2.13,0,0,0-1.17-.61,9.54,9.54,0,0,0-1.84-.15,10.94,10.94,0,0,0-2.25.19,2.16,2.16,0,0,0-1.24.7,3,3,0,0,0-.57,1.45,16.79,16.79,0,0,0-.15,2.52h8.57Z"/><polygon class="cls-4" points="792.87 584.08 810.93 499.53 845.47 499.53 849.4 543.89 850.38 543.89 873.24 499.53 907.77 499.53 889.71 584.08 865.5 584.08 876.44 533.08 875.21 533.08 849.4 584.08 832.69 584.08 828.51 533.08 827.4 533.08 816.47 584.08 792.87 584.08"/><path class="cls-4" d="M942.18,585.06q-13,0-20.52-1.78t-10.57-6Q908,573.15,908,566a56.88,56.88,0,0,1,1.23-10.88l2.83-14.32q2-10.32,3.81-17.69A47.91,47.91,0,0,1,920.43,511a21,21,0,0,1,7.07-7.49,29.76,29.76,0,0,1,11.3-3.88,115.67,115.67,0,0,1,17.52-1.1q13,0,20.34,1.78t10.32,6q3,4.18,3,11.43a69.59,69.59,0,0,1-1,10.88q-1,6.07-2.83,14.19-2.2,10.44-4.24,17.82a54.76,54.76,0,0,1-4.67,12.1,20.34,20.34,0,0,1-6.88,7.44,29.29,29.29,0,0,1-11,3.81,109.67,109.67,0,0,1-17.21,1.1m1.6-18.43a43.14,43.14,0,0,0,5.72-.31,7.91,7.91,0,0,0,3.81-1.47,9.61,9.61,0,0,0,2.7-3.75,40.76,40.76,0,0,0,2.27-7.31q1.11-4.72,2.71-12t2.39-11.74a44.47,44.47,0,0,0,.8-7.31,6.34,6.34,0,0,0-1-3.93,4.7,4.7,0,0,0-3.13-1.54,44.22,44.22,0,0,0-5.84-.31,43.49,43.49,0,0,0-5.59.31,7.48,7.48,0,0,0-6.52,5.22,58.28,58.28,0,0,0-2.21,7.31q-1.17,4.74-2.64,12-1.11,4.91-1.84,8.6t-1.17,6.27a26.61,26.61,0,0,0-.43,4.3,6,6,0,0,0,1,3.87,4.94,4.94,0,0,0,3.26,1.47,42.87,42.87,0,0,0,5.71.31"/><polygon class="cls-4" points="988.15 584.08 992.08 566.26 1036.2 517.97 1003.51 517.97 1007.56 499.53 1072.57 499.53 1068.88 516.74 1024.03 565.65 1058.56 565.65 1054.51 584.08 988.15 584.08"/><path class="cls-4" d="M1060.65,584.08l43.5-84.55h34.91l7.37,84.55H1122l-1.1-14.5h-27.65l-7.13,14.5Zm40.8-32.32H1120l-2.09-31.34h-1Z"/><polygon class="cls-5" points="1173.83 584.08 1155.03 499.53 1176.29 499.53 1188.58 559.87 1189.44 559.87 1203.2 499.53 1225.33 499.53 1239.34 559.87 1240.32 559.87 1251.38 499.53 1272.76 499.53 1253.96 584.08 1227.17 584.08 1214.39 530.75 1213.53 530.75 1200.62 584.08 1173.83 584.08"/><polygon class="cls-5" points="1283.21 584.08 1283.21 499.53 1342.44 499.53 1342.44 516 1304.59 516 1304.59 533.33 1336.67 533.33 1336.67 549.55 1304.59 549.55 1304.59 567.61 1342.44 567.61 1342.44 584.08 1283.21 584.08"/><path class="cls-5" d="M1357.68,584.08V499.53h42.77a33.21,33.21,0,0,1,13.39,2.34,16.33,16.33,0,0,1,7.93,7.06,24.12,24.12,0,0,1,2.64,11.86,27.18,27.18,0,0,1-1.6,10,14.31,14.31,0,0,1-4.85,6.45,21.7,21.7,0,0,1-8.3,3.5v.49a23.86,23.86,0,0,1,8.79,3.44,13.68,13.68,0,0,1,5,6.45,29.54,29.54,0,0,1,1.59,10.51,32.18,32.18,0,0,1-1.29,9.4,17.11,17.11,0,0,1-4.11,7.13,18.3,18.3,0,0,1-7.62,4.43,38.79,38.79,0,0,1-11.68,1.53Zm21.14-50.14h13.64a20.72,20.72,0,0,0,6.51-.8,5.28,5.28,0,0,0,3.26-2.76,13.41,13.41,0,0,0,.92-5.53,15.52,15.52,0,0,0-.86-5.9,4.66,4.66,0,0,0-3.07-2.64,24.94,24.94,0,0,0-6.76-.68h-13.64Zm0,34.17h14a22.06,22.06,0,0,0,6.76-.8,5,5,0,0,0,3.19-2.89,16.51,16.51,0,0,0,.86-6,16.09,16.09,0,0,0-.86-5.9,5,5,0,0,0-3.19-2.89,22.06,22.06,0,0,0-6.76-.8h-14Z"/></g></svg>